G04 #@! TF.FileFunction,Profile,NP*
%FSLAX46Y46*%
G04 Gerber Fmt 4.6, Leading zero omitted, Abs format (unit mm)*
G04 Created by KiCad (PCBNEW 4.0.5) date 12/26/17 14:51:36*
%MOMM*%
%LPD*%
G01*
G04 APERTURE LIST*
%ADD10C,0.100000*%
%ADD11C,0.150000*%
G04 APERTURE END LIST*
D10*
D11*
X189630424Y-88900000D02*
G75*
G03X189630424Y-88900000I-1670424J0D01*
G01*
X138854391Y-88900000D02*
G75*
G03X138854391Y-88900000I-1694391J0D01*
G01*
X138811000Y-63500000D02*
G75*
G03X138811000Y-63500000I-1651000J0D01*
G01*
X189630424Y-63500000D02*
G75*
G03X189630424Y-63500000I-1670424J0D01*
G01*
X140462000Y-88900000D02*
X184658000Y-88900000D01*
X137160000Y-66802000D02*
X137160000Y-85598000D01*
X184658000Y-63500000D02*
X140462000Y-63500000D01*
X187960000Y-85598000D02*
X187960000Y-66802000D01*
X137160000Y-85598000D02*
G75*
G03X133858000Y-88900000I0J-3302000D01*
G01*
X133858000Y-88900000D02*
G75*
G03X137160000Y-92202000I3302000J0D01*
G01*
X137160000Y-92202000D02*
G75*
G03X140462000Y-88900000I0J3302000D01*
G01*
X184658000Y-88900000D02*
G75*
G03X187960000Y-92202000I3302000J0D01*
G01*
X187960000Y-92202000D02*
G75*
G03X191262000Y-88900000I0J3302000D01*
G01*
X191262000Y-88900000D02*
G75*
G03X187960000Y-85598000I-3302000J0D01*
G01*
X187960000Y-66802000D02*
G75*
G03X191262000Y-63500000I0J3302000D01*
G01*
X191262000Y-63500000D02*
G75*
G03X187960000Y-60198000I-3302000J0D01*
G01*
X187960000Y-60198000D02*
G75*
G03X184658000Y-63500000I0J-3302000D01*
G01*
X140462000Y-63500000D02*
G75*
G03X137160000Y-60198000I-3302000J0D01*
G01*
X137160000Y-60198000D02*
G75*
G03X133858000Y-63500000I0J-3302000D01*
G01*
X133858000Y-63500000D02*
G75*
G03X137160000Y-66802000I3302000J0D01*
G01*
M02*
