G04 #@! TF.FileFunction,Copper,L2,Bot,Signal*
%FSLAX46Y46*%
G04 Gerber Fmt 4.6, Leading zero omitted, Abs format (unit mm)*
G04 Created by KiCad (PCBNEW 4.0.5) date 12/26/17 14:51:36*
%MOMM*%
%LPD*%
G01*
G04 APERTURE LIST*
%ADD10C,0.100000*%
%ADD11R,2.032000X2.032000*%
%ADD12O,2.032000X2.032000*%
%ADD13R,1.727200X2.032000*%
%ADD14O,1.727200X2.032000*%
%ADD15R,0.558800X1.981200*%
%ADD16C,6.400000*%
%ADD17C,1.500000*%
%ADD18C,0.600000*%
%ADD19C,0.250000*%
%ADD20C,0.200000*%
G04 APERTURE END LIST*
D10*
D11*
X173990000Y-67310000D03*
D12*
X176530000Y-67310000D03*
D13*
X148590000Y-67310000D03*
D14*
X151130000Y-67310000D03*
X153670000Y-67310000D03*
D15*
X177800000Y-78663800D03*
X176530000Y-78663800D03*
X175260000Y-78663800D03*
X173990000Y-78663800D03*
X173990000Y-73736200D03*
X175260000Y-73736200D03*
X176530000Y-73736200D03*
X177800000Y-73736200D03*
D16*
X137160000Y-63500000D03*
X187960000Y-63500000D03*
X137160000Y-88900000D03*
X187960000Y-88900000D03*
D17*
X140970000Y-73660000D03*
X140970000Y-76200000D03*
X140970000Y-78740000D03*
X184150000Y-73660000D03*
X184150000Y-76200000D03*
X184150000Y-78740000D03*
D18*
X173990000Y-75565000D03*
X165608000Y-79629000D03*
X168656000Y-78994000D03*
X140335000Y-66675000D03*
X140335000Y-85725000D03*
X184912000Y-85852000D03*
X184912000Y-66675000D03*
X164084000Y-81407000D03*
X164084000Y-72136000D03*
X173990000Y-76835000D03*
X168021000Y-80645000D03*
X166624000Y-80645000D03*
D19*
X173990000Y-73736200D02*
X173990000Y-75565000D01*
X168021000Y-79629000D02*
X165608000Y-79629000D01*
X168656000Y-78994000D02*
X168021000Y-79629000D01*
X137160000Y-63500000D02*
X140335000Y-66675000D01*
X187960000Y-88900000D02*
X184912000Y-85852000D01*
X177800000Y-78663800D02*
X177800000Y-80010000D01*
X176403000Y-81407000D02*
X164084000Y-81407000D01*
X177800000Y-80010000D02*
X176403000Y-81407000D01*
X177800000Y-73736200D02*
X177800000Y-72644000D01*
X177292000Y-72136000D02*
X164084000Y-72136000D01*
X177800000Y-72644000D02*
X177292000Y-72136000D01*
X173990000Y-78663800D02*
X173990000Y-76835000D01*
X153670000Y-67310000D02*
X153670000Y-79756000D01*
X154559000Y-80645000D02*
X166624000Y-80645000D01*
X153670000Y-79756000D02*
X154559000Y-80645000D01*
X175260000Y-78663800D02*
X175260000Y-79883000D01*
X174498000Y-80645000D02*
X168021000Y-80645000D01*
X168021000Y-80645000D02*
X166624000Y-80645000D01*
X175260000Y-79883000D02*
X174498000Y-80645000D01*
D20*
G36*
X184159589Y-64253796D02*
X184737344Y-65650771D01*
X184739689Y-65654282D01*
X185222490Y-66025378D01*
X186132223Y-65115645D01*
X186344355Y-65327777D01*
X185434622Y-66237510D01*
X185805718Y-66720311D01*
X187202062Y-67299587D01*
X187485000Y-67299741D01*
X187485000Y-85099741D01*
X187206204Y-85099589D01*
X185809229Y-85677344D01*
X185805718Y-85679689D01*
X185434622Y-86162490D01*
X186344355Y-87072223D01*
X186132223Y-87284355D01*
X185222490Y-86374622D01*
X184739689Y-86745718D01*
X184160413Y-88142062D01*
X184160259Y-88425000D01*
X140960259Y-88425000D01*
X140960411Y-88146204D01*
X140382656Y-86749229D01*
X140380311Y-86745718D01*
X139897510Y-86374622D01*
X138987777Y-87284355D01*
X138775645Y-87072223D01*
X139685378Y-86162490D01*
X139314282Y-85679689D01*
X137917938Y-85100413D01*
X137635000Y-85100259D01*
X137635000Y-78967746D01*
X139819801Y-78967746D01*
X139994509Y-79390572D01*
X140317727Y-79714354D01*
X140740247Y-79889800D01*
X141197746Y-79890199D01*
X141620572Y-79715491D01*
X141944354Y-79392273D01*
X142119800Y-78969753D01*
X142120199Y-78512254D01*
X141945491Y-78089428D01*
X141622273Y-77765646D01*
X141199753Y-77590200D01*
X140742254Y-77589801D01*
X140319428Y-77764509D01*
X139995646Y-78087727D01*
X139820200Y-78510247D01*
X139819801Y-78967746D01*
X137635000Y-78967746D01*
X137635000Y-77166785D01*
X140215347Y-77166785D01*
X140287116Y-77395105D01*
X140796444Y-77565462D01*
X141332196Y-77527939D01*
X141652884Y-77395105D01*
X141724653Y-77166785D01*
X140970000Y-76412132D01*
X140215347Y-77166785D01*
X137635000Y-77166785D01*
X137635000Y-76026444D01*
X139604538Y-76026444D01*
X139642061Y-76562196D01*
X139774895Y-76882884D01*
X140003215Y-76954653D01*
X140757868Y-76200000D01*
X141182132Y-76200000D01*
X141936785Y-76954653D01*
X142165105Y-76882884D01*
X142335462Y-76373556D01*
X142297939Y-75837804D01*
X142165105Y-75517116D01*
X141936785Y-75445347D01*
X141182132Y-76200000D01*
X140757868Y-76200000D01*
X140003215Y-75445347D01*
X139774895Y-75517116D01*
X139604538Y-76026444D01*
X137635000Y-76026444D01*
X137635000Y-75233215D01*
X140215347Y-75233215D01*
X140970000Y-75987868D01*
X141724653Y-75233215D01*
X141652884Y-75004895D01*
X141143556Y-74834538D01*
X140607804Y-74872061D01*
X140287116Y-75004895D01*
X140215347Y-75233215D01*
X137635000Y-75233215D01*
X137635000Y-73887746D01*
X139819801Y-73887746D01*
X139994509Y-74310572D01*
X140317727Y-74634354D01*
X140740247Y-74809800D01*
X141197746Y-74810199D01*
X141620572Y-74635491D01*
X141944354Y-74312273D01*
X142119800Y-73889753D01*
X142120199Y-73432254D01*
X141945491Y-73009428D01*
X141622273Y-72685646D01*
X141199753Y-72510200D01*
X140742254Y-72509801D01*
X140319428Y-72684509D01*
X139995646Y-73007727D01*
X139820200Y-73430247D01*
X139819801Y-73887746D01*
X137635000Y-73887746D01*
X137635000Y-67300259D01*
X137913796Y-67300411D01*
X139310771Y-66722656D01*
X139314282Y-66720311D01*
X139641958Y-66294000D01*
X147318564Y-66294000D01*
X147318564Y-68326000D01*
X147346456Y-68474231D01*
X147434060Y-68610372D01*
X147567729Y-68701704D01*
X147726400Y-68733836D01*
X149453600Y-68733836D01*
X149601831Y-68705944D01*
X149737972Y-68618340D01*
X149829304Y-68484671D01*
X149861436Y-68326000D01*
X149861436Y-68172621D01*
X149880716Y-68225147D01*
X150267703Y-68645167D01*
X150754095Y-68876903D01*
X150980000Y-68767408D01*
X150980000Y-67460000D01*
X150960000Y-67460000D01*
X150960000Y-67160000D01*
X150980000Y-67160000D01*
X150980000Y-65852592D01*
X151280000Y-65852592D01*
X151280000Y-67160000D01*
X151300000Y-67160000D01*
X151300000Y-67460000D01*
X151280000Y-67460000D01*
X151280000Y-68767408D01*
X151505905Y-68876903D01*
X151992297Y-68645167D01*
X152379284Y-68225147D01*
X152491689Y-67918915D01*
X152502586Y-67973700D01*
X152776500Y-68383641D01*
X153145000Y-68629865D01*
X153145000Y-79756000D01*
X153184963Y-79956909D01*
X153298769Y-80127231D01*
X154187769Y-81016231D01*
X154358091Y-81130037D01*
X154559000Y-81170000D01*
X163424462Y-81170000D01*
X163384122Y-81267150D01*
X163383879Y-81545628D01*
X163490223Y-81803000D01*
X163686964Y-82000085D01*
X163944150Y-82106878D01*
X164222628Y-82107121D01*
X164480000Y-82000777D01*
X164548897Y-81932000D01*
X176403000Y-81932000D01*
X176603909Y-81892037D01*
X176774231Y-81778231D01*
X178171231Y-80381231D01*
X178285037Y-80210909D01*
X178325000Y-80010000D01*
X178325000Y-79971689D01*
X178363772Y-79946740D01*
X178455104Y-79813071D01*
X178487236Y-79654400D01*
X178487236Y-78967746D01*
X182999801Y-78967746D01*
X183174509Y-79390572D01*
X183497727Y-79714354D01*
X183920247Y-79889800D01*
X184377746Y-79890199D01*
X184800572Y-79715491D01*
X185124354Y-79392273D01*
X185299800Y-78969753D01*
X185300199Y-78512254D01*
X185125491Y-78089428D01*
X184802273Y-77765646D01*
X184379753Y-77590200D01*
X183922254Y-77589801D01*
X183499428Y-77764509D01*
X183175646Y-78087727D01*
X183000200Y-78510247D01*
X182999801Y-78967746D01*
X178487236Y-78967746D01*
X178487236Y-77673200D01*
X178459344Y-77524969D01*
X178371740Y-77388828D01*
X178238071Y-77297496D01*
X178079400Y-77265364D01*
X177520600Y-77265364D01*
X177372369Y-77293256D01*
X177236228Y-77380860D01*
X177164327Y-77486091D01*
X177101740Y-77388828D01*
X176968071Y-77297496D01*
X176809400Y-77265364D01*
X176250600Y-77265364D01*
X176102369Y-77293256D01*
X175966228Y-77380860D01*
X175894327Y-77486091D01*
X175831740Y-77388828D01*
X175698071Y-77297496D01*
X175539400Y-77265364D01*
X174980600Y-77265364D01*
X174832369Y-77293256D01*
X174696228Y-77380860D01*
X174624327Y-77486091D01*
X174561740Y-77388828D01*
X174515000Y-77356892D01*
X174515000Y-77300002D01*
X174583085Y-77232036D01*
X174610179Y-77166785D01*
X183395347Y-77166785D01*
X183467116Y-77395105D01*
X183976444Y-77565462D01*
X184512196Y-77527939D01*
X184832884Y-77395105D01*
X184904653Y-77166785D01*
X184150000Y-76412132D01*
X183395347Y-77166785D01*
X174610179Y-77166785D01*
X174689878Y-76974850D01*
X174690121Y-76696372D01*
X174583777Y-76439000D01*
X174387036Y-76241915D01*
X174286163Y-76200029D01*
X174386000Y-76158777D01*
X174518564Y-76026444D01*
X182784538Y-76026444D01*
X182822061Y-76562196D01*
X182954895Y-76882884D01*
X183183215Y-76954653D01*
X183937868Y-76200000D01*
X184362132Y-76200000D01*
X185116785Y-76954653D01*
X185345105Y-76882884D01*
X185515462Y-76373556D01*
X185477939Y-75837804D01*
X185345105Y-75517116D01*
X185116785Y-75445347D01*
X184362132Y-76200000D01*
X183937868Y-76200000D01*
X183183215Y-75445347D01*
X182954895Y-75517116D01*
X182784538Y-76026444D01*
X174518564Y-76026444D01*
X174583085Y-75962036D01*
X174689878Y-75704850D01*
X174690121Y-75426372D01*
X174590470Y-75185198D01*
X174640727Y-75235455D01*
X174861252Y-75326800D01*
X174970300Y-75326800D01*
X175120300Y-75176800D01*
X175120300Y-73886200D01*
X175090000Y-73886200D01*
X175090000Y-73586200D01*
X175120300Y-73586200D01*
X175120300Y-73566200D01*
X175399700Y-73566200D01*
X175399700Y-73586200D01*
X175430000Y-73586200D01*
X175430000Y-73886200D01*
X175399700Y-73886200D01*
X175399700Y-75176800D01*
X175549700Y-75326800D01*
X175658748Y-75326800D01*
X175879273Y-75235455D01*
X175881513Y-75233215D01*
X183395347Y-75233215D01*
X184150000Y-75987868D01*
X184904653Y-75233215D01*
X184832884Y-75004895D01*
X184323556Y-74834538D01*
X183787804Y-74872061D01*
X183467116Y-75004895D01*
X183395347Y-75233215D01*
X175881513Y-75233215D01*
X176044578Y-75070150D01*
X176091929Y-75102504D01*
X176250600Y-75134636D01*
X176809400Y-75134636D01*
X176957631Y-75106744D01*
X177093772Y-75019140D01*
X177165673Y-74913909D01*
X177228260Y-75011172D01*
X177361929Y-75102504D01*
X177520600Y-75134636D01*
X178079400Y-75134636D01*
X178227631Y-75106744D01*
X178363772Y-75019140D01*
X178455104Y-74885471D01*
X178487236Y-74726800D01*
X178487236Y-73887746D01*
X182999801Y-73887746D01*
X183174509Y-74310572D01*
X183497727Y-74634354D01*
X183920247Y-74809800D01*
X184377746Y-74810199D01*
X184800572Y-74635491D01*
X185124354Y-74312273D01*
X185299800Y-73889753D01*
X185300199Y-73432254D01*
X185125491Y-73009428D01*
X184802273Y-72685646D01*
X184379753Y-72510200D01*
X183922254Y-72509801D01*
X183499428Y-72684509D01*
X183175646Y-73007727D01*
X183000200Y-73430247D01*
X182999801Y-73887746D01*
X178487236Y-73887746D01*
X178487236Y-72745600D01*
X178459344Y-72597369D01*
X178371740Y-72461228D01*
X178238071Y-72369896D01*
X178235826Y-72369441D01*
X178171231Y-72272769D01*
X177663231Y-71764769D01*
X177492909Y-71650963D01*
X177292000Y-71611000D01*
X164549002Y-71611000D01*
X164481036Y-71542915D01*
X164223850Y-71436122D01*
X163945372Y-71435879D01*
X163688000Y-71542223D01*
X163490915Y-71738964D01*
X163384122Y-71996150D01*
X163383879Y-72274628D01*
X163490223Y-72532000D01*
X163686964Y-72729085D01*
X163944150Y-72835878D01*
X164222628Y-72836121D01*
X164480000Y-72729777D01*
X164548897Y-72661000D01*
X173319896Y-72661000D01*
X173302764Y-72745600D01*
X173302764Y-74726800D01*
X173330656Y-74875031D01*
X173418260Y-75011172D01*
X173465000Y-75043108D01*
X173465000Y-75099998D01*
X173396915Y-75167964D01*
X173290122Y-75425150D01*
X173289879Y-75703628D01*
X173396223Y-75961000D01*
X173592964Y-76158085D01*
X173693837Y-76199971D01*
X173594000Y-76241223D01*
X173396915Y-76437964D01*
X173290122Y-76695150D01*
X173289879Y-76973628D01*
X173396223Y-77231000D01*
X173465000Y-77299897D01*
X173465000Y-77355911D01*
X173426228Y-77380860D01*
X173334896Y-77514529D01*
X173302764Y-77673200D01*
X173302764Y-79654400D01*
X173330656Y-79802631D01*
X173418260Y-79938772D01*
X173551929Y-80030104D01*
X173710600Y-80062236D01*
X174269400Y-80062236D01*
X174354272Y-80046266D01*
X174280538Y-80120000D01*
X168486002Y-80120000D01*
X168418036Y-80051915D01*
X168160850Y-79945122D01*
X167882372Y-79944879D01*
X167625000Y-80051223D01*
X167556103Y-80120000D01*
X167089002Y-80120000D01*
X167021036Y-80051915D01*
X166763850Y-79945122D01*
X166485372Y-79944879D01*
X166228000Y-80051223D01*
X166159103Y-80120000D01*
X154776462Y-80120000D01*
X154195000Y-79538538D01*
X154195000Y-68629865D01*
X154563500Y-68383641D01*
X154837414Y-67973700D01*
X154933600Y-67490141D01*
X154933600Y-67129859D01*
X154837414Y-66646300D01*
X154602015Y-66294000D01*
X172566164Y-66294000D01*
X172566164Y-68326000D01*
X172594056Y-68474231D01*
X172681660Y-68610372D01*
X172815329Y-68701704D01*
X172974000Y-68733836D01*
X175006000Y-68733836D01*
X175154231Y-68705944D01*
X175290372Y-68618340D01*
X175381704Y-68484671D01*
X175394661Y-68420690D01*
X175705586Y-68699904D01*
X176130140Y-68875748D01*
X176380000Y-68768306D01*
X176380000Y-67460000D01*
X176680000Y-67460000D01*
X176680000Y-68768306D01*
X176929860Y-68875748D01*
X177354414Y-68699904D01*
X177823552Y-68278614D01*
X178095759Y-67709862D01*
X177989034Y-67460000D01*
X176680000Y-67460000D01*
X176380000Y-67460000D01*
X176360000Y-67460000D01*
X176360000Y-67160000D01*
X176380000Y-67160000D01*
X176380000Y-65851694D01*
X176680000Y-65851694D01*
X176680000Y-67160000D01*
X177989034Y-67160000D01*
X178095759Y-66910138D01*
X177823552Y-66341386D01*
X177354414Y-65920096D01*
X176929860Y-65744252D01*
X176680000Y-65851694D01*
X176380000Y-65851694D01*
X176130140Y-65744252D01*
X175705586Y-65920096D01*
X175395822Y-66198267D01*
X175385944Y-66145769D01*
X175298340Y-66009628D01*
X175164671Y-65918296D01*
X175006000Y-65886164D01*
X172974000Y-65886164D01*
X172825769Y-65914056D01*
X172689628Y-66001660D01*
X172598296Y-66135329D01*
X172566164Y-66294000D01*
X154602015Y-66294000D01*
X154563500Y-66236359D01*
X154153559Y-65962445D01*
X153670000Y-65866259D01*
X153186441Y-65962445D01*
X152776500Y-66236359D01*
X152502586Y-66646300D01*
X152491689Y-66701085D01*
X152379284Y-66394853D01*
X151992297Y-65974833D01*
X151505905Y-65743097D01*
X151280000Y-65852592D01*
X150980000Y-65852592D01*
X150754095Y-65743097D01*
X150267703Y-65974833D01*
X149880716Y-66394853D01*
X149861436Y-66447379D01*
X149861436Y-66294000D01*
X149833544Y-66145769D01*
X149745940Y-66009628D01*
X149612271Y-65918296D01*
X149453600Y-65886164D01*
X147726400Y-65886164D01*
X147578169Y-65914056D01*
X147442028Y-66001660D01*
X147350696Y-66135329D01*
X147318564Y-66294000D01*
X139641958Y-66294000D01*
X139685378Y-66237510D01*
X138775645Y-65327777D01*
X138987777Y-65115645D01*
X139897510Y-66025378D01*
X140380311Y-65654282D01*
X140959587Y-64257938D01*
X140959741Y-63975000D01*
X184159741Y-63975000D01*
X184159589Y-64253796D01*
X184159589Y-64253796D01*
G37*
X184159589Y-64253796D02*
X184737344Y-65650771D01*
X184739689Y-65654282D01*
X185222490Y-66025378D01*
X186132223Y-65115645D01*
X186344355Y-65327777D01*
X185434622Y-66237510D01*
X185805718Y-66720311D01*
X187202062Y-67299587D01*
X187485000Y-67299741D01*
X187485000Y-85099741D01*
X187206204Y-85099589D01*
X185809229Y-85677344D01*
X185805718Y-85679689D01*
X185434622Y-86162490D01*
X186344355Y-87072223D01*
X186132223Y-87284355D01*
X185222490Y-86374622D01*
X184739689Y-86745718D01*
X184160413Y-88142062D01*
X184160259Y-88425000D01*
X140960259Y-88425000D01*
X140960411Y-88146204D01*
X140382656Y-86749229D01*
X140380311Y-86745718D01*
X139897510Y-86374622D01*
X138987777Y-87284355D01*
X138775645Y-87072223D01*
X139685378Y-86162490D01*
X139314282Y-85679689D01*
X137917938Y-85100413D01*
X137635000Y-85100259D01*
X137635000Y-78967746D01*
X139819801Y-78967746D01*
X139994509Y-79390572D01*
X140317727Y-79714354D01*
X140740247Y-79889800D01*
X141197746Y-79890199D01*
X141620572Y-79715491D01*
X141944354Y-79392273D01*
X142119800Y-78969753D01*
X142120199Y-78512254D01*
X141945491Y-78089428D01*
X141622273Y-77765646D01*
X141199753Y-77590200D01*
X140742254Y-77589801D01*
X140319428Y-77764509D01*
X139995646Y-78087727D01*
X139820200Y-78510247D01*
X139819801Y-78967746D01*
X137635000Y-78967746D01*
X137635000Y-77166785D01*
X140215347Y-77166785D01*
X140287116Y-77395105D01*
X140796444Y-77565462D01*
X141332196Y-77527939D01*
X141652884Y-77395105D01*
X141724653Y-77166785D01*
X140970000Y-76412132D01*
X140215347Y-77166785D01*
X137635000Y-77166785D01*
X137635000Y-76026444D01*
X139604538Y-76026444D01*
X139642061Y-76562196D01*
X139774895Y-76882884D01*
X140003215Y-76954653D01*
X140757868Y-76200000D01*
X141182132Y-76200000D01*
X141936785Y-76954653D01*
X142165105Y-76882884D01*
X142335462Y-76373556D01*
X142297939Y-75837804D01*
X142165105Y-75517116D01*
X141936785Y-75445347D01*
X141182132Y-76200000D01*
X140757868Y-76200000D01*
X140003215Y-75445347D01*
X139774895Y-75517116D01*
X139604538Y-76026444D01*
X137635000Y-76026444D01*
X137635000Y-75233215D01*
X140215347Y-75233215D01*
X140970000Y-75987868D01*
X141724653Y-75233215D01*
X141652884Y-75004895D01*
X141143556Y-74834538D01*
X140607804Y-74872061D01*
X140287116Y-75004895D01*
X140215347Y-75233215D01*
X137635000Y-75233215D01*
X137635000Y-73887746D01*
X139819801Y-73887746D01*
X139994509Y-74310572D01*
X140317727Y-74634354D01*
X140740247Y-74809800D01*
X141197746Y-74810199D01*
X141620572Y-74635491D01*
X141944354Y-74312273D01*
X142119800Y-73889753D01*
X142120199Y-73432254D01*
X141945491Y-73009428D01*
X141622273Y-72685646D01*
X141199753Y-72510200D01*
X140742254Y-72509801D01*
X140319428Y-72684509D01*
X139995646Y-73007727D01*
X139820200Y-73430247D01*
X139819801Y-73887746D01*
X137635000Y-73887746D01*
X137635000Y-67300259D01*
X137913796Y-67300411D01*
X139310771Y-66722656D01*
X139314282Y-66720311D01*
X139641958Y-66294000D01*
X147318564Y-66294000D01*
X147318564Y-68326000D01*
X147346456Y-68474231D01*
X147434060Y-68610372D01*
X147567729Y-68701704D01*
X147726400Y-68733836D01*
X149453600Y-68733836D01*
X149601831Y-68705944D01*
X149737972Y-68618340D01*
X149829304Y-68484671D01*
X149861436Y-68326000D01*
X149861436Y-68172621D01*
X149880716Y-68225147D01*
X150267703Y-68645167D01*
X150754095Y-68876903D01*
X150980000Y-68767408D01*
X150980000Y-67460000D01*
X150960000Y-67460000D01*
X150960000Y-67160000D01*
X150980000Y-67160000D01*
X150980000Y-65852592D01*
X151280000Y-65852592D01*
X151280000Y-67160000D01*
X151300000Y-67160000D01*
X151300000Y-67460000D01*
X151280000Y-67460000D01*
X151280000Y-68767408D01*
X151505905Y-68876903D01*
X151992297Y-68645167D01*
X152379284Y-68225147D01*
X152491689Y-67918915D01*
X152502586Y-67973700D01*
X152776500Y-68383641D01*
X153145000Y-68629865D01*
X153145000Y-79756000D01*
X153184963Y-79956909D01*
X153298769Y-80127231D01*
X154187769Y-81016231D01*
X154358091Y-81130037D01*
X154559000Y-81170000D01*
X163424462Y-81170000D01*
X163384122Y-81267150D01*
X163383879Y-81545628D01*
X163490223Y-81803000D01*
X163686964Y-82000085D01*
X163944150Y-82106878D01*
X164222628Y-82107121D01*
X164480000Y-82000777D01*
X164548897Y-81932000D01*
X176403000Y-81932000D01*
X176603909Y-81892037D01*
X176774231Y-81778231D01*
X178171231Y-80381231D01*
X178285037Y-80210909D01*
X178325000Y-80010000D01*
X178325000Y-79971689D01*
X178363772Y-79946740D01*
X178455104Y-79813071D01*
X178487236Y-79654400D01*
X178487236Y-78967746D01*
X182999801Y-78967746D01*
X183174509Y-79390572D01*
X183497727Y-79714354D01*
X183920247Y-79889800D01*
X184377746Y-79890199D01*
X184800572Y-79715491D01*
X185124354Y-79392273D01*
X185299800Y-78969753D01*
X185300199Y-78512254D01*
X185125491Y-78089428D01*
X184802273Y-77765646D01*
X184379753Y-77590200D01*
X183922254Y-77589801D01*
X183499428Y-77764509D01*
X183175646Y-78087727D01*
X183000200Y-78510247D01*
X182999801Y-78967746D01*
X178487236Y-78967746D01*
X178487236Y-77673200D01*
X178459344Y-77524969D01*
X178371740Y-77388828D01*
X178238071Y-77297496D01*
X178079400Y-77265364D01*
X177520600Y-77265364D01*
X177372369Y-77293256D01*
X177236228Y-77380860D01*
X177164327Y-77486091D01*
X177101740Y-77388828D01*
X176968071Y-77297496D01*
X176809400Y-77265364D01*
X176250600Y-77265364D01*
X176102369Y-77293256D01*
X175966228Y-77380860D01*
X175894327Y-77486091D01*
X175831740Y-77388828D01*
X175698071Y-77297496D01*
X175539400Y-77265364D01*
X174980600Y-77265364D01*
X174832369Y-77293256D01*
X174696228Y-77380860D01*
X174624327Y-77486091D01*
X174561740Y-77388828D01*
X174515000Y-77356892D01*
X174515000Y-77300002D01*
X174583085Y-77232036D01*
X174610179Y-77166785D01*
X183395347Y-77166785D01*
X183467116Y-77395105D01*
X183976444Y-77565462D01*
X184512196Y-77527939D01*
X184832884Y-77395105D01*
X184904653Y-77166785D01*
X184150000Y-76412132D01*
X183395347Y-77166785D01*
X174610179Y-77166785D01*
X174689878Y-76974850D01*
X174690121Y-76696372D01*
X174583777Y-76439000D01*
X174387036Y-76241915D01*
X174286163Y-76200029D01*
X174386000Y-76158777D01*
X174518564Y-76026444D01*
X182784538Y-76026444D01*
X182822061Y-76562196D01*
X182954895Y-76882884D01*
X183183215Y-76954653D01*
X183937868Y-76200000D01*
X184362132Y-76200000D01*
X185116785Y-76954653D01*
X185345105Y-76882884D01*
X185515462Y-76373556D01*
X185477939Y-75837804D01*
X185345105Y-75517116D01*
X185116785Y-75445347D01*
X184362132Y-76200000D01*
X183937868Y-76200000D01*
X183183215Y-75445347D01*
X182954895Y-75517116D01*
X182784538Y-76026444D01*
X174518564Y-76026444D01*
X174583085Y-75962036D01*
X174689878Y-75704850D01*
X174690121Y-75426372D01*
X174590470Y-75185198D01*
X174640727Y-75235455D01*
X174861252Y-75326800D01*
X174970300Y-75326800D01*
X175120300Y-75176800D01*
X175120300Y-73886200D01*
X175090000Y-73886200D01*
X175090000Y-73586200D01*
X175120300Y-73586200D01*
X175120300Y-73566200D01*
X175399700Y-73566200D01*
X175399700Y-73586200D01*
X175430000Y-73586200D01*
X175430000Y-73886200D01*
X175399700Y-73886200D01*
X175399700Y-75176800D01*
X175549700Y-75326800D01*
X175658748Y-75326800D01*
X175879273Y-75235455D01*
X175881513Y-75233215D01*
X183395347Y-75233215D01*
X184150000Y-75987868D01*
X184904653Y-75233215D01*
X184832884Y-75004895D01*
X184323556Y-74834538D01*
X183787804Y-74872061D01*
X183467116Y-75004895D01*
X183395347Y-75233215D01*
X175881513Y-75233215D01*
X176044578Y-75070150D01*
X176091929Y-75102504D01*
X176250600Y-75134636D01*
X176809400Y-75134636D01*
X176957631Y-75106744D01*
X177093772Y-75019140D01*
X177165673Y-74913909D01*
X177228260Y-75011172D01*
X177361929Y-75102504D01*
X177520600Y-75134636D01*
X178079400Y-75134636D01*
X178227631Y-75106744D01*
X178363772Y-75019140D01*
X178455104Y-74885471D01*
X178487236Y-74726800D01*
X178487236Y-73887746D01*
X182999801Y-73887746D01*
X183174509Y-74310572D01*
X183497727Y-74634354D01*
X183920247Y-74809800D01*
X184377746Y-74810199D01*
X184800572Y-74635491D01*
X185124354Y-74312273D01*
X185299800Y-73889753D01*
X185300199Y-73432254D01*
X185125491Y-73009428D01*
X184802273Y-72685646D01*
X184379753Y-72510200D01*
X183922254Y-72509801D01*
X183499428Y-72684509D01*
X183175646Y-73007727D01*
X183000200Y-73430247D01*
X182999801Y-73887746D01*
X178487236Y-73887746D01*
X178487236Y-72745600D01*
X178459344Y-72597369D01*
X178371740Y-72461228D01*
X178238071Y-72369896D01*
X178235826Y-72369441D01*
X178171231Y-72272769D01*
X177663231Y-71764769D01*
X177492909Y-71650963D01*
X177292000Y-71611000D01*
X164549002Y-71611000D01*
X164481036Y-71542915D01*
X164223850Y-71436122D01*
X163945372Y-71435879D01*
X163688000Y-71542223D01*
X163490915Y-71738964D01*
X163384122Y-71996150D01*
X163383879Y-72274628D01*
X163490223Y-72532000D01*
X163686964Y-72729085D01*
X163944150Y-72835878D01*
X164222628Y-72836121D01*
X164480000Y-72729777D01*
X164548897Y-72661000D01*
X173319896Y-72661000D01*
X173302764Y-72745600D01*
X173302764Y-74726800D01*
X173330656Y-74875031D01*
X173418260Y-75011172D01*
X173465000Y-75043108D01*
X173465000Y-75099998D01*
X173396915Y-75167964D01*
X173290122Y-75425150D01*
X173289879Y-75703628D01*
X173396223Y-75961000D01*
X173592964Y-76158085D01*
X173693837Y-76199971D01*
X173594000Y-76241223D01*
X173396915Y-76437964D01*
X173290122Y-76695150D01*
X173289879Y-76973628D01*
X173396223Y-77231000D01*
X173465000Y-77299897D01*
X173465000Y-77355911D01*
X173426228Y-77380860D01*
X173334896Y-77514529D01*
X173302764Y-77673200D01*
X173302764Y-79654400D01*
X173330656Y-79802631D01*
X173418260Y-79938772D01*
X173551929Y-80030104D01*
X173710600Y-80062236D01*
X174269400Y-80062236D01*
X174354272Y-80046266D01*
X174280538Y-80120000D01*
X168486002Y-80120000D01*
X168418036Y-80051915D01*
X168160850Y-79945122D01*
X167882372Y-79944879D01*
X167625000Y-80051223D01*
X167556103Y-80120000D01*
X167089002Y-80120000D01*
X167021036Y-80051915D01*
X166763850Y-79945122D01*
X166485372Y-79944879D01*
X166228000Y-80051223D01*
X166159103Y-80120000D01*
X154776462Y-80120000D01*
X154195000Y-79538538D01*
X154195000Y-68629865D01*
X154563500Y-68383641D01*
X154837414Y-67973700D01*
X154933600Y-67490141D01*
X154933600Y-67129859D01*
X154837414Y-66646300D01*
X154602015Y-66294000D01*
X172566164Y-66294000D01*
X172566164Y-68326000D01*
X172594056Y-68474231D01*
X172681660Y-68610372D01*
X172815329Y-68701704D01*
X172974000Y-68733836D01*
X175006000Y-68733836D01*
X175154231Y-68705944D01*
X175290372Y-68618340D01*
X175381704Y-68484671D01*
X175394661Y-68420690D01*
X175705586Y-68699904D01*
X176130140Y-68875748D01*
X176380000Y-68768306D01*
X176380000Y-67460000D01*
X176680000Y-67460000D01*
X176680000Y-68768306D01*
X176929860Y-68875748D01*
X177354414Y-68699904D01*
X177823552Y-68278614D01*
X178095759Y-67709862D01*
X177989034Y-67460000D01*
X176680000Y-67460000D01*
X176380000Y-67460000D01*
X176360000Y-67460000D01*
X176360000Y-67160000D01*
X176380000Y-67160000D01*
X176380000Y-65851694D01*
X176680000Y-65851694D01*
X176680000Y-67160000D01*
X177989034Y-67160000D01*
X178095759Y-66910138D01*
X177823552Y-66341386D01*
X177354414Y-65920096D01*
X176929860Y-65744252D01*
X176680000Y-65851694D01*
X176380000Y-65851694D01*
X176130140Y-65744252D01*
X175705586Y-65920096D01*
X175395822Y-66198267D01*
X175385944Y-66145769D01*
X175298340Y-66009628D01*
X175164671Y-65918296D01*
X175006000Y-65886164D01*
X172974000Y-65886164D01*
X172825769Y-65914056D01*
X172689628Y-66001660D01*
X172598296Y-66135329D01*
X172566164Y-66294000D01*
X154602015Y-66294000D01*
X154563500Y-66236359D01*
X154153559Y-65962445D01*
X153670000Y-65866259D01*
X153186441Y-65962445D01*
X152776500Y-66236359D01*
X152502586Y-66646300D01*
X152491689Y-66701085D01*
X152379284Y-66394853D01*
X151992297Y-65974833D01*
X151505905Y-65743097D01*
X151280000Y-65852592D01*
X150980000Y-65852592D01*
X150754095Y-65743097D01*
X150267703Y-65974833D01*
X149880716Y-66394853D01*
X149861436Y-66447379D01*
X149861436Y-66294000D01*
X149833544Y-66145769D01*
X149745940Y-66009628D01*
X149612271Y-65918296D01*
X149453600Y-65886164D01*
X147726400Y-65886164D01*
X147578169Y-65914056D01*
X147442028Y-66001660D01*
X147350696Y-66135329D01*
X147318564Y-66294000D01*
X139641958Y-66294000D01*
X139685378Y-66237510D01*
X138775645Y-65327777D01*
X138987777Y-65115645D01*
X139897510Y-66025378D01*
X140380311Y-65654282D01*
X140959587Y-64257938D01*
X140959741Y-63975000D01*
X184159741Y-63975000D01*
X184159589Y-64253796D01*
M02*
