G04 #@! TF.FileFunction,Legend,Bot*
%FSLAX46Y46*%
G04 Gerber Fmt 4.6, Leading zero omitted, Abs format (unit mm)*
G04 Created by KiCad (PCBNEW 4.0.5) date 12/26/17 14:51:36*
%MOMM*%
%LPD*%
G01*
G04 APERTURE LIST*
%ADD10C,0.100000*%
%ADD11C,0.200000*%
%ADD12C,0.152400*%
%ADD13C,0.010000*%
%ADD14C,0.150000*%
G04 APERTURE END LIST*
D10*
D11*
X179607981Y-78867000D02*
G75*
G03X179607981Y-78867000I-283981J0D01*
G01*
D12*
X173405800Y-77571600D02*
X173405800Y-74828400D01*
X178384200Y-74828400D02*
X178384200Y-75895200D01*
X178384200Y-75895200D02*
X178384200Y-76504800D01*
X178384200Y-76504800D02*
X178384200Y-77571600D01*
D10*
X178384200Y-75895200D02*
G75*
G03X178384200Y-76504800I0J-304800D01*
G01*
D13*
G36*
X156362371Y-86851066D02*
X156322889Y-86851467D01*
X156207200Y-86854259D01*
X156110311Y-86862550D01*
X156028919Y-86877232D01*
X155959723Y-86899193D01*
X155899420Y-86929322D01*
X155844708Y-86968510D01*
X155825167Y-86985532D01*
X155792750Y-87025363D01*
X155763520Y-87079413D01*
X155740991Y-87139323D01*
X155728679Y-87196739D01*
X155727400Y-87217956D01*
X155735417Y-87276769D01*
X155756899Y-87341013D01*
X155787999Y-87401821D01*
X155824866Y-87450330D01*
X155830854Y-87456182D01*
X155881579Y-87497321D01*
X155937125Y-87529435D01*
X156000696Y-87553365D01*
X156075494Y-87569953D01*
X156164722Y-87580041D01*
X156271582Y-87584469D01*
X156320528Y-87584845D01*
X156382762Y-87584545D01*
X156426528Y-87583292D01*
X156455931Y-87580554D01*
X156475079Y-87575801D01*
X156488077Y-87568501D01*
X156495045Y-87562267D01*
X156501626Y-87554694D01*
X156506788Y-87544924D01*
X156510703Y-87530340D01*
X156513543Y-87508326D01*
X156515480Y-87476264D01*
X156516684Y-87431536D01*
X156517328Y-87371526D01*
X156517583Y-87293617D01*
X156517622Y-87217956D01*
X156517870Y-87117041D01*
X156517817Y-87036427D01*
X156516857Y-86997822D01*
X156370867Y-86997822D01*
X156370867Y-87438089D01*
X156277734Y-87438004D01*
X156221693Y-87436396D01*
X156162999Y-87432256D01*
X156114028Y-87426464D01*
X156112538Y-87426226D01*
X156033392Y-87407090D01*
X155972002Y-87377287D01*
X155925305Y-87334878D01*
X155895635Y-87288961D01*
X155877353Y-87238026D01*
X155878771Y-87190200D01*
X155899988Y-87138933D01*
X155941489Y-87085899D01*
X155998998Y-87046600D01*
X156073750Y-87020331D01*
X156123708Y-87011035D01*
X156180416Y-87004507D01*
X156240519Y-86999782D01*
X156291639Y-86997817D01*
X156294667Y-86997808D01*
X156370867Y-86997822D01*
X156516857Y-86997822D01*
X156516260Y-86973851D01*
X156511998Y-86927055D01*
X156503830Y-86893778D01*
X156490556Y-86871759D01*
X156470974Y-86858739D01*
X156443883Y-86852457D01*
X156408082Y-86850653D01*
X156362371Y-86851066D01*
X156362371Y-86851066D01*
G37*
X156362371Y-86851066D02*
X156322889Y-86851467D01*
X156207200Y-86854259D01*
X156110311Y-86862550D01*
X156028919Y-86877232D01*
X155959723Y-86899193D01*
X155899420Y-86929322D01*
X155844708Y-86968510D01*
X155825167Y-86985532D01*
X155792750Y-87025363D01*
X155763520Y-87079413D01*
X155740991Y-87139323D01*
X155728679Y-87196739D01*
X155727400Y-87217956D01*
X155735417Y-87276769D01*
X155756899Y-87341013D01*
X155787999Y-87401821D01*
X155824866Y-87450330D01*
X155830854Y-87456182D01*
X155881579Y-87497321D01*
X155937125Y-87529435D01*
X156000696Y-87553365D01*
X156075494Y-87569953D01*
X156164722Y-87580041D01*
X156271582Y-87584469D01*
X156320528Y-87584845D01*
X156382762Y-87584545D01*
X156426528Y-87583292D01*
X156455931Y-87580554D01*
X156475079Y-87575801D01*
X156488077Y-87568501D01*
X156495045Y-87562267D01*
X156501626Y-87554694D01*
X156506788Y-87544924D01*
X156510703Y-87530340D01*
X156513543Y-87508326D01*
X156515480Y-87476264D01*
X156516684Y-87431536D01*
X156517328Y-87371526D01*
X156517583Y-87293617D01*
X156517622Y-87217956D01*
X156517870Y-87117041D01*
X156517817Y-87036427D01*
X156516857Y-86997822D01*
X156370867Y-86997822D01*
X156370867Y-87438089D01*
X156277734Y-87438004D01*
X156221693Y-87436396D01*
X156162999Y-87432256D01*
X156114028Y-87426464D01*
X156112538Y-87426226D01*
X156033392Y-87407090D01*
X155972002Y-87377287D01*
X155925305Y-87334878D01*
X155895635Y-87288961D01*
X155877353Y-87238026D01*
X155878771Y-87190200D01*
X155899988Y-87138933D01*
X155941489Y-87085899D01*
X155998998Y-87046600D01*
X156073750Y-87020331D01*
X156123708Y-87011035D01*
X156180416Y-87004507D01*
X156240519Y-86999782D01*
X156291639Y-86997817D01*
X156294667Y-86997808D01*
X156370867Y-86997822D01*
X156516857Y-86997822D01*
X156516260Y-86973851D01*
X156511998Y-86927055D01*
X156503830Y-86893778D01*
X156490556Y-86871759D01*
X156470974Y-86858739D01*
X156443883Y-86852457D01*
X156408082Y-86850653D01*
X156362371Y-86851066D01*
G36*
X154953794Y-86851146D02*
X154884386Y-86851518D01*
X154831997Y-86852385D01*
X154793847Y-86853946D01*
X154767159Y-86856403D01*
X154749153Y-86859957D01*
X154737049Y-86864810D01*
X154728069Y-86871161D01*
X154724818Y-86874084D01*
X154705043Y-86905142D01*
X154701482Y-86940828D01*
X154714491Y-86972510D01*
X154720506Y-86978913D01*
X154730235Y-86985121D01*
X154745901Y-86989910D01*
X154770408Y-86993514D01*
X154806661Y-86996164D01*
X154857565Y-86998095D01*
X154926026Y-86999539D01*
X154988617Y-87000418D01*
X155236334Y-87003467D01*
X155239719Y-87068378D01*
X155243105Y-87133289D01*
X155074958Y-87133289D01*
X155001959Y-87133919D01*
X154948517Y-87136553D01*
X154911628Y-87142309D01*
X154888288Y-87152304D01*
X154875494Y-87167656D01*
X154870242Y-87189482D01*
X154869445Y-87209738D01*
X154871923Y-87234592D01*
X154881277Y-87252906D01*
X154900383Y-87265637D01*
X154932118Y-87273741D01*
X154979359Y-87278176D01*
X155044983Y-87279899D01*
X155080801Y-87280045D01*
X155241978Y-87280045D01*
X155241978Y-87438089D01*
X154993622Y-87438089D01*
X154912213Y-87438202D01*
X154850342Y-87438712D01*
X154804968Y-87439870D01*
X154773054Y-87441930D01*
X154751559Y-87445146D01*
X154737443Y-87449772D01*
X154727668Y-87456059D01*
X154722689Y-87460667D01*
X154705610Y-87487560D01*
X154700111Y-87511467D01*
X154707963Y-87540667D01*
X154722689Y-87562267D01*
X154730546Y-87569066D01*
X154740688Y-87574346D01*
X154755844Y-87578298D01*
X154778741Y-87581113D01*
X154812109Y-87582982D01*
X154858675Y-87584098D01*
X154921167Y-87584651D01*
X155002314Y-87584833D01*
X155044422Y-87584845D01*
X155134598Y-87584765D01*
X155204924Y-87584398D01*
X155258129Y-87583552D01*
X155296940Y-87582036D01*
X155324087Y-87579659D01*
X155342298Y-87576229D01*
X155354300Y-87571554D01*
X155362822Y-87565444D01*
X155366156Y-87562267D01*
X155372755Y-87554670D01*
X155377927Y-87544870D01*
X155381846Y-87530239D01*
X155384684Y-87508152D01*
X155386615Y-87475982D01*
X155387812Y-87431103D01*
X155388448Y-87370889D01*
X155388697Y-87292713D01*
X155388734Y-87219923D01*
X155388700Y-87126707D01*
X155388465Y-87053431D01*
X155387830Y-86997458D01*
X155386594Y-86956151D01*
X155384556Y-86926872D01*
X155381517Y-86906984D01*
X155377277Y-86893850D01*
X155371635Y-86884832D01*
X155364391Y-86877293D01*
X155362606Y-86875612D01*
X155353945Y-86868172D01*
X155343882Y-86862409D01*
X155329625Y-86858112D01*
X155308383Y-86855064D01*
X155277364Y-86853051D01*
X155233777Y-86851860D01*
X155174831Y-86851275D01*
X155097734Y-86851083D01*
X155043001Y-86851067D01*
X154953794Y-86851146D01*
X154953794Y-86851146D01*
G37*
X154953794Y-86851146D02*
X154884386Y-86851518D01*
X154831997Y-86852385D01*
X154793847Y-86853946D01*
X154767159Y-86856403D01*
X154749153Y-86859957D01*
X154737049Y-86864810D01*
X154728069Y-86871161D01*
X154724818Y-86874084D01*
X154705043Y-86905142D01*
X154701482Y-86940828D01*
X154714491Y-86972510D01*
X154720506Y-86978913D01*
X154730235Y-86985121D01*
X154745901Y-86989910D01*
X154770408Y-86993514D01*
X154806661Y-86996164D01*
X154857565Y-86998095D01*
X154926026Y-86999539D01*
X154988617Y-87000418D01*
X155236334Y-87003467D01*
X155239719Y-87068378D01*
X155243105Y-87133289D01*
X155074958Y-87133289D01*
X155001959Y-87133919D01*
X154948517Y-87136553D01*
X154911628Y-87142309D01*
X154888288Y-87152304D01*
X154875494Y-87167656D01*
X154870242Y-87189482D01*
X154869445Y-87209738D01*
X154871923Y-87234592D01*
X154881277Y-87252906D01*
X154900383Y-87265637D01*
X154932118Y-87273741D01*
X154979359Y-87278176D01*
X155044983Y-87279899D01*
X155080801Y-87280045D01*
X155241978Y-87280045D01*
X155241978Y-87438089D01*
X154993622Y-87438089D01*
X154912213Y-87438202D01*
X154850342Y-87438712D01*
X154804968Y-87439870D01*
X154773054Y-87441930D01*
X154751559Y-87445146D01*
X154737443Y-87449772D01*
X154727668Y-87456059D01*
X154722689Y-87460667D01*
X154705610Y-87487560D01*
X154700111Y-87511467D01*
X154707963Y-87540667D01*
X154722689Y-87562267D01*
X154730546Y-87569066D01*
X154740688Y-87574346D01*
X154755844Y-87578298D01*
X154778741Y-87581113D01*
X154812109Y-87582982D01*
X154858675Y-87584098D01*
X154921167Y-87584651D01*
X155002314Y-87584833D01*
X155044422Y-87584845D01*
X155134598Y-87584765D01*
X155204924Y-87584398D01*
X155258129Y-87583552D01*
X155296940Y-87582036D01*
X155324087Y-87579659D01*
X155342298Y-87576229D01*
X155354300Y-87571554D01*
X155362822Y-87565444D01*
X155366156Y-87562267D01*
X155372755Y-87554670D01*
X155377927Y-87544870D01*
X155381846Y-87530239D01*
X155384684Y-87508152D01*
X155386615Y-87475982D01*
X155387812Y-87431103D01*
X155388448Y-87370889D01*
X155388697Y-87292713D01*
X155388734Y-87219923D01*
X155388700Y-87126707D01*
X155388465Y-87053431D01*
X155387830Y-86997458D01*
X155386594Y-86956151D01*
X155384556Y-86926872D01*
X155381517Y-86906984D01*
X155377277Y-86893850D01*
X155371635Y-86884832D01*
X155364391Y-86877293D01*
X155362606Y-86875612D01*
X155353945Y-86868172D01*
X155343882Y-86862409D01*
X155329625Y-86858112D01*
X155308383Y-86855064D01*
X155277364Y-86853051D01*
X155233777Y-86851860D01*
X155174831Y-86851275D01*
X155097734Y-86851083D01*
X155043001Y-86851067D01*
X154953794Y-86851146D01*
G36*
X153932703Y-86852351D02*
X153857888Y-86857581D01*
X153788306Y-86865750D01*
X153728002Y-86876550D01*
X153681020Y-86889673D01*
X153651406Y-86904813D01*
X153646860Y-86909269D01*
X153631054Y-86943850D01*
X153635847Y-86979351D01*
X153660364Y-87009725D01*
X153661534Y-87010596D01*
X153675954Y-87019954D01*
X153691008Y-87024876D01*
X153712005Y-87025473D01*
X153744257Y-87021861D01*
X153793073Y-87014154D01*
X153797000Y-87013505D01*
X153869739Y-87004569D01*
X153948217Y-87000161D01*
X154026927Y-87000119D01*
X154100361Y-87004279D01*
X154163011Y-87012479D01*
X154209370Y-87024557D01*
X154212416Y-87025771D01*
X154246048Y-87044615D01*
X154257864Y-87063685D01*
X154248614Y-87082439D01*
X154219047Y-87100337D01*
X154169911Y-87116837D01*
X154101957Y-87131396D01*
X154056645Y-87138406D01*
X153962456Y-87151889D01*
X153887544Y-87164214D01*
X153828717Y-87176449D01*
X153782785Y-87189661D01*
X153746555Y-87204917D01*
X153716838Y-87223285D01*
X153690442Y-87245831D01*
X153669230Y-87267971D01*
X153644065Y-87298819D01*
X153631681Y-87325345D01*
X153627808Y-87358026D01*
X153627667Y-87369995D01*
X153630576Y-87409712D01*
X153642202Y-87439259D01*
X153662323Y-87465486D01*
X153703216Y-87505576D01*
X153748817Y-87536149D01*
X153802513Y-87558203D01*
X153867692Y-87572735D01*
X153947744Y-87580741D01*
X154046057Y-87583218D01*
X154062289Y-87583177D01*
X154127849Y-87581818D01*
X154192866Y-87578730D01*
X154250252Y-87574356D01*
X154292922Y-87569140D01*
X154296372Y-87568541D01*
X154338796Y-87558491D01*
X154374780Y-87545796D01*
X154395150Y-87534190D01*
X154414107Y-87503572D01*
X154415427Y-87467918D01*
X154399085Y-87436144D01*
X154395429Y-87432551D01*
X154380315Y-87421876D01*
X154361415Y-87417276D01*
X154332162Y-87418059D01*
X154296651Y-87422127D01*
X154256970Y-87425762D01*
X154201345Y-87428828D01*
X154136406Y-87431053D01*
X154068785Y-87432164D01*
X154051000Y-87432237D01*
X153983128Y-87431964D01*
X153933454Y-87430646D01*
X153897610Y-87427827D01*
X153871224Y-87423050D01*
X153849926Y-87415857D01*
X153837126Y-87409867D01*
X153809000Y-87393233D01*
X153791068Y-87378168D01*
X153788447Y-87373897D01*
X153793976Y-87356263D01*
X153820260Y-87339192D01*
X153865478Y-87323458D01*
X153927808Y-87309838D01*
X153946171Y-87306804D01*
X154042090Y-87291738D01*
X154118641Y-87279146D01*
X154178780Y-87268111D01*
X154225460Y-87257720D01*
X154261637Y-87247056D01*
X154290265Y-87235205D01*
X154314298Y-87221251D01*
X154336692Y-87204281D01*
X154360402Y-87183378D01*
X154368380Y-87176049D01*
X154396353Y-87148699D01*
X154411160Y-87127029D01*
X154416952Y-87102232D01*
X154417889Y-87070983D01*
X154407575Y-87009705D01*
X154376752Y-86957640D01*
X154325595Y-86914958D01*
X154254283Y-86881825D01*
X154203400Y-86866964D01*
X154148100Y-86857366D01*
X154081853Y-86851936D01*
X154008706Y-86850367D01*
X153932703Y-86852351D01*
X153932703Y-86852351D01*
G37*
X153932703Y-86852351D02*
X153857888Y-86857581D01*
X153788306Y-86865750D01*
X153728002Y-86876550D01*
X153681020Y-86889673D01*
X153651406Y-86904813D01*
X153646860Y-86909269D01*
X153631054Y-86943850D01*
X153635847Y-86979351D01*
X153660364Y-87009725D01*
X153661534Y-87010596D01*
X153675954Y-87019954D01*
X153691008Y-87024876D01*
X153712005Y-87025473D01*
X153744257Y-87021861D01*
X153793073Y-87014154D01*
X153797000Y-87013505D01*
X153869739Y-87004569D01*
X153948217Y-87000161D01*
X154026927Y-87000119D01*
X154100361Y-87004279D01*
X154163011Y-87012479D01*
X154209370Y-87024557D01*
X154212416Y-87025771D01*
X154246048Y-87044615D01*
X154257864Y-87063685D01*
X154248614Y-87082439D01*
X154219047Y-87100337D01*
X154169911Y-87116837D01*
X154101957Y-87131396D01*
X154056645Y-87138406D01*
X153962456Y-87151889D01*
X153887544Y-87164214D01*
X153828717Y-87176449D01*
X153782785Y-87189661D01*
X153746555Y-87204917D01*
X153716838Y-87223285D01*
X153690442Y-87245831D01*
X153669230Y-87267971D01*
X153644065Y-87298819D01*
X153631681Y-87325345D01*
X153627808Y-87358026D01*
X153627667Y-87369995D01*
X153630576Y-87409712D01*
X153642202Y-87439259D01*
X153662323Y-87465486D01*
X153703216Y-87505576D01*
X153748817Y-87536149D01*
X153802513Y-87558203D01*
X153867692Y-87572735D01*
X153947744Y-87580741D01*
X154046057Y-87583218D01*
X154062289Y-87583177D01*
X154127849Y-87581818D01*
X154192866Y-87578730D01*
X154250252Y-87574356D01*
X154292922Y-87569140D01*
X154296372Y-87568541D01*
X154338796Y-87558491D01*
X154374780Y-87545796D01*
X154395150Y-87534190D01*
X154414107Y-87503572D01*
X154415427Y-87467918D01*
X154399085Y-87436144D01*
X154395429Y-87432551D01*
X154380315Y-87421876D01*
X154361415Y-87417276D01*
X154332162Y-87418059D01*
X154296651Y-87422127D01*
X154256970Y-87425762D01*
X154201345Y-87428828D01*
X154136406Y-87431053D01*
X154068785Y-87432164D01*
X154051000Y-87432237D01*
X153983128Y-87431964D01*
X153933454Y-87430646D01*
X153897610Y-87427827D01*
X153871224Y-87423050D01*
X153849926Y-87415857D01*
X153837126Y-87409867D01*
X153809000Y-87393233D01*
X153791068Y-87378168D01*
X153788447Y-87373897D01*
X153793976Y-87356263D01*
X153820260Y-87339192D01*
X153865478Y-87323458D01*
X153927808Y-87309838D01*
X153946171Y-87306804D01*
X154042090Y-87291738D01*
X154118641Y-87279146D01*
X154178780Y-87268111D01*
X154225460Y-87257720D01*
X154261637Y-87247056D01*
X154290265Y-87235205D01*
X154314298Y-87221251D01*
X154336692Y-87204281D01*
X154360402Y-87183378D01*
X154368380Y-87176049D01*
X154396353Y-87148699D01*
X154411160Y-87127029D01*
X154416952Y-87102232D01*
X154417889Y-87070983D01*
X154407575Y-87009705D01*
X154376752Y-86957640D01*
X154325595Y-86914958D01*
X154254283Y-86881825D01*
X154203400Y-86866964D01*
X154148100Y-86857366D01*
X154081853Y-86851936D01*
X154008706Y-86850367D01*
X153932703Y-86852351D01*
G36*
X153164822Y-86873645D02*
X153158242Y-86881218D01*
X153153079Y-86890987D01*
X153149164Y-86905571D01*
X153146324Y-86927585D01*
X153144387Y-86959648D01*
X153143183Y-87004375D01*
X153142539Y-87064385D01*
X153142284Y-87142294D01*
X153142245Y-87217956D01*
X153142314Y-87311802D01*
X153142638Y-87385689D01*
X153143386Y-87442232D01*
X153144732Y-87484049D01*
X153146846Y-87513757D01*
X153149900Y-87533973D01*
X153154066Y-87547314D01*
X153159516Y-87556398D01*
X153164822Y-87562267D01*
X153197826Y-87581947D01*
X153232991Y-87580181D01*
X153264455Y-87558717D01*
X153271684Y-87550337D01*
X153277334Y-87540614D01*
X153281599Y-87526861D01*
X153284673Y-87506389D01*
X153286752Y-87476512D01*
X153288030Y-87434541D01*
X153288701Y-87377789D01*
X153288959Y-87303567D01*
X153289000Y-87219537D01*
X153289000Y-86906485D01*
X153261291Y-86878776D01*
X153227137Y-86855463D01*
X153194006Y-86854623D01*
X153164822Y-86873645D01*
X153164822Y-86873645D01*
G37*
X153164822Y-86873645D02*
X153158242Y-86881218D01*
X153153079Y-86890987D01*
X153149164Y-86905571D01*
X153146324Y-86927585D01*
X153144387Y-86959648D01*
X153143183Y-87004375D01*
X153142539Y-87064385D01*
X153142284Y-87142294D01*
X153142245Y-87217956D01*
X153142314Y-87311802D01*
X153142638Y-87385689D01*
X153143386Y-87442232D01*
X153144732Y-87484049D01*
X153146846Y-87513757D01*
X153149900Y-87533973D01*
X153154066Y-87547314D01*
X153159516Y-87556398D01*
X153164822Y-87562267D01*
X153197826Y-87581947D01*
X153232991Y-87580181D01*
X153264455Y-87558717D01*
X153271684Y-87550337D01*
X153277334Y-87540614D01*
X153281599Y-87526861D01*
X153284673Y-87506389D01*
X153286752Y-87476512D01*
X153288030Y-87434541D01*
X153288701Y-87377789D01*
X153288959Y-87303567D01*
X153289000Y-87219537D01*
X153289000Y-86906485D01*
X153261291Y-86878776D01*
X153227137Y-86855463D01*
X153194006Y-86854623D01*
X153164822Y-86873645D01*
G36*
X152191081Y-86856599D02*
X152122565Y-86868095D01*
X152069943Y-86885967D01*
X152035708Y-86909499D01*
X152026379Y-86922924D01*
X152016893Y-86954148D01*
X152023277Y-86982395D01*
X152043430Y-87009182D01*
X152074745Y-87021713D01*
X152120183Y-87020696D01*
X152155326Y-87013906D01*
X152233419Y-87000971D01*
X152313226Y-86999742D01*
X152402555Y-87010241D01*
X152427229Y-87014690D01*
X152510291Y-87038108D01*
X152575273Y-87072945D01*
X152621461Y-87118604D01*
X152648145Y-87174494D01*
X152653663Y-87203388D01*
X152650051Y-87262012D01*
X152626729Y-87313879D01*
X152585824Y-87357978D01*
X152529459Y-87393299D01*
X152459760Y-87418829D01*
X152378852Y-87433559D01*
X152288860Y-87436478D01*
X152191910Y-87426575D01*
X152186436Y-87425641D01*
X152147875Y-87418459D01*
X152126494Y-87411521D01*
X152117227Y-87401227D01*
X152115006Y-87383976D01*
X152114956Y-87374841D01*
X152114956Y-87336489D01*
X152183431Y-87336489D01*
X152243900Y-87332347D01*
X152285165Y-87319147D01*
X152309175Y-87295730D01*
X152317877Y-87260936D01*
X152317983Y-87256394D01*
X152312892Y-87226654D01*
X152295433Y-87205419D01*
X152262939Y-87191366D01*
X152212743Y-87183173D01*
X152164123Y-87180161D01*
X152093456Y-87178433D01*
X152042198Y-87181070D01*
X152007239Y-87190800D01*
X151985470Y-87210353D01*
X151973780Y-87242456D01*
X151969060Y-87289838D01*
X151968200Y-87352071D01*
X151969609Y-87421535D01*
X151973848Y-87468786D01*
X151980936Y-87494012D01*
X151982311Y-87495988D01*
X152021228Y-87527508D01*
X152078286Y-87552470D01*
X152149869Y-87570340D01*
X152232358Y-87580586D01*
X152322139Y-87582673D01*
X152415592Y-87576068D01*
X152470556Y-87567956D01*
X152556766Y-87543554D01*
X152636892Y-87503662D01*
X152703977Y-87451887D01*
X152714173Y-87441539D01*
X152747302Y-87398035D01*
X152777194Y-87344118D01*
X152800357Y-87287592D01*
X152813298Y-87236259D01*
X152814858Y-87216544D01*
X152808218Y-87175419D01*
X152790568Y-87124252D01*
X152765297Y-87070394D01*
X152735789Y-87021195D01*
X152709719Y-86988334D01*
X152648765Y-86939452D01*
X152569969Y-86900545D01*
X152476157Y-86872494D01*
X152370150Y-86856179D01*
X152273000Y-86852192D01*
X152191081Y-86856599D01*
X152191081Y-86856599D01*
G37*
X152191081Y-86856599D02*
X152122565Y-86868095D01*
X152069943Y-86885967D01*
X152035708Y-86909499D01*
X152026379Y-86922924D01*
X152016893Y-86954148D01*
X152023277Y-86982395D01*
X152043430Y-87009182D01*
X152074745Y-87021713D01*
X152120183Y-87020696D01*
X152155326Y-87013906D01*
X152233419Y-87000971D01*
X152313226Y-86999742D01*
X152402555Y-87010241D01*
X152427229Y-87014690D01*
X152510291Y-87038108D01*
X152575273Y-87072945D01*
X152621461Y-87118604D01*
X152648145Y-87174494D01*
X152653663Y-87203388D01*
X152650051Y-87262012D01*
X152626729Y-87313879D01*
X152585824Y-87357978D01*
X152529459Y-87393299D01*
X152459760Y-87418829D01*
X152378852Y-87433559D01*
X152288860Y-87436478D01*
X152191910Y-87426575D01*
X152186436Y-87425641D01*
X152147875Y-87418459D01*
X152126494Y-87411521D01*
X152117227Y-87401227D01*
X152115006Y-87383976D01*
X152114956Y-87374841D01*
X152114956Y-87336489D01*
X152183431Y-87336489D01*
X152243900Y-87332347D01*
X152285165Y-87319147D01*
X152309175Y-87295730D01*
X152317877Y-87260936D01*
X152317983Y-87256394D01*
X152312892Y-87226654D01*
X152295433Y-87205419D01*
X152262939Y-87191366D01*
X152212743Y-87183173D01*
X152164123Y-87180161D01*
X152093456Y-87178433D01*
X152042198Y-87181070D01*
X152007239Y-87190800D01*
X151985470Y-87210353D01*
X151973780Y-87242456D01*
X151969060Y-87289838D01*
X151968200Y-87352071D01*
X151969609Y-87421535D01*
X151973848Y-87468786D01*
X151980936Y-87494012D01*
X151982311Y-87495988D01*
X152021228Y-87527508D01*
X152078286Y-87552470D01*
X152149869Y-87570340D01*
X152232358Y-87580586D01*
X152322139Y-87582673D01*
X152415592Y-87576068D01*
X152470556Y-87567956D01*
X152556766Y-87543554D01*
X152636892Y-87503662D01*
X152703977Y-87451887D01*
X152714173Y-87441539D01*
X152747302Y-87398035D01*
X152777194Y-87344118D01*
X152800357Y-87287592D01*
X152813298Y-87236259D01*
X152814858Y-87216544D01*
X152808218Y-87175419D01*
X152790568Y-87124252D01*
X152765297Y-87070394D01*
X152735789Y-87021195D01*
X152709719Y-86988334D01*
X152648765Y-86939452D01*
X152569969Y-86900545D01*
X152476157Y-86872494D01*
X152370150Y-86856179D01*
X152273000Y-86852192D01*
X152191081Y-86856599D01*
G36*
X151541114Y-86855448D02*
X151517548Y-86869273D01*
X151486735Y-86891881D01*
X151447078Y-86924338D01*
X151396980Y-86967708D01*
X151334843Y-87023058D01*
X151259072Y-87091451D01*
X151172334Y-87170084D01*
X150991711Y-87333878D01*
X150986067Y-87114029D01*
X150984029Y-87038351D01*
X150982063Y-86981994D01*
X150979734Y-86941706D01*
X150976606Y-86914235D01*
X150972245Y-86896329D01*
X150966216Y-86884737D01*
X150958084Y-86876208D01*
X150953772Y-86872623D01*
X150919241Y-86853670D01*
X150886383Y-86856441D01*
X150860318Y-86872633D01*
X150833667Y-86894199D01*
X150830352Y-87209151D01*
X150829435Y-87301779D01*
X150828968Y-87374544D01*
X150829113Y-87430161D01*
X150830032Y-87471342D01*
X150831887Y-87500803D01*
X150834839Y-87521255D01*
X150839050Y-87535413D01*
X150844682Y-87545991D01*
X150850927Y-87554474D01*
X150864439Y-87570207D01*
X150877883Y-87580636D01*
X150893124Y-87584639D01*
X150912026Y-87581094D01*
X150936455Y-87568879D01*
X150968273Y-87546871D01*
X151009348Y-87513949D01*
X151061542Y-87468991D01*
X151126722Y-87410875D01*
X151200556Y-87344099D01*
X151465845Y-87103458D01*
X151471489Y-87322589D01*
X151473531Y-87398128D01*
X151475502Y-87454354D01*
X151477839Y-87494524D01*
X151480981Y-87521896D01*
X151485364Y-87539728D01*
X151491424Y-87551279D01*
X151499600Y-87559807D01*
X151503784Y-87563282D01*
X151540765Y-87582372D01*
X151575708Y-87579493D01*
X151606136Y-87555100D01*
X151613097Y-87545286D01*
X151618523Y-87533826D01*
X151622603Y-87517968D01*
X151625529Y-87494963D01*
X151627492Y-87462062D01*
X151628683Y-87416516D01*
X151629292Y-87355573D01*
X151629511Y-87276486D01*
X151629534Y-87217956D01*
X151629460Y-87126407D01*
X151629113Y-87054687D01*
X151628301Y-87000045D01*
X151626833Y-86959732D01*
X151624519Y-86930998D01*
X151621167Y-86911093D01*
X151616588Y-86897268D01*
X151610589Y-86886772D01*
X151606136Y-86880811D01*
X151594850Y-86866691D01*
X151584301Y-86856029D01*
X151572893Y-86849892D01*
X151559030Y-86849343D01*
X151541114Y-86855448D01*
X151541114Y-86855448D01*
G37*
X151541114Y-86855448D02*
X151517548Y-86869273D01*
X151486735Y-86891881D01*
X151447078Y-86924338D01*
X151396980Y-86967708D01*
X151334843Y-87023058D01*
X151259072Y-87091451D01*
X151172334Y-87170084D01*
X150991711Y-87333878D01*
X150986067Y-87114029D01*
X150984029Y-87038351D01*
X150982063Y-86981994D01*
X150979734Y-86941706D01*
X150976606Y-86914235D01*
X150972245Y-86896329D01*
X150966216Y-86884737D01*
X150958084Y-86876208D01*
X150953772Y-86872623D01*
X150919241Y-86853670D01*
X150886383Y-86856441D01*
X150860318Y-86872633D01*
X150833667Y-86894199D01*
X150830352Y-87209151D01*
X150829435Y-87301779D01*
X150828968Y-87374544D01*
X150829113Y-87430161D01*
X150830032Y-87471342D01*
X150831887Y-87500803D01*
X150834839Y-87521255D01*
X150839050Y-87535413D01*
X150844682Y-87545991D01*
X150850927Y-87554474D01*
X150864439Y-87570207D01*
X150877883Y-87580636D01*
X150893124Y-87584639D01*
X150912026Y-87581094D01*
X150936455Y-87568879D01*
X150968273Y-87546871D01*
X151009348Y-87513949D01*
X151061542Y-87468991D01*
X151126722Y-87410875D01*
X151200556Y-87344099D01*
X151465845Y-87103458D01*
X151471489Y-87322589D01*
X151473531Y-87398128D01*
X151475502Y-87454354D01*
X151477839Y-87494524D01*
X151480981Y-87521896D01*
X151485364Y-87539728D01*
X151491424Y-87551279D01*
X151499600Y-87559807D01*
X151503784Y-87563282D01*
X151540765Y-87582372D01*
X151575708Y-87579493D01*
X151606136Y-87555100D01*
X151613097Y-87545286D01*
X151618523Y-87533826D01*
X151622603Y-87517968D01*
X151625529Y-87494963D01*
X151627492Y-87462062D01*
X151628683Y-87416516D01*
X151629292Y-87355573D01*
X151629511Y-87276486D01*
X151629534Y-87217956D01*
X151629460Y-87126407D01*
X151629113Y-87054687D01*
X151628301Y-87000045D01*
X151626833Y-86959732D01*
X151624519Y-86930998D01*
X151621167Y-86911093D01*
X151616588Y-86897268D01*
X151610589Y-86886772D01*
X151606136Y-86880811D01*
X151594850Y-86866691D01*
X151584301Y-86856029D01*
X151572893Y-86849892D01*
X151559030Y-86849343D01*
X151541114Y-86855448D01*
G36*
X150010657Y-86851260D02*
X149934299Y-86852174D01*
X149875783Y-86854311D01*
X149832745Y-86858175D01*
X149802817Y-86864267D01*
X149783632Y-86873090D01*
X149772824Y-86885146D01*
X149768027Y-86900939D01*
X149766873Y-86920970D01*
X149766867Y-86923335D01*
X149767869Y-86945992D01*
X149772604Y-86963503D01*
X149783667Y-86976574D01*
X149803652Y-86985913D01*
X149835154Y-86992227D01*
X149880768Y-86996222D01*
X149943087Y-86998606D01*
X150024707Y-87000086D01*
X150049723Y-87000414D01*
X150291800Y-87003467D01*
X150295186Y-87068378D01*
X150298571Y-87133289D01*
X150130424Y-87133289D01*
X150064734Y-87133531D01*
X150017828Y-87134556D01*
X149985917Y-87136811D01*
X149965209Y-87140742D01*
X149951916Y-87146798D01*
X149942245Y-87155424D01*
X149942183Y-87155493D01*
X149924644Y-87189112D01*
X149925278Y-87225448D01*
X149943686Y-87256423D01*
X149947329Y-87259607D01*
X149960259Y-87267812D01*
X149977976Y-87273521D01*
X150004430Y-87277162D01*
X150043568Y-87279167D01*
X150099338Y-87279964D01*
X150135006Y-87280045D01*
X150297445Y-87280045D01*
X150297445Y-87438089D01*
X150050839Y-87438089D01*
X149969420Y-87438231D01*
X149907590Y-87438814D01*
X149862363Y-87440068D01*
X149830752Y-87442227D01*
X149809769Y-87445523D01*
X149796427Y-87450189D01*
X149787739Y-87456457D01*
X149785550Y-87458733D01*
X149769386Y-87490280D01*
X149768203Y-87526168D01*
X149781464Y-87557285D01*
X149791957Y-87567271D01*
X149802871Y-87572769D01*
X149819783Y-87577022D01*
X149845367Y-87580180D01*
X149882299Y-87582392D01*
X149933254Y-87583806D01*
X150000906Y-87584572D01*
X150087931Y-87584838D01*
X150107606Y-87584845D01*
X150196089Y-87584787D01*
X150264773Y-87584467D01*
X150316436Y-87583667D01*
X150353855Y-87582167D01*
X150379810Y-87579749D01*
X150397078Y-87576194D01*
X150408438Y-87571282D01*
X150416668Y-87564795D01*
X150421183Y-87560138D01*
X150427979Y-87551889D01*
X150433288Y-87541669D01*
X150437294Y-87526800D01*
X150440179Y-87504602D01*
X150442126Y-87472393D01*
X150443319Y-87427496D01*
X150443939Y-87367228D01*
X150444171Y-87288911D01*
X150444200Y-87222994D01*
X150444129Y-87130628D01*
X150443792Y-87058117D01*
X150443002Y-87002737D01*
X150441574Y-86961765D01*
X150439321Y-86932478D01*
X150436057Y-86912153D01*
X150431596Y-86898066D01*
X150425752Y-86887495D01*
X150420803Y-86880811D01*
X150397406Y-86851067D01*
X150107226Y-86851067D01*
X150010657Y-86851260D01*
X150010657Y-86851260D01*
G37*
X150010657Y-86851260D02*
X149934299Y-86852174D01*
X149875783Y-86854311D01*
X149832745Y-86858175D01*
X149802817Y-86864267D01*
X149783632Y-86873090D01*
X149772824Y-86885146D01*
X149768027Y-86900939D01*
X149766873Y-86920970D01*
X149766867Y-86923335D01*
X149767869Y-86945992D01*
X149772604Y-86963503D01*
X149783667Y-86976574D01*
X149803652Y-86985913D01*
X149835154Y-86992227D01*
X149880768Y-86996222D01*
X149943087Y-86998606D01*
X150024707Y-87000086D01*
X150049723Y-87000414D01*
X150291800Y-87003467D01*
X150295186Y-87068378D01*
X150298571Y-87133289D01*
X150130424Y-87133289D01*
X150064734Y-87133531D01*
X150017828Y-87134556D01*
X149985917Y-87136811D01*
X149965209Y-87140742D01*
X149951916Y-87146798D01*
X149942245Y-87155424D01*
X149942183Y-87155493D01*
X149924644Y-87189112D01*
X149925278Y-87225448D01*
X149943686Y-87256423D01*
X149947329Y-87259607D01*
X149960259Y-87267812D01*
X149977976Y-87273521D01*
X150004430Y-87277162D01*
X150043568Y-87279167D01*
X150099338Y-87279964D01*
X150135006Y-87280045D01*
X150297445Y-87280045D01*
X150297445Y-87438089D01*
X150050839Y-87438089D01*
X149969420Y-87438231D01*
X149907590Y-87438814D01*
X149862363Y-87440068D01*
X149830752Y-87442227D01*
X149809769Y-87445523D01*
X149796427Y-87450189D01*
X149787739Y-87456457D01*
X149785550Y-87458733D01*
X149769386Y-87490280D01*
X149768203Y-87526168D01*
X149781464Y-87557285D01*
X149791957Y-87567271D01*
X149802871Y-87572769D01*
X149819783Y-87577022D01*
X149845367Y-87580180D01*
X149882299Y-87582392D01*
X149933254Y-87583806D01*
X150000906Y-87584572D01*
X150087931Y-87584838D01*
X150107606Y-87584845D01*
X150196089Y-87584787D01*
X150264773Y-87584467D01*
X150316436Y-87583667D01*
X150353855Y-87582167D01*
X150379810Y-87579749D01*
X150397078Y-87576194D01*
X150408438Y-87571282D01*
X150416668Y-87564795D01*
X150421183Y-87560138D01*
X150427979Y-87551889D01*
X150433288Y-87541669D01*
X150437294Y-87526800D01*
X150440179Y-87504602D01*
X150442126Y-87472393D01*
X150443319Y-87427496D01*
X150443939Y-87367228D01*
X150444171Y-87288911D01*
X150444200Y-87222994D01*
X150444129Y-87130628D01*
X150443792Y-87058117D01*
X150443002Y-87002737D01*
X150441574Y-86961765D01*
X150439321Y-86932478D01*
X150436057Y-86912153D01*
X150431596Y-86898066D01*
X150425752Y-86887495D01*
X150420803Y-86880811D01*
X150397406Y-86851067D01*
X150107226Y-86851067D01*
X150010657Y-86851260D01*
G36*
X149222691Y-86851275D02*
X149093712Y-86855636D01*
X148984009Y-86868861D01*
X148891774Y-86891741D01*
X148815198Y-86925070D01*
X148752473Y-86969638D01*
X148701788Y-87026236D01*
X148661337Y-87095658D01*
X148660541Y-87097351D01*
X148636399Y-87159483D01*
X148627797Y-87214509D01*
X148634769Y-87269887D01*
X148657346Y-87333073D01*
X148661628Y-87342689D01*
X148690828Y-87398966D01*
X148723644Y-87442451D01*
X148765998Y-87479417D01*
X148823810Y-87516135D01*
X148827169Y-87518052D01*
X148877496Y-87542227D01*
X148934379Y-87560282D01*
X149001473Y-87572839D01*
X149082435Y-87580522D01*
X149180918Y-87583953D01*
X149215714Y-87584251D01*
X149381406Y-87584845D01*
X149404803Y-87555100D01*
X149411743Y-87545319D01*
X149417158Y-87533897D01*
X149421235Y-87518095D01*
X149424163Y-87495175D01*
X149426133Y-87462396D01*
X149426775Y-87438089D01*
X149270156Y-87438089D01*
X149176274Y-87438089D01*
X149121336Y-87436483D01*
X149064940Y-87432255D01*
X149018655Y-87426292D01*
X149015861Y-87425790D01*
X148933652Y-87403736D01*
X148869886Y-87370600D01*
X148822548Y-87324847D01*
X148789618Y-87264939D01*
X148783892Y-87249061D01*
X148778279Y-87224333D01*
X148780709Y-87199902D01*
X148792533Y-87167400D01*
X148799660Y-87151434D01*
X148823000Y-87109006D01*
X148851120Y-87079240D01*
X148882060Y-87058511D01*
X148944034Y-87031537D01*
X149023349Y-87011998D01*
X149115747Y-87000746D01*
X149182667Y-86998270D01*
X149270156Y-86997822D01*
X149270156Y-87438089D01*
X149426775Y-87438089D01*
X149427332Y-87417021D01*
X149427950Y-87356311D01*
X149428175Y-87277526D01*
X149428200Y-87215920D01*
X149428200Y-86906485D01*
X149400491Y-86878776D01*
X149388194Y-86867544D01*
X149374897Y-86859853D01*
X149356328Y-86855040D01*
X149328214Y-86852446D01*
X149286283Y-86851410D01*
X149226263Y-86851270D01*
X149222691Y-86851275D01*
X149222691Y-86851275D01*
G37*
X149222691Y-86851275D02*
X149093712Y-86855636D01*
X148984009Y-86868861D01*
X148891774Y-86891741D01*
X148815198Y-86925070D01*
X148752473Y-86969638D01*
X148701788Y-87026236D01*
X148661337Y-87095658D01*
X148660541Y-87097351D01*
X148636399Y-87159483D01*
X148627797Y-87214509D01*
X148634769Y-87269887D01*
X148657346Y-87333073D01*
X148661628Y-87342689D01*
X148690828Y-87398966D01*
X148723644Y-87442451D01*
X148765998Y-87479417D01*
X148823810Y-87516135D01*
X148827169Y-87518052D01*
X148877496Y-87542227D01*
X148934379Y-87560282D01*
X149001473Y-87572839D01*
X149082435Y-87580522D01*
X149180918Y-87583953D01*
X149215714Y-87584251D01*
X149381406Y-87584845D01*
X149404803Y-87555100D01*
X149411743Y-87545319D01*
X149417158Y-87533897D01*
X149421235Y-87518095D01*
X149424163Y-87495175D01*
X149426133Y-87462396D01*
X149426775Y-87438089D01*
X149270156Y-87438089D01*
X149176274Y-87438089D01*
X149121336Y-87436483D01*
X149064940Y-87432255D01*
X149018655Y-87426292D01*
X149015861Y-87425790D01*
X148933652Y-87403736D01*
X148869886Y-87370600D01*
X148822548Y-87324847D01*
X148789618Y-87264939D01*
X148783892Y-87249061D01*
X148778279Y-87224333D01*
X148780709Y-87199902D01*
X148792533Y-87167400D01*
X148799660Y-87151434D01*
X148823000Y-87109006D01*
X148851120Y-87079240D01*
X148882060Y-87058511D01*
X148944034Y-87031537D01*
X149023349Y-87011998D01*
X149115747Y-87000746D01*
X149182667Y-86998270D01*
X149270156Y-86997822D01*
X149270156Y-87438089D01*
X149426775Y-87438089D01*
X149427332Y-87417021D01*
X149427950Y-87356311D01*
X149428175Y-87277526D01*
X149428200Y-87215920D01*
X149428200Y-86906485D01*
X149400491Y-86878776D01*
X149388194Y-86867544D01*
X149374897Y-86859853D01*
X149356328Y-86855040D01*
X149328214Y-86852446D01*
X149286283Y-86851410D01*
X149226263Y-86851270D01*
X149222691Y-86851275D01*
G36*
X146496335Y-86853034D02*
X146476745Y-86860035D01*
X146475990Y-86860377D01*
X146449387Y-86880678D01*
X146434730Y-86901561D01*
X146431862Y-86911352D01*
X146432004Y-86924361D01*
X146436039Y-86942895D01*
X146444854Y-86969257D01*
X146459331Y-87005752D01*
X146480355Y-87054687D01*
X146508812Y-87118365D01*
X146545585Y-87199093D01*
X146565825Y-87243216D01*
X146602375Y-87321985D01*
X146636685Y-87394423D01*
X146667448Y-87457880D01*
X146693352Y-87509708D01*
X146713090Y-87547259D01*
X146725350Y-87567884D01*
X146727776Y-87570733D01*
X146758817Y-87583302D01*
X146793879Y-87581619D01*
X146822000Y-87566332D01*
X146823146Y-87565089D01*
X146834332Y-87548154D01*
X146853096Y-87515170D01*
X146877125Y-87470380D01*
X146904103Y-87418032D01*
X146913799Y-87398742D01*
X146986986Y-87252150D01*
X147066760Y-87411393D01*
X147095233Y-87466415D01*
X147121650Y-87514132D01*
X147143852Y-87550893D01*
X147159681Y-87573044D01*
X147165046Y-87577741D01*
X147206743Y-87584102D01*
X147241151Y-87570733D01*
X147251272Y-87556446D01*
X147268786Y-87524692D01*
X147292265Y-87478597D01*
X147320280Y-87421285D01*
X147351401Y-87355880D01*
X147384201Y-87285507D01*
X147417250Y-87213291D01*
X147449119Y-87142355D01*
X147478381Y-87075825D01*
X147503605Y-87016826D01*
X147523364Y-86968481D01*
X147536228Y-86933915D01*
X147540769Y-86916253D01*
X147540723Y-86915613D01*
X147529674Y-86893388D01*
X147507590Y-86870753D01*
X147506290Y-86869768D01*
X147479147Y-86854425D01*
X147454042Y-86854574D01*
X147444632Y-86857466D01*
X147433166Y-86863718D01*
X147420990Y-86876014D01*
X147406643Y-86896908D01*
X147388664Y-86928949D01*
X147365593Y-86974688D01*
X147335970Y-87036677D01*
X147309255Y-87093898D01*
X147278520Y-87160226D01*
X147250979Y-87219874D01*
X147228062Y-87269725D01*
X147211202Y-87306664D01*
X147201827Y-87327573D01*
X147200460Y-87330845D01*
X147194311Y-87325497D01*
X147180178Y-87303109D01*
X147159943Y-87266946D01*
X147135485Y-87220277D01*
X147125752Y-87201022D01*
X147092783Y-87136004D01*
X147067357Y-87088654D01*
X147047388Y-87056219D01*
X147030790Y-87035946D01*
X147015476Y-87025082D01*
X146999360Y-87020875D01*
X146988857Y-87020400D01*
X146970330Y-87022042D01*
X146954096Y-87028831D01*
X146937965Y-87043566D01*
X146919749Y-87069044D01*
X146897261Y-87108061D01*
X146868311Y-87163414D01*
X146852338Y-87194903D01*
X146826430Y-87245087D01*
X146803833Y-87286704D01*
X146786542Y-87316242D01*
X146776550Y-87330189D01*
X146775191Y-87330770D01*
X146768739Y-87319793D01*
X146754292Y-87291290D01*
X146733297Y-87248244D01*
X146707203Y-87193638D01*
X146677454Y-87130454D01*
X146662820Y-87099071D01*
X146624750Y-87018078D01*
X146594095Y-86955756D01*
X146569263Y-86910071D01*
X146548663Y-86878989D01*
X146530702Y-86860478D01*
X146513790Y-86852504D01*
X146496335Y-86853034D01*
X146496335Y-86853034D01*
G37*
X146496335Y-86853034D02*
X146476745Y-86860035D01*
X146475990Y-86860377D01*
X146449387Y-86880678D01*
X146434730Y-86901561D01*
X146431862Y-86911352D01*
X146432004Y-86924361D01*
X146436039Y-86942895D01*
X146444854Y-86969257D01*
X146459331Y-87005752D01*
X146480355Y-87054687D01*
X146508812Y-87118365D01*
X146545585Y-87199093D01*
X146565825Y-87243216D01*
X146602375Y-87321985D01*
X146636685Y-87394423D01*
X146667448Y-87457880D01*
X146693352Y-87509708D01*
X146713090Y-87547259D01*
X146725350Y-87567884D01*
X146727776Y-87570733D01*
X146758817Y-87583302D01*
X146793879Y-87581619D01*
X146822000Y-87566332D01*
X146823146Y-87565089D01*
X146834332Y-87548154D01*
X146853096Y-87515170D01*
X146877125Y-87470380D01*
X146904103Y-87418032D01*
X146913799Y-87398742D01*
X146986986Y-87252150D01*
X147066760Y-87411393D01*
X147095233Y-87466415D01*
X147121650Y-87514132D01*
X147143852Y-87550893D01*
X147159681Y-87573044D01*
X147165046Y-87577741D01*
X147206743Y-87584102D01*
X147241151Y-87570733D01*
X147251272Y-87556446D01*
X147268786Y-87524692D01*
X147292265Y-87478597D01*
X147320280Y-87421285D01*
X147351401Y-87355880D01*
X147384201Y-87285507D01*
X147417250Y-87213291D01*
X147449119Y-87142355D01*
X147478381Y-87075825D01*
X147503605Y-87016826D01*
X147523364Y-86968481D01*
X147536228Y-86933915D01*
X147540769Y-86916253D01*
X147540723Y-86915613D01*
X147529674Y-86893388D01*
X147507590Y-86870753D01*
X147506290Y-86869768D01*
X147479147Y-86854425D01*
X147454042Y-86854574D01*
X147444632Y-86857466D01*
X147433166Y-86863718D01*
X147420990Y-86876014D01*
X147406643Y-86896908D01*
X147388664Y-86928949D01*
X147365593Y-86974688D01*
X147335970Y-87036677D01*
X147309255Y-87093898D01*
X147278520Y-87160226D01*
X147250979Y-87219874D01*
X147228062Y-87269725D01*
X147211202Y-87306664D01*
X147201827Y-87327573D01*
X147200460Y-87330845D01*
X147194311Y-87325497D01*
X147180178Y-87303109D01*
X147159943Y-87266946D01*
X147135485Y-87220277D01*
X147125752Y-87201022D01*
X147092783Y-87136004D01*
X147067357Y-87088654D01*
X147047388Y-87056219D01*
X147030790Y-87035946D01*
X147015476Y-87025082D01*
X146999360Y-87020875D01*
X146988857Y-87020400D01*
X146970330Y-87022042D01*
X146954096Y-87028831D01*
X146937965Y-87043566D01*
X146919749Y-87069044D01*
X146897261Y-87108061D01*
X146868311Y-87163414D01*
X146852338Y-87194903D01*
X146826430Y-87245087D01*
X146803833Y-87286704D01*
X146786542Y-87316242D01*
X146776550Y-87330189D01*
X146775191Y-87330770D01*
X146768739Y-87319793D01*
X146754292Y-87291290D01*
X146733297Y-87248244D01*
X146707203Y-87193638D01*
X146677454Y-87130454D01*
X146662820Y-87099071D01*
X146624750Y-87018078D01*
X146594095Y-86955756D01*
X146569263Y-86910071D01*
X146548663Y-86878989D01*
X146530702Y-86860478D01*
X146513790Y-86852504D01*
X146496335Y-86853034D01*
G36*
X146052386Y-86857877D02*
X146028673Y-86872647D01*
X146002022Y-86894227D01*
X146002022Y-87215773D01*
X146002107Y-87309830D01*
X146002471Y-87383932D01*
X146003276Y-87440704D01*
X146004687Y-87482768D01*
X146006867Y-87512748D01*
X146009979Y-87533267D01*
X146014186Y-87546949D01*
X146019652Y-87556416D01*
X146023528Y-87561082D01*
X146054966Y-87581575D01*
X146090767Y-87580739D01*
X146122127Y-87563264D01*
X146148778Y-87541684D01*
X146148778Y-86894227D01*
X146122127Y-86872647D01*
X146096406Y-86856949D01*
X146075400Y-86851067D01*
X146052386Y-86857877D01*
X146052386Y-86857877D01*
G37*
X146052386Y-86857877D02*
X146028673Y-86872647D01*
X146002022Y-86894227D01*
X146002022Y-87215773D01*
X146002107Y-87309830D01*
X146002471Y-87383932D01*
X146003276Y-87440704D01*
X146004687Y-87482768D01*
X146006867Y-87512748D01*
X146009979Y-87533267D01*
X146014186Y-87546949D01*
X146019652Y-87556416D01*
X146023528Y-87561082D01*
X146054966Y-87581575D01*
X146090767Y-87580739D01*
X146122127Y-87563264D01*
X146148778Y-87541684D01*
X146148778Y-86894227D01*
X146122127Y-86872647D01*
X146096406Y-86856949D01*
X146075400Y-86851067D01*
X146052386Y-86857877D01*
G36*
X145277935Y-86851163D02*
X145199228Y-86851542D01*
X145138137Y-86852333D01*
X145092183Y-86853670D01*
X145058886Y-86855683D01*
X145035764Y-86858506D01*
X145020338Y-86862269D01*
X145010129Y-86867105D01*
X145005187Y-86870822D01*
X144979543Y-86903358D01*
X144976441Y-86937138D01*
X144992289Y-86967826D01*
X145002652Y-86980089D01*
X145013804Y-86988450D01*
X145029965Y-86993657D01*
X145055358Y-86996457D01*
X145094202Y-86997596D01*
X145150720Y-86997821D01*
X145161820Y-86997822D01*
X145307756Y-86997822D01*
X145307756Y-87268756D01*
X145307852Y-87354154D01*
X145308289Y-87419864D01*
X145309288Y-87468774D01*
X145311072Y-87503773D01*
X145313863Y-87527749D01*
X145317883Y-87543593D01*
X145323355Y-87554191D01*
X145330334Y-87562267D01*
X145363266Y-87582112D01*
X145397646Y-87580548D01*
X145428824Y-87557906D01*
X145431114Y-87555100D01*
X145438571Y-87544492D01*
X145444253Y-87532081D01*
X145448399Y-87514850D01*
X145451250Y-87489784D01*
X145453046Y-87453867D01*
X145454028Y-87404083D01*
X145454436Y-87337417D01*
X145454511Y-87261589D01*
X145454511Y-86997822D01*
X145593873Y-86997822D01*
X145653678Y-86997418D01*
X145695082Y-86995840D01*
X145722252Y-86992547D01*
X145739354Y-86986992D01*
X145750557Y-86978631D01*
X145751917Y-86977178D01*
X145768275Y-86943939D01*
X145766828Y-86906362D01*
X145748022Y-86873645D01*
X145740750Y-86867298D01*
X145731373Y-86862266D01*
X145717391Y-86858396D01*
X145696304Y-86855537D01*
X145665611Y-86853535D01*
X145622811Y-86852239D01*
X145565405Y-86851498D01*
X145490890Y-86851158D01*
X145396767Y-86851068D01*
X145376740Y-86851067D01*
X145277935Y-86851163D01*
X145277935Y-86851163D01*
G37*
X145277935Y-86851163D02*
X145199228Y-86851542D01*
X145138137Y-86852333D01*
X145092183Y-86853670D01*
X145058886Y-86855683D01*
X145035764Y-86858506D01*
X145020338Y-86862269D01*
X145010129Y-86867105D01*
X145005187Y-86870822D01*
X144979543Y-86903358D01*
X144976441Y-86937138D01*
X144992289Y-86967826D01*
X145002652Y-86980089D01*
X145013804Y-86988450D01*
X145029965Y-86993657D01*
X145055358Y-86996457D01*
X145094202Y-86997596D01*
X145150720Y-86997821D01*
X145161820Y-86997822D01*
X145307756Y-86997822D01*
X145307756Y-87268756D01*
X145307852Y-87354154D01*
X145308289Y-87419864D01*
X145309288Y-87468774D01*
X145311072Y-87503773D01*
X145313863Y-87527749D01*
X145317883Y-87543593D01*
X145323355Y-87554191D01*
X145330334Y-87562267D01*
X145363266Y-87582112D01*
X145397646Y-87580548D01*
X145428824Y-87557906D01*
X145431114Y-87555100D01*
X145438571Y-87544492D01*
X145444253Y-87532081D01*
X145448399Y-87514850D01*
X145451250Y-87489784D01*
X145453046Y-87453867D01*
X145454028Y-87404083D01*
X145454436Y-87337417D01*
X145454511Y-87261589D01*
X145454511Y-86997822D01*
X145593873Y-86997822D01*
X145653678Y-86997418D01*
X145695082Y-86995840D01*
X145722252Y-86992547D01*
X145739354Y-86986992D01*
X145750557Y-86978631D01*
X145751917Y-86977178D01*
X145768275Y-86943939D01*
X145766828Y-86906362D01*
X145748022Y-86873645D01*
X145740750Y-86867298D01*
X145731373Y-86862266D01*
X145717391Y-86858396D01*
X145696304Y-86855537D01*
X145665611Y-86853535D01*
X145622811Y-86852239D01*
X145565405Y-86851498D01*
X145490890Y-86851158D01*
X145396767Y-86851068D01*
X145376740Y-86851067D01*
X145277935Y-86851163D01*
G36*
X144012177Y-86856533D02*
X143980798Y-86878776D01*
X143953089Y-86906485D01*
X143953089Y-87215920D01*
X143953162Y-87307799D01*
X143953505Y-87379840D01*
X143954308Y-87434780D01*
X143955759Y-87475360D01*
X143958048Y-87504317D01*
X143961364Y-87524391D01*
X143965895Y-87538321D01*
X143971831Y-87548845D01*
X143976486Y-87555100D01*
X144007217Y-87579673D01*
X144042504Y-87582341D01*
X144074755Y-87567271D01*
X144085412Y-87558374D01*
X144092536Y-87546557D01*
X144096833Y-87527526D01*
X144099009Y-87496992D01*
X144099772Y-87450662D01*
X144099845Y-87414871D01*
X144099845Y-87280045D01*
X144596556Y-87280045D01*
X144596556Y-87402700D01*
X144597069Y-87458787D01*
X144599124Y-87497333D01*
X144603492Y-87523361D01*
X144610944Y-87541897D01*
X144619953Y-87555100D01*
X144650856Y-87579604D01*
X144685804Y-87582506D01*
X144719262Y-87565089D01*
X144728396Y-87555959D01*
X144734848Y-87543855D01*
X144739103Y-87525001D01*
X144741648Y-87495620D01*
X144742971Y-87451937D01*
X144743557Y-87390175D01*
X144743625Y-87376000D01*
X144744109Y-87259631D01*
X144744359Y-87163727D01*
X144744277Y-87086177D01*
X144743769Y-87024869D01*
X144742738Y-86977690D01*
X144741087Y-86942530D01*
X144738721Y-86917276D01*
X144735543Y-86899817D01*
X144731456Y-86888041D01*
X144726366Y-86879835D01*
X144720734Y-86873645D01*
X144688872Y-86853844D01*
X144655643Y-86856533D01*
X144624265Y-86878776D01*
X144611567Y-86893126D01*
X144603474Y-86908978D01*
X144598958Y-86931554D01*
X144596994Y-86966078D01*
X144596556Y-87017776D01*
X144596556Y-87133289D01*
X144099845Y-87133289D01*
X144099845Y-87014756D01*
X144099338Y-86960148D01*
X144097302Y-86923275D01*
X144092965Y-86899307D01*
X144085553Y-86883415D01*
X144077267Y-86873645D01*
X144045406Y-86853844D01*
X144012177Y-86856533D01*
X144012177Y-86856533D01*
G37*
X144012177Y-86856533D02*
X143980798Y-86878776D01*
X143953089Y-86906485D01*
X143953089Y-87215920D01*
X143953162Y-87307799D01*
X143953505Y-87379840D01*
X143954308Y-87434780D01*
X143955759Y-87475360D01*
X143958048Y-87504317D01*
X143961364Y-87524391D01*
X143965895Y-87538321D01*
X143971831Y-87548845D01*
X143976486Y-87555100D01*
X144007217Y-87579673D01*
X144042504Y-87582341D01*
X144074755Y-87567271D01*
X144085412Y-87558374D01*
X144092536Y-87546557D01*
X144096833Y-87527526D01*
X144099009Y-87496992D01*
X144099772Y-87450662D01*
X144099845Y-87414871D01*
X144099845Y-87280045D01*
X144596556Y-87280045D01*
X144596556Y-87402700D01*
X144597069Y-87458787D01*
X144599124Y-87497333D01*
X144603492Y-87523361D01*
X144610944Y-87541897D01*
X144619953Y-87555100D01*
X144650856Y-87579604D01*
X144685804Y-87582506D01*
X144719262Y-87565089D01*
X144728396Y-87555959D01*
X144734848Y-87543855D01*
X144739103Y-87525001D01*
X144741648Y-87495620D01*
X144742971Y-87451937D01*
X144743557Y-87390175D01*
X144743625Y-87376000D01*
X144744109Y-87259631D01*
X144744359Y-87163727D01*
X144744277Y-87086177D01*
X144743769Y-87024869D01*
X144742738Y-86977690D01*
X144741087Y-86942530D01*
X144738721Y-86917276D01*
X144735543Y-86899817D01*
X144731456Y-86888041D01*
X144726366Y-86879835D01*
X144720734Y-86873645D01*
X144688872Y-86853844D01*
X144655643Y-86856533D01*
X144624265Y-86878776D01*
X144611567Y-86893126D01*
X144603474Y-86908978D01*
X144598958Y-86931554D01*
X144596994Y-86966078D01*
X144596556Y-87017776D01*
X144596556Y-87133289D01*
X144099845Y-87133289D01*
X144099845Y-87014756D01*
X144099338Y-86960148D01*
X144097302Y-86923275D01*
X144092965Y-86899307D01*
X144085553Y-86883415D01*
X144077267Y-86873645D01*
X144045406Y-86853844D01*
X144012177Y-86856533D01*
G36*
X153187400Y-82071054D02*
X153176535Y-82184993D01*
X153144918Y-82292616D01*
X153094015Y-82391615D01*
X153025293Y-82479684D01*
X152940219Y-82554516D01*
X152843232Y-82612384D01*
X152736964Y-82652005D01*
X152629950Y-82670573D01*
X152524300Y-82669434D01*
X152422125Y-82649930D01*
X152325534Y-82613406D01*
X152236638Y-82561205D01*
X152157546Y-82494673D01*
X152090369Y-82415152D01*
X152037217Y-82323987D01*
X152000199Y-82222523D01*
X151981427Y-82112102D01*
X151979489Y-82062206D01*
X151979489Y-81974267D01*
X151927560Y-81974267D01*
X151891253Y-81977111D01*
X151864355Y-81988911D01*
X151837249Y-82012649D01*
X151798867Y-82051031D01*
X151798867Y-84242602D01*
X151798876Y-84504739D01*
X151798908Y-84745241D01*
X151798972Y-84965048D01*
X151799076Y-85165101D01*
X151799227Y-85346344D01*
X151799434Y-85509716D01*
X151799706Y-85656160D01*
X151800050Y-85786617D01*
X151800474Y-85902029D01*
X151800987Y-86003338D01*
X151801597Y-86091484D01*
X151802312Y-86167410D01*
X151803140Y-86232057D01*
X151804089Y-86286367D01*
X151805167Y-86331280D01*
X151806383Y-86367740D01*
X151807745Y-86396687D01*
X151809261Y-86419063D01*
X151810938Y-86435809D01*
X151812786Y-86447868D01*
X151814813Y-86456180D01*
X151817025Y-86461687D01*
X151818108Y-86463537D01*
X151822271Y-86470549D01*
X151825805Y-86476996D01*
X151829635Y-86482900D01*
X151834682Y-86488286D01*
X151841871Y-86493178D01*
X151852123Y-86497598D01*
X151866364Y-86501572D01*
X151885514Y-86505121D01*
X151910499Y-86508270D01*
X151942240Y-86511042D01*
X151981662Y-86513461D01*
X152029686Y-86515551D01*
X152087237Y-86517335D01*
X152155237Y-86518837D01*
X152234610Y-86520080D01*
X152326279Y-86521089D01*
X152431166Y-86521885D01*
X152550196Y-86522494D01*
X152684290Y-86522939D01*
X152834373Y-86523243D01*
X153001367Y-86523430D01*
X153186196Y-86523524D01*
X153389783Y-86523548D01*
X153613050Y-86523525D01*
X153856922Y-86523480D01*
X154122321Y-86523437D01*
X154160704Y-86523432D01*
X154427682Y-86523389D01*
X154673002Y-86523318D01*
X154897583Y-86523213D01*
X155102345Y-86523066D01*
X155288206Y-86522869D01*
X155456088Y-86522616D01*
X155606908Y-86522300D01*
X155741587Y-86521913D01*
X155861044Y-86521447D01*
X155966199Y-86520897D01*
X156057971Y-86520253D01*
X156137279Y-86519511D01*
X156205043Y-86518661D01*
X156262182Y-86517697D01*
X156309617Y-86516611D01*
X156348266Y-86515397D01*
X156379049Y-86514047D01*
X156402885Y-86512555D01*
X156420694Y-86510911D01*
X156433395Y-86509111D01*
X156441908Y-86507145D01*
X156446266Y-86505477D01*
X156454728Y-86501906D01*
X156462497Y-86499270D01*
X156469602Y-86496634D01*
X156476073Y-86493062D01*
X156481939Y-86487621D01*
X156487229Y-86479375D01*
X156491974Y-86467390D01*
X156496202Y-86450731D01*
X156499943Y-86428463D01*
X156503227Y-86399652D01*
X156506083Y-86363363D01*
X156508540Y-86318661D01*
X156510629Y-86264611D01*
X156512378Y-86200279D01*
X156513817Y-86124730D01*
X156514976Y-86037030D01*
X156515883Y-85936243D01*
X156516569Y-85821434D01*
X156517063Y-85691670D01*
X156517395Y-85546015D01*
X156517593Y-85383535D01*
X156517687Y-85203295D01*
X156517708Y-85004360D01*
X156517685Y-84785796D01*
X156517646Y-84546668D01*
X156517622Y-84286040D01*
X156517622Y-84243889D01*
X156517636Y-83980992D01*
X156517661Y-83739732D01*
X156517671Y-83519165D01*
X156517642Y-83318352D01*
X156517548Y-83136349D01*
X156517362Y-82972216D01*
X156517059Y-82825011D01*
X156516614Y-82693792D01*
X156516034Y-82583867D01*
X156213197Y-82583867D01*
X156173407Y-82641711D01*
X156162236Y-82657479D01*
X156152166Y-82671441D01*
X156143138Y-82684784D01*
X156135097Y-82698693D01*
X156127986Y-82714356D01*
X156121747Y-82732958D01*
X156116325Y-82755686D01*
X156111662Y-82783727D01*
X156107701Y-82818267D01*
X156104385Y-82860492D01*
X156101659Y-82911589D01*
X156099464Y-82972744D01*
X156097745Y-83045144D01*
X156096444Y-83129975D01*
X156095505Y-83228422D01*
X156094870Y-83341674D01*
X156094484Y-83470916D01*
X156094288Y-83617334D01*
X156094227Y-83782116D01*
X156094243Y-83966447D01*
X156094280Y-84171513D01*
X156094289Y-84294133D01*
X156094265Y-84511082D01*
X156094231Y-84706642D01*
X156094243Y-84881999D01*
X156094358Y-85038341D01*
X156094630Y-85176857D01*
X156095118Y-85298734D01*
X156095876Y-85405160D01*
X156096962Y-85497322D01*
X156098431Y-85576409D01*
X156100340Y-85643608D01*
X156102744Y-85700107D01*
X156105701Y-85747093D01*
X156109266Y-85785755D01*
X156113495Y-85817280D01*
X156118446Y-85842855D01*
X156124173Y-85863670D01*
X156130733Y-85880911D01*
X156138183Y-85895765D01*
X156146579Y-85909422D01*
X156155976Y-85923069D01*
X156166432Y-85937893D01*
X156172523Y-85946783D01*
X156211296Y-86004400D01*
X155679732Y-86004400D01*
X155556483Y-86004365D01*
X155453987Y-86004215D01*
X155370420Y-86003878D01*
X155303956Y-86003286D01*
X155252771Y-86002367D01*
X155215041Y-86001051D01*
X155188940Y-85999269D01*
X155172644Y-85996951D01*
X155164328Y-85994026D01*
X155162168Y-85990424D01*
X155164339Y-85986075D01*
X155165535Y-85984645D01*
X155190685Y-85947573D01*
X155216583Y-85894772D01*
X155240192Y-85832770D01*
X155248461Y-85806357D01*
X155253078Y-85788416D01*
X155256979Y-85767355D01*
X155260248Y-85741089D01*
X155262966Y-85707532D01*
X155265215Y-85664599D01*
X155267077Y-85610204D01*
X155268636Y-85542262D01*
X155269972Y-85458688D01*
X155271169Y-85357395D01*
X155272308Y-85236300D01*
X155272685Y-85191600D01*
X155273702Y-85066449D01*
X155274460Y-84962082D01*
X155274903Y-84876707D01*
X155274970Y-84808533D01*
X155274605Y-84755765D01*
X155273748Y-84716614D01*
X155272341Y-84689285D01*
X155270325Y-84671986D01*
X155267643Y-84662926D01*
X155264236Y-84660312D01*
X155260044Y-84662351D01*
X155255571Y-84666667D01*
X155245216Y-84679602D01*
X155223158Y-84708676D01*
X155190957Y-84751759D01*
X155150174Y-84806718D01*
X155102370Y-84871423D01*
X155049105Y-84943742D01*
X154991940Y-85021544D01*
X154932437Y-85102698D01*
X154872155Y-85185072D01*
X154812655Y-85266536D01*
X154755498Y-85344957D01*
X154702245Y-85418204D01*
X154654457Y-85484147D01*
X154613693Y-85540654D01*
X154581516Y-85585593D01*
X154559485Y-85616834D01*
X154554917Y-85623466D01*
X154531996Y-85660369D01*
X154505188Y-85708359D01*
X154479789Y-85757897D01*
X154476568Y-85764577D01*
X154454890Y-85812772D01*
X154442304Y-85850334D01*
X154436574Y-85886160D01*
X154435456Y-85928200D01*
X154436090Y-86004400D01*
X153281651Y-86004400D01*
X153372815Y-85910669D01*
X153419612Y-85860775D01*
X153469899Y-85804295D01*
X153515944Y-85750026D01*
X153536369Y-85724673D01*
X153566807Y-85685128D01*
X153606862Y-85631916D01*
X153655361Y-85566667D01*
X153711135Y-85491011D01*
X153773011Y-85406577D01*
X153839819Y-85314994D01*
X153910387Y-85217892D01*
X153983545Y-85116901D01*
X154058121Y-85013650D01*
X154132944Y-84909768D01*
X154206843Y-84806885D01*
X154278646Y-84706631D01*
X154347184Y-84610636D01*
X154411284Y-84520527D01*
X154469775Y-84437936D01*
X154521486Y-84364492D01*
X154565247Y-84301824D01*
X154599885Y-84251561D01*
X154624230Y-84215334D01*
X154637111Y-84194771D01*
X154638869Y-84190668D01*
X154630910Y-84179342D01*
X154610115Y-84152162D01*
X154577847Y-84110829D01*
X154535470Y-84057044D01*
X154484347Y-83992506D01*
X154425841Y-83918918D01*
X154361314Y-83837978D01*
X154292131Y-83751388D01*
X154219653Y-83660848D01*
X154145246Y-83568060D01*
X154085517Y-83493702D01*
X153074511Y-83493702D01*
X153068602Y-83506659D01*
X153054272Y-83528908D01*
X153053225Y-83530391D01*
X153034438Y-83560544D01*
X153014791Y-83597375D01*
X153010892Y-83605511D01*
X153007356Y-83613940D01*
X153004230Y-83624059D01*
X153001486Y-83637260D01*
X152999092Y-83654938D01*
X152997019Y-83678484D01*
X152995235Y-83709293D01*
X152993712Y-83748757D01*
X152992419Y-83798269D01*
X152991326Y-83859223D01*
X152990403Y-83933011D01*
X152989619Y-84021028D01*
X152988945Y-84124665D01*
X152988350Y-84245316D01*
X152987805Y-84384374D01*
X152987279Y-84543232D01*
X152986745Y-84722089D01*
X152986206Y-84907207D01*
X152985772Y-85071145D01*
X152985509Y-85215303D01*
X152985484Y-85341079D01*
X152985765Y-85449871D01*
X152986419Y-85543077D01*
X152987514Y-85622097D01*
X152989118Y-85688328D01*
X152991297Y-85743170D01*
X152994119Y-85788021D01*
X152997651Y-85824278D01*
X153001961Y-85853341D01*
X153007117Y-85876609D01*
X153013185Y-85895479D01*
X153020233Y-85911351D01*
X153028329Y-85925622D01*
X153037540Y-85939691D01*
X153046040Y-85952158D01*
X153063176Y-85978452D01*
X153073322Y-85996037D01*
X153074511Y-85999257D01*
X153063604Y-86000334D01*
X153032411Y-86001335D01*
X152983223Y-86002235D01*
X152918333Y-86003010D01*
X152840030Y-86003637D01*
X152750607Y-86004091D01*
X152652356Y-86004349D01*
X152583445Y-86004400D01*
X152478452Y-86004180D01*
X152381610Y-86003548D01*
X152295107Y-86002549D01*
X152221132Y-86001227D01*
X152161874Y-85999626D01*
X152119520Y-85997791D01*
X152096260Y-85995765D01*
X152092378Y-85994493D01*
X152100076Y-85979591D01*
X152108074Y-85971560D01*
X152121246Y-85954434D01*
X152138485Y-85924183D01*
X152150407Y-85899622D01*
X152177045Y-85840711D01*
X152180120Y-84663845D01*
X152183195Y-83486978D01*
X152628853Y-83486978D01*
X152726670Y-83487142D01*
X152817064Y-83487611D01*
X152897630Y-83488347D01*
X152965962Y-83489316D01*
X153019656Y-83490480D01*
X153056305Y-83491803D01*
X153073504Y-83493249D01*
X153074511Y-83493702D01*
X154085517Y-83493702D01*
X154070270Y-83474722D01*
X153996090Y-83382537D01*
X153924069Y-83293204D01*
X153855569Y-83208424D01*
X153791955Y-83129898D01*
X153734588Y-83059326D01*
X153684833Y-82998409D01*
X153644052Y-82948847D01*
X153626888Y-82928178D01*
X153540596Y-82827516D01*
X153463997Y-82744259D01*
X153395183Y-82676438D01*
X153332248Y-82622089D01*
X153322867Y-82614722D01*
X153283356Y-82584117D01*
X154415116Y-82583867D01*
X154409827Y-82631844D01*
X154413130Y-82689188D01*
X154434661Y-82757463D01*
X154474635Y-82837212D01*
X154519943Y-82909495D01*
X154536161Y-82932140D01*
X154564214Y-82969696D01*
X154602430Y-83020021D01*
X154649137Y-83080973D01*
X154702661Y-83150411D01*
X154761331Y-83226194D01*
X154823475Y-83306180D01*
X154887421Y-83388228D01*
X154951495Y-83470196D01*
X155014027Y-83549943D01*
X155073343Y-83625327D01*
X155127771Y-83694207D01*
X155175639Y-83754442D01*
X155215275Y-83803889D01*
X155245006Y-83840408D01*
X155263161Y-83861858D01*
X155266220Y-83865156D01*
X155269079Y-83857149D01*
X155271293Y-83826855D01*
X155272857Y-83774556D01*
X155273767Y-83700531D01*
X155274020Y-83605063D01*
X155273613Y-83488434D01*
X155272704Y-83368445D01*
X155271382Y-83236333D01*
X155269857Y-83124594D01*
X155267881Y-83031025D01*
X155265206Y-82953419D01*
X155261582Y-82889574D01*
X155256761Y-82837283D01*
X155250494Y-82794344D01*
X155242532Y-82758551D01*
X155232627Y-82727700D01*
X155220531Y-82699586D01*
X155205993Y-82672005D01*
X155191311Y-82646966D01*
X155153314Y-82583867D01*
X156213197Y-82583867D01*
X156516034Y-82583867D01*
X156516001Y-82577617D01*
X156515195Y-82475544D01*
X156514170Y-82386633D01*
X156512900Y-82309941D01*
X156511360Y-82244527D01*
X156509524Y-82189449D01*
X156507367Y-82143765D01*
X156504863Y-82106534D01*
X156501987Y-82076813D01*
X156498713Y-82053662D01*
X156495015Y-82036139D01*
X156490869Y-82023301D01*
X156486247Y-82014208D01*
X156481126Y-82007918D01*
X156475478Y-82003488D01*
X156469279Y-81999978D01*
X156462504Y-81996445D01*
X156456508Y-81992876D01*
X156451275Y-81990300D01*
X156443099Y-81987972D01*
X156430886Y-81985878D01*
X156413541Y-81984007D01*
X156389969Y-81982347D01*
X156359077Y-81980884D01*
X156319768Y-81979608D01*
X156270950Y-81978504D01*
X156211527Y-81977561D01*
X156140404Y-81976767D01*
X156056488Y-81976109D01*
X155958683Y-81975575D01*
X155845894Y-81975153D01*
X155717029Y-81974829D01*
X155570991Y-81974592D01*
X155406686Y-81974430D01*
X155223020Y-81974330D01*
X155018897Y-81974280D01*
X154807753Y-81974267D01*
X153187400Y-81974267D01*
X153187400Y-82071054D01*
X153187400Y-82071054D01*
G37*
X153187400Y-82071054D02*
X153176535Y-82184993D01*
X153144918Y-82292616D01*
X153094015Y-82391615D01*
X153025293Y-82479684D01*
X152940219Y-82554516D01*
X152843232Y-82612384D01*
X152736964Y-82652005D01*
X152629950Y-82670573D01*
X152524300Y-82669434D01*
X152422125Y-82649930D01*
X152325534Y-82613406D01*
X152236638Y-82561205D01*
X152157546Y-82494673D01*
X152090369Y-82415152D01*
X152037217Y-82323987D01*
X152000199Y-82222523D01*
X151981427Y-82112102D01*
X151979489Y-82062206D01*
X151979489Y-81974267D01*
X151927560Y-81974267D01*
X151891253Y-81977111D01*
X151864355Y-81988911D01*
X151837249Y-82012649D01*
X151798867Y-82051031D01*
X151798867Y-84242602D01*
X151798876Y-84504739D01*
X151798908Y-84745241D01*
X151798972Y-84965048D01*
X151799076Y-85165101D01*
X151799227Y-85346344D01*
X151799434Y-85509716D01*
X151799706Y-85656160D01*
X151800050Y-85786617D01*
X151800474Y-85902029D01*
X151800987Y-86003338D01*
X151801597Y-86091484D01*
X151802312Y-86167410D01*
X151803140Y-86232057D01*
X151804089Y-86286367D01*
X151805167Y-86331280D01*
X151806383Y-86367740D01*
X151807745Y-86396687D01*
X151809261Y-86419063D01*
X151810938Y-86435809D01*
X151812786Y-86447868D01*
X151814813Y-86456180D01*
X151817025Y-86461687D01*
X151818108Y-86463537D01*
X151822271Y-86470549D01*
X151825805Y-86476996D01*
X151829635Y-86482900D01*
X151834682Y-86488286D01*
X151841871Y-86493178D01*
X151852123Y-86497598D01*
X151866364Y-86501572D01*
X151885514Y-86505121D01*
X151910499Y-86508270D01*
X151942240Y-86511042D01*
X151981662Y-86513461D01*
X152029686Y-86515551D01*
X152087237Y-86517335D01*
X152155237Y-86518837D01*
X152234610Y-86520080D01*
X152326279Y-86521089D01*
X152431166Y-86521885D01*
X152550196Y-86522494D01*
X152684290Y-86522939D01*
X152834373Y-86523243D01*
X153001367Y-86523430D01*
X153186196Y-86523524D01*
X153389783Y-86523548D01*
X153613050Y-86523525D01*
X153856922Y-86523480D01*
X154122321Y-86523437D01*
X154160704Y-86523432D01*
X154427682Y-86523389D01*
X154673002Y-86523318D01*
X154897583Y-86523213D01*
X155102345Y-86523066D01*
X155288206Y-86522869D01*
X155456088Y-86522616D01*
X155606908Y-86522300D01*
X155741587Y-86521913D01*
X155861044Y-86521447D01*
X155966199Y-86520897D01*
X156057971Y-86520253D01*
X156137279Y-86519511D01*
X156205043Y-86518661D01*
X156262182Y-86517697D01*
X156309617Y-86516611D01*
X156348266Y-86515397D01*
X156379049Y-86514047D01*
X156402885Y-86512555D01*
X156420694Y-86510911D01*
X156433395Y-86509111D01*
X156441908Y-86507145D01*
X156446266Y-86505477D01*
X156454728Y-86501906D01*
X156462497Y-86499270D01*
X156469602Y-86496634D01*
X156476073Y-86493062D01*
X156481939Y-86487621D01*
X156487229Y-86479375D01*
X156491974Y-86467390D01*
X156496202Y-86450731D01*
X156499943Y-86428463D01*
X156503227Y-86399652D01*
X156506083Y-86363363D01*
X156508540Y-86318661D01*
X156510629Y-86264611D01*
X156512378Y-86200279D01*
X156513817Y-86124730D01*
X156514976Y-86037030D01*
X156515883Y-85936243D01*
X156516569Y-85821434D01*
X156517063Y-85691670D01*
X156517395Y-85546015D01*
X156517593Y-85383535D01*
X156517687Y-85203295D01*
X156517708Y-85004360D01*
X156517685Y-84785796D01*
X156517646Y-84546668D01*
X156517622Y-84286040D01*
X156517622Y-84243889D01*
X156517636Y-83980992D01*
X156517661Y-83739732D01*
X156517671Y-83519165D01*
X156517642Y-83318352D01*
X156517548Y-83136349D01*
X156517362Y-82972216D01*
X156517059Y-82825011D01*
X156516614Y-82693792D01*
X156516034Y-82583867D01*
X156213197Y-82583867D01*
X156173407Y-82641711D01*
X156162236Y-82657479D01*
X156152166Y-82671441D01*
X156143138Y-82684784D01*
X156135097Y-82698693D01*
X156127986Y-82714356D01*
X156121747Y-82732958D01*
X156116325Y-82755686D01*
X156111662Y-82783727D01*
X156107701Y-82818267D01*
X156104385Y-82860492D01*
X156101659Y-82911589D01*
X156099464Y-82972744D01*
X156097745Y-83045144D01*
X156096444Y-83129975D01*
X156095505Y-83228422D01*
X156094870Y-83341674D01*
X156094484Y-83470916D01*
X156094288Y-83617334D01*
X156094227Y-83782116D01*
X156094243Y-83966447D01*
X156094280Y-84171513D01*
X156094289Y-84294133D01*
X156094265Y-84511082D01*
X156094231Y-84706642D01*
X156094243Y-84881999D01*
X156094358Y-85038341D01*
X156094630Y-85176857D01*
X156095118Y-85298734D01*
X156095876Y-85405160D01*
X156096962Y-85497322D01*
X156098431Y-85576409D01*
X156100340Y-85643608D01*
X156102744Y-85700107D01*
X156105701Y-85747093D01*
X156109266Y-85785755D01*
X156113495Y-85817280D01*
X156118446Y-85842855D01*
X156124173Y-85863670D01*
X156130733Y-85880911D01*
X156138183Y-85895765D01*
X156146579Y-85909422D01*
X156155976Y-85923069D01*
X156166432Y-85937893D01*
X156172523Y-85946783D01*
X156211296Y-86004400D01*
X155679732Y-86004400D01*
X155556483Y-86004365D01*
X155453987Y-86004215D01*
X155370420Y-86003878D01*
X155303956Y-86003286D01*
X155252771Y-86002367D01*
X155215041Y-86001051D01*
X155188940Y-85999269D01*
X155172644Y-85996951D01*
X155164328Y-85994026D01*
X155162168Y-85990424D01*
X155164339Y-85986075D01*
X155165535Y-85984645D01*
X155190685Y-85947573D01*
X155216583Y-85894772D01*
X155240192Y-85832770D01*
X155248461Y-85806357D01*
X155253078Y-85788416D01*
X155256979Y-85767355D01*
X155260248Y-85741089D01*
X155262966Y-85707532D01*
X155265215Y-85664599D01*
X155267077Y-85610204D01*
X155268636Y-85542262D01*
X155269972Y-85458688D01*
X155271169Y-85357395D01*
X155272308Y-85236300D01*
X155272685Y-85191600D01*
X155273702Y-85066449D01*
X155274460Y-84962082D01*
X155274903Y-84876707D01*
X155274970Y-84808533D01*
X155274605Y-84755765D01*
X155273748Y-84716614D01*
X155272341Y-84689285D01*
X155270325Y-84671986D01*
X155267643Y-84662926D01*
X155264236Y-84660312D01*
X155260044Y-84662351D01*
X155255571Y-84666667D01*
X155245216Y-84679602D01*
X155223158Y-84708676D01*
X155190957Y-84751759D01*
X155150174Y-84806718D01*
X155102370Y-84871423D01*
X155049105Y-84943742D01*
X154991940Y-85021544D01*
X154932437Y-85102698D01*
X154872155Y-85185072D01*
X154812655Y-85266536D01*
X154755498Y-85344957D01*
X154702245Y-85418204D01*
X154654457Y-85484147D01*
X154613693Y-85540654D01*
X154581516Y-85585593D01*
X154559485Y-85616834D01*
X154554917Y-85623466D01*
X154531996Y-85660369D01*
X154505188Y-85708359D01*
X154479789Y-85757897D01*
X154476568Y-85764577D01*
X154454890Y-85812772D01*
X154442304Y-85850334D01*
X154436574Y-85886160D01*
X154435456Y-85928200D01*
X154436090Y-86004400D01*
X153281651Y-86004400D01*
X153372815Y-85910669D01*
X153419612Y-85860775D01*
X153469899Y-85804295D01*
X153515944Y-85750026D01*
X153536369Y-85724673D01*
X153566807Y-85685128D01*
X153606862Y-85631916D01*
X153655361Y-85566667D01*
X153711135Y-85491011D01*
X153773011Y-85406577D01*
X153839819Y-85314994D01*
X153910387Y-85217892D01*
X153983545Y-85116901D01*
X154058121Y-85013650D01*
X154132944Y-84909768D01*
X154206843Y-84806885D01*
X154278646Y-84706631D01*
X154347184Y-84610636D01*
X154411284Y-84520527D01*
X154469775Y-84437936D01*
X154521486Y-84364492D01*
X154565247Y-84301824D01*
X154599885Y-84251561D01*
X154624230Y-84215334D01*
X154637111Y-84194771D01*
X154638869Y-84190668D01*
X154630910Y-84179342D01*
X154610115Y-84152162D01*
X154577847Y-84110829D01*
X154535470Y-84057044D01*
X154484347Y-83992506D01*
X154425841Y-83918918D01*
X154361314Y-83837978D01*
X154292131Y-83751388D01*
X154219653Y-83660848D01*
X154145246Y-83568060D01*
X154085517Y-83493702D01*
X153074511Y-83493702D01*
X153068602Y-83506659D01*
X153054272Y-83528908D01*
X153053225Y-83530391D01*
X153034438Y-83560544D01*
X153014791Y-83597375D01*
X153010892Y-83605511D01*
X153007356Y-83613940D01*
X153004230Y-83624059D01*
X153001486Y-83637260D01*
X152999092Y-83654938D01*
X152997019Y-83678484D01*
X152995235Y-83709293D01*
X152993712Y-83748757D01*
X152992419Y-83798269D01*
X152991326Y-83859223D01*
X152990403Y-83933011D01*
X152989619Y-84021028D01*
X152988945Y-84124665D01*
X152988350Y-84245316D01*
X152987805Y-84384374D01*
X152987279Y-84543232D01*
X152986745Y-84722089D01*
X152986206Y-84907207D01*
X152985772Y-85071145D01*
X152985509Y-85215303D01*
X152985484Y-85341079D01*
X152985765Y-85449871D01*
X152986419Y-85543077D01*
X152987514Y-85622097D01*
X152989118Y-85688328D01*
X152991297Y-85743170D01*
X152994119Y-85788021D01*
X152997651Y-85824278D01*
X153001961Y-85853341D01*
X153007117Y-85876609D01*
X153013185Y-85895479D01*
X153020233Y-85911351D01*
X153028329Y-85925622D01*
X153037540Y-85939691D01*
X153046040Y-85952158D01*
X153063176Y-85978452D01*
X153073322Y-85996037D01*
X153074511Y-85999257D01*
X153063604Y-86000334D01*
X153032411Y-86001335D01*
X152983223Y-86002235D01*
X152918333Y-86003010D01*
X152840030Y-86003637D01*
X152750607Y-86004091D01*
X152652356Y-86004349D01*
X152583445Y-86004400D01*
X152478452Y-86004180D01*
X152381610Y-86003548D01*
X152295107Y-86002549D01*
X152221132Y-86001227D01*
X152161874Y-85999626D01*
X152119520Y-85997791D01*
X152096260Y-85995765D01*
X152092378Y-85994493D01*
X152100076Y-85979591D01*
X152108074Y-85971560D01*
X152121246Y-85954434D01*
X152138485Y-85924183D01*
X152150407Y-85899622D01*
X152177045Y-85840711D01*
X152180120Y-84663845D01*
X152183195Y-83486978D01*
X152628853Y-83486978D01*
X152726670Y-83487142D01*
X152817064Y-83487611D01*
X152897630Y-83488347D01*
X152965962Y-83489316D01*
X153019656Y-83490480D01*
X153056305Y-83491803D01*
X153073504Y-83493249D01*
X153074511Y-83493702D01*
X154085517Y-83493702D01*
X154070270Y-83474722D01*
X153996090Y-83382537D01*
X153924069Y-83293204D01*
X153855569Y-83208424D01*
X153791955Y-83129898D01*
X153734588Y-83059326D01*
X153684833Y-82998409D01*
X153644052Y-82948847D01*
X153626888Y-82928178D01*
X153540596Y-82827516D01*
X153463997Y-82744259D01*
X153395183Y-82676438D01*
X153332248Y-82622089D01*
X153322867Y-82614722D01*
X153283356Y-82584117D01*
X154415116Y-82583867D01*
X154409827Y-82631844D01*
X154413130Y-82689188D01*
X154434661Y-82757463D01*
X154474635Y-82837212D01*
X154519943Y-82909495D01*
X154536161Y-82932140D01*
X154564214Y-82969696D01*
X154602430Y-83020021D01*
X154649137Y-83080973D01*
X154702661Y-83150411D01*
X154761331Y-83226194D01*
X154823475Y-83306180D01*
X154887421Y-83388228D01*
X154951495Y-83470196D01*
X155014027Y-83549943D01*
X155073343Y-83625327D01*
X155127771Y-83694207D01*
X155175639Y-83754442D01*
X155215275Y-83803889D01*
X155245006Y-83840408D01*
X155263161Y-83861858D01*
X155266220Y-83865156D01*
X155269079Y-83857149D01*
X155271293Y-83826855D01*
X155272857Y-83774556D01*
X155273767Y-83700531D01*
X155274020Y-83605063D01*
X155273613Y-83488434D01*
X155272704Y-83368445D01*
X155271382Y-83236333D01*
X155269857Y-83124594D01*
X155267881Y-83031025D01*
X155265206Y-82953419D01*
X155261582Y-82889574D01*
X155256761Y-82837283D01*
X155250494Y-82794344D01*
X155242532Y-82758551D01*
X155232627Y-82727700D01*
X155220531Y-82699586D01*
X155205993Y-82672005D01*
X155191311Y-82646966D01*
X155153314Y-82583867D01*
X156213197Y-82583867D01*
X156516034Y-82583867D01*
X156516001Y-82577617D01*
X156515195Y-82475544D01*
X156514170Y-82386633D01*
X156512900Y-82309941D01*
X156511360Y-82244527D01*
X156509524Y-82189449D01*
X156507367Y-82143765D01*
X156504863Y-82106534D01*
X156501987Y-82076813D01*
X156498713Y-82053662D01*
X156495015Y-82036139D01*
X156490869Y-82023301D01*
X156486247Y-82014208D01*
X156481126Y-82007918D01*
X156475478Y-82003488D01*
X156469279Y-81999978D01*
X156462504Y-81996445D01*
X156456508Y-81992876D01*
X156451275Y-81990300D01*
X156443099Y-81987972D01*
X156430886Y-81985878D01*
X156413541Y-81984007D01*
X156389969Y-81982347D01*
X156359077Y-81980884D01*
X156319768Y-81979608D01*
X156270950Y-81978504D01*
X156211527Y-81977561D01*
X156140404Y-81976767D01*
X156056488Y-81976109D01*
X155958683Y-81975575D01*
X155845894Y-81975153D01*
X155717029Y-81974829D01*
X155570991Y-81974592D01*
X155406686Y-81974430D01*
X155223020Y-81974330D01*
X155018897Y-81974280D01*
X154807753Y-81974267D01*
X153187400Y-81974267D01*
X153187400Y-82071054D01*
G36*
X149912571Y-82531071D02*
X149752430Y-82552245D01*
X149588490Y-82592385D01*
X149418687Y-82651889D01*
X149240957Y-82731154D01*
X149229690Y-82736699D01*
X149171995Y-82764725D01*
X149120448Y-82788802D01*
X149078809Y-82807249D01*
X149050838Y-82818386D01*
X149041267Y-82820933D01*
X149022050Y-82825941D01*
X149017439Y-82830147D01*
X149022542Y-82840580D01*
X149038582Y-82866868D01*
X149063712Y-82906257D01*
X149096086Y-82955991D01*
X149133857Y-83013315D01*
X149175178Y-83075476D01*
X149218202Y-83139718D01*
X149261083Y-83203285D01*
X149301974Y-83263425D01*
X149339029Y-83317380D01*
X149370400Y-83362397D01*
X149394241Y-83395721D01*
X149408706Y-83414597D01*
X149410691Y-83416787D01*
X149420809Y-83412138D01*
X149443150Y-83394962D01*
X149473720Y-83368440D01*
X149489464Y-83353964D01*
X149585953Y-83278682D01*
X149692664Y-83223241D01*
X149808168Y-83188141D01*
X149931038Y-83173880D01*
X150000439Y-83175051D01*
X150121577Y-83192212D01*
X150230795Y-83228094D01*
X150328418Y-83282959D01*
X150414772Y-83357070D01*
X150490185Y-83450688D01*
X150554982Y-83564076D01*
X150592399Y-83650667D01*
X150636252Y-83786366D01*
X150668572Y-83933850D01*
X150689443Y-84089314D01*
X150698949Y-84248956D01*
X150697173Y-84408973D01*
X150684197Y-84565561D01*
X150660106Y-84714918D01*
X150624982Y-84853240D01*
X150578908Y-84976724D01*
X150562627Y-85010978D01*
X150494380Y-85125064D01*
X150413921Y-85221557D01*
X150322430Y-85299670D01*
X150221089Y-85358617D01*
X150111080Y-85397612D01*
X149993585Y-85415868D01*
X149952117Y-85417211D01*
X149830559Y-85406290D01*
X149710122Y-85373474D01*
X149592334Y-85319439D01*
X149478723Y-85244865D01*
X149387315Y-85166539D01*
X149340785Y-85122008D01*
X149159517Y-85419271D01*
X149114420Y-85493433D01*
X149073181Y-85561646D01*
X149037265Y-85621459D01*
X149008134Y-85670420D01*
X148987250Y-85706079D01*
X148976076Y-85725984D01*
X148974625Y-85729079D01*
X148982854Y-85738718D01*
X149008433Y-85755999D01*
X149048127Y-85779283D01*
X149098703Y-85806934D01*
X149156926Y-85837315D01*
X149219563Y-85868790D01*
X149283379Y-85899722D01*
X149345140Y-85928473D01*
X149401612Y-85953408D01*
X149449562Y-85972889D01*
X149473014Y-85981318D01*
X149606779Y-86019133D01*
X149744673Y-86044136D01*
X149892378Y-86057140D01*
X150019167Y-86059468D01*
X150087122Y-86058373D01*
X150152723Y-86056275D01*
X150210153Y-86053434D01*
X150253597Y-86050106D01*
X150267702Y-86048422D01*
X150406716Y-86019587D01*
X150548243Y-85974468D01*
X150685725Y-85915750D01*
X150812606Y-85846120D01*
X150890111Y-85793441D01*
X151017519Y-85685239D01*
X151135822Y-85558671D01*
X151242828Y-85416866D01*
X151336348Y-85262951D01*
X151414190Y-85100053D01*
X151458044Y-84982756D01*
X151508292Y-84799128D01*
X151541791Y-84604581D01*
X151558551Y-84403325D01*
X151558584Y-84199568D01*
X151541899Y-83997521D01*
X151508507Y-83801392D01*
X151458420Y-83615391D01*
X151454603Y-83603803D01*
X151391719Y-83441750D01*
X151314972Y-83293832D01*
X151221758Y-83155865D01*
X151109473Y-83023661D01*
X151065608Y-82978399D01*
X150929466Y-82854457D01*
X150789509Y-82751915D01*
X150643589Y-82669656D01*
X150489558Y-82606564D01*
X150325268Y-82561523D01*
X150229711Y-82544033D01*
X150070977Y-82528466D01*
X149912571Y-82531071D01*
X149912571Y-82531071D01*
G37*
X149912571Y-82531071D02*
X149752430Y-82552245D01*
X149588490Y-82592385D01*
X149418687Y-82651889D01*
X149240957Y-82731154D01*
X149229690Y-82736699D01*
X149171995Y-82764725D01*
X149120448Y-82788802D01*
X149078809Y-82807249D01*
X149050838Y-82818386D01*
X149041267Y-82820933D01*
X149022050Y-82825941D01*
X149017439Y-82830147D01*
X149022542Y-82840580D01*
X149038582Y-82866868D01*
X149063712Y-82906257D01*
X149096086Y-82955991D01*
X149133857Y-83013315D01*
X149175178Y-83075476D01*
X149218202Y-83139718D01*
X149261083Y-83203285D01*
X149301974Y-83263425D01*
X149339029Y-83317380D01*
X149370400Y-83362397D01*
X149394241Y-83395721D01*
X149408706Y-83414597D01*
X149410691Y-83416787D01*
X149420809Y-83412138D01*
X149443150Y-83394962D01*
X149473720Y-83368440D01*
X149489464Y-83353964D01*
X149585953Y-83278682D01*
X149692664Y-83223241D01*
X149808168Y-83188141D01*
X149931038Y-83173880D01*
X150000439Y-83175051D01*
X150121577Y-83192212D01*
X150230795Y-83228094D01*
X150328418Y-83282959D01*
X150414772Y-83357070D01*
X150490185Y-83450688D01*
X150554982Y-83564076D01*
X150592399Y-83650667D01*
X150636252Y-83786366D01*
X150668572Y-83933850D01*
X150689443Y-84089314D01*
X150698949Y-84248956D01*
X150697173Y-84408973D01*
X150684197Y-84565561D01*
X150660106Y-84714918D01*
X150624982Y-84853240D01*
X150578908Y-84976724D01*
X150562627Y-85010978D01*
X150494380Y-85125064D01*
X150413921Y-85221557D01*
X150322430Y-85299670D01*
X150221089Y-85358617D01*
X150111080Y-85397612D01*
X149993585Y-85415868D01*
X149952117Y-85417211D01*
X149830559Y-85406290D01*
X149710122Y-85373474D01*
X149592334Y-85319439D01*
X149478723Y-85244865D01*
X149387315Y-85166539D01*
X149340785Y-85122008D01*
X149159517Y-85419271D01*
X149114420Y-85493433D01*
X149073181Y-85561646D01*
X149037265Y-85621459D01*
X149008134Y-85670420D01*
X148987250Y-85706079D01*
X148976076Y-85725984D01*
X148974625Y-85729079D01*
X148982854Y-85738718D01*
X149008433Y-85755999D01*
X149048127Y-85779283D01*
X149098703Y-85806934D01*
X149156926Y-85837315D01*
X149219563Y-85868790D01*
X149283379Y-85899722D01*
X149345140Y-85928473D01*
X149401612Y-85953408D01*
X149449562Y-85972889D01*
X149473014Y-85981318D01*
X149606779Y-86019133D01*
X149744673Y-86044136D01*
X149892378Y-86057140D01*
X150019167Y-86059468D01*
X150087122Y-86058373D01*
X150152723Y-86056275D01*
X150210153Y-86053434D01*
X150253597Y-86050106D01*
X150267702Y-86048422D01*
X150406716Y-86019587D01*
X150548243Y-85974468D01*
X150685725Y-85915750D01*
X150812606Y-85846120D01*
X150890111Y-85793441D01*
X151017519Y-85685239D01*
X151135822Y-85558671D01*
X151242828Y-85416866D01*
X151336348Y-85262951D01*
X151414190Y-85100053D01*
X151458044Y-84982756D01*
X151508292Y-84799128D01*
X151541791Y-84604581D01*
X151558551Y-84403325D01*
X151558584Y-84199568D01*
X151541899Y-83997521D01*
X151508507Y-83801392D01*
X151458420Y-83615391D01*
X151454603Y-83603803D01*
X151391719Y-83441750D01*
X151314972Y-83293832D01*
X151221758Y-83155865D01*
X151109473Y-83023661D01*
X151065608Y-82978399D01*
X150929466Y-82854457D01*
X150789509Y-82751915D01*
X150643589Y-82669656D01*
X150489558Y-82606564D01*
X150325268Y-82561523D01*
X150229711Y-82544033D01*
X150070977Y-82528466D01*
X149912571Y-82531071D01*
G36*
X147567426Y-83448552D02*
X147415508Y-83468567D01*
X147280244Y-83502202D01*
X147160761Y-83549725D01*
X147056185Y-83611405D01*
X146978576Y-83674965D01*
X146909735Y-83749099D01*
X146855994Y-83828871D01*
X146813090Y-83921091D01*
X146797616Y-83964161D01*
X146784756Y-84003142D01*
X146773554Y-84039289D01*
X146763880Y-84074434D01*
X146755604Y-84110410D01*
X146748597Y-84149050D01*
X146742728Y-84192185D01*
X146737869Y-84241649D01*
X146733890Y-84299273D01*
X146730660Y-84366891D01*
X146728051Y-84446334D01*
X146725933Y-84539436D01*
X146724176Y-84648027D01*
X146722651Y-84773942D01*
X146721228Y-84919012D01*
X146719975Y-85061778D01*
X146718649Y-85217968D01*
X146717444Y-85353239D01*
X146716234Y-85469246D01*
X146714894Y-85567645D01*
X146713300Y-85650093D01*
X146711325Y-85718246D01*
X146708844Y-85773760D01*
X146705731Y-85818292D01*
X146701862Y-85853498D01*
X146697111Y-85881034D01*
X146691352Y-85902556D01*
X146684461Y-85919722D01*
X146676311Y-85934186D01*
X146666777Y-85947606D01*
X146655734Y-85961638D01*
X146651434Y-85967071D01*
X146635614Y-85989910D01*
X146628578Y-86005463D01*
X146628556Y-86005922D01*
X146639433Y-86008121D01*
X146670418Y-86010147D01*
X146719043Y-86011942D01*
X146782837Y-86013451D01*
X146859331Y-86014616D01*
X146946056Y-86015380D01*
X147040543Y-86015686D01*
X147051450Y-86015689D01*
X147474343Y-86015689D01*
X147477605Y-85919622D01*
X147480867Y-85823556D01*
X147542956Y-85874543D01*
X147640286Y-85942057D01*
X147750187Y-85996749D01*
X147836651Y-86026978D01*
X147905722Y-86041666D01*
X147989075Y-86051659D01*
X148078841Y-86056646D01*
X148167155Y-86056313D01*
X148246149Y-86050351D01*
X148282378Y-86044638D01*
X148422397Y-86006776D01*
X148548822Y-85951932D01*
X148660740Y-85880924D01*
X148757238Y-85794568D01*
X148837400Y-85693679D01*
X148900313Y-85579076D01*
X148944688Y-85452984D01*
X148957022Y-85396401D01*
X148964632Y-85334202D01*
X148968261Y-85259363D01*
X148968755Y-85225467D01*
X148968690Y-85222282D01*
X148208752Y-85222282D01*
X148199459Y-85297333D01*
X148171272Y-85361160D01*
X148122803Y-85416798D01*
X148117746Y-85421211D01*
X148069452Y-85456037D01*
X148017743Y-85478620D01*
X147957011Y-85490540D01*
X147881648Y-85493383D01*
X147863541Y-85492978D01*
X147809722Y-85490325D01*
X147769692Y-85484909D01*
X147734676Y-85474745D01*
X147695897Y-85457850D01*
X147685255Y-85452672D01*
X147624604Y-85416844D01*
X147577785Y-85374212D01*
X147565048Y-85358973D01*
X147520378Y-85302462D01*
X147520378Y-85106586D01*
X147520914Y-85027939D01*
X147522604Y-84969988D01*
X147525572Y-84930875D01*
X147529943Y-84908741D01*
X147534028Y-84902274D01*
X147549953Y-84899111D01*
X147583736Y-84896488D01*
X147630660Y-84894655D01*
X147686007Y-84893857D01*
X147694894Y-84893842D01*
X147815670Y-84899096D01*
X147918340Y-84915263D01*
X148004894Y-84942961D01*
X148077319Y-84982808D01*
X148132249Y-85029758D01*
X148176796Y-85087645D01*
X148201520Y-85150693D01*
X148208752Y-85222282D01*
X148968690Y-85222282D01*
X148966822Y-85131712D01*
X148958478Y-85052812D01*
X148942232Y-84981590D01*
X148916595Y-84910864D01*
X148892599Y-84858493D01*
X148833980Y-84763196D01*
X148755883Y-84675170D01*
X148660685Y-84596017D01*
X148550762Y-84527340D01*
X148428490Y-84470741D01*
X148296245Y-84427821D01*
X148231578Y-84412882D01*
X148095396Y-84390777D01*
X147946951Y-84376194D01*
X147795495Y-84369813D01*
X147668936Y-84371445D01*
X147507050Y-84378224D01*
X147514470Y-84319245D01*
X147533762Y-84220092D01*
X147564896Y-84139372D01*
X147608731Y-84076466D01*
X147666129Y-84030756D01*
X147737952Y-84001622D01*
X147825059Y-83988447D01*
X147928314Y-83990611D01*
X147966289Y-83994612D01*
X148107480Y-84019780D01*
X148244293Y-84060814D01*
X148338822Y-84098815D01*
X148383982Y-84118190D01*
X148422415Y-84133760D01*
X148448766Y-84143405D01*
X148456454Y-84145452D01*
X148466198Y-84136374D01*
X148482917Y-84107405D01*
X148506768Y-84058217D01*
X148537907Y-83988484D01*
X148576493Y-83897879D01*
X148583090Y-83882089D01*
X148613147Y-83809772D01*
X148640126Y-83744425D01*
X148662864Y-83688906D01*
X148680194Y-83646072D01*
X148690952Y-83618781D01*
X148694059Y-83609942D01*
X148684060Y-83605187D01*
X148657783Y-83599910D01*
X148629511Y-83596231D01*
X148599354Y-83591474D01*
X148551567Y-83582028D01*
X148490388Y-83568820D01*
X148420054Y-83552776D01*
X148344806Y-83534820D01*
X148316245Y-83527797D01*
X148211184Y-83502209D01*
X148123520Y-83482147D01*
X148048932Y-83466969D01*
X147983097Y-83456035D01*
X147921693Y-83448704D01*
X147860398Y-83444335D01*
X147794890Y-83442287D01*
X147736872Y-83441889D01*
X147567426Y-83448552D01*
X147567426Y-83448552D01*
G37*
X147567426Y-83448552D02*
X147415508Y-83468567D01*
X147280244Y-83502202D01*
X147160761Y-83549725D01*
X147056185Y-83611405D01*
X146978576Y-83674965D01*
X146909735Y-83749099D01*
X146855994Y-83828871D01*
X146813090Y-83921091D01*
X146797616Y-83964161D01*
X146784756Y-84003142D01*
X146773554Y-84039289D01*
X146763880Y-84074434D01*
X146755604Y-84110410D01*
X146748597Y-84149050D01*
X146742728Y-84192185D01*
X146737869Y-84241649D01*
X146733890Y-84299273D01*
X146730660Y-84366891D01*
X146728051Y-84446334D01*
X146725933Y-84539436D01*
X146724176Y-84648027D01*
X146722651Y-84773942D01*
X146721228Y-84919012D01*
X146719975Y-85061778D01*
X146718649Y-85217968D01*
X146717444Y-85353239D01*
X146716234Y-85469246D01*
X146714894Y-85567645D01*
X146713300Y-85650093D01*
X146711325Y-85718246D01*
X146708844Y-85773760D01*
X146705731Y-85818292D01*
X146701862Y-85853498D01*
X146697111Y-85881034D01*
X146691352Y-85902556D01*
X146684461Y-85919722D01*
X146676311Y-85934186D01*
X146666777Y-85947606D01*
X146655734Y-85961638D01*
X146651434Y-85967071D01*
X146635614Y-85989910D01*
X146628578Y-86005463D01*
X146628556Y-86005922D01*
X146639433Y-86008121D01*
X146670418Y-86010147D01*
X146719043Y-86011942D01*
X146782837Y-86013451D01*
X146859331Y-86014616D01*
X146946056Y-86015380D01*
X147040543Y-86015686D01*
X147051450Y-86015689D01*
X147474343Y-86015689D01*
X147477605Y-85919622D01*
X147480867Y-85823556D01*
X147542956Y-85874543D01*
X147640286Y-85942057D01*
X147750187Y-85996749D01*
X147836651Y-86026978D01*
X147905722Y-86041666D01*
X147989075Y-86051659D01*
X148078841Y-86056646D01*
X148167155Y-86056313D01*
X148246149Y-86050351D01*
X148282378Y-86044638D01*
X148422397Y-86006776D01*
X148548822Y-85951932D01*
X148660740Y-85880924D01*
X148757238Y-85794568D01*
X148837400Y-85693679D01*
X148900313Y-85579076D01*
X148944688Y-85452984D01*
X148957022Y-85396401D01*
X148964632Y-85334202D01*
X148968261Y-85259363D01*
X148968755Y-85225467D01*
X148968690Y-85222282D01*
X148208752Y-85222282D01*
X148199459Y-85297333D01*
X148171272Y-85361160D01*
X148122803Y-85416798D01*
X148117746Y-85421211D01*
X148069452Y-85456037D01*
X148017743Y-85478620D01*
X147957011Y-85490540D01*
X147881648Y-85493383D01*
X147863541Y-85492978D01*
X147809722Y-85490325D01*
X147769692Y-85484909D01*
X147734676Y-85474745D01*
X147695897Y-85457850D01*
X147685255Y-85452672D01*
X147624604Y-85416844D01*
X147577785Y-85374212D01*
X147565048Y-85358973D01*
X147520378Y-85302462D01*
X147520378Y-85106586D01*
X147520914Y-85027939D01*
X147522604Y-84969988D01*
X147525572Y-84930875D01*
X147529943Y-84908741D01*
X147534028Y-84902274D01*
X147549953Y-84899111D01*
X147583736Y-84896488D01*
X147630660Y-84894655D01*
X147686007Y-84893857D01*
X147694894Y-84893842D01*
X147815670Y-84899096D01*
X147918340Y-84915263D01*
X148004894Y-84942961D01*
X148077319Y-84982808D01*
X148132249Y-85029758D01*
X148176796Y-85087645D01*
X148201520Y-85150693D01*
X148208752Y-85222282D01*
X148968690Y-85222282D01*
X148966822Y-85131712D01*
X148958478Y-85052812D01*
X148942232Y-84981590D01*
X148916595Y-84910864D01*
X148892599Y-84858493D01*
X148833980Y-84763196D01*
X148755883Y-84675170D01*
X148660685Y-84596017D01*
X148550762Y-84527340D01*
X148428490Y-84470741D01*
X148296245Y-84427821D01*
X148231578Y-84412882D01*
X148095396Y-84390777D01*
X147946951Y-84376194D01*
X147795495Y-84369813D01*
X147668936Y-84371445D01*
X147507050Y-84378224D01*
X147514470Y-84319245D01*
X147533762Y-84220092D01*
X147564896Y-84139372D01*
X147608731Y-84076466D01*
X147666129Y-84030756D01*
X147737952Y-84001622D01*
X147825059Y-83988447D01*
X147928314Y-83990611D01*
X147966289Y-83994612D01*
X148107480Y-84019780D01*
X148244293Y-84060814D01*
X148338822Y-84098815D01*
X148383982Y-84118190D01*
X148422415Y-84133760D01*
X148448766Y-84143405D01*
X148456454Y-84145452D01*
X148466198Y-84136374D01*
X148482917Y-84107405D01*
X148506768Y-84058217D01*
X148537907Y-83988484D01*
X148576493Y-83897879D01*
X148583090Y-83882089D01*
X148613147Y-83809772D01*
X148640126Y-83744425D01*
X148662864Y-83688906D01*
X148680194Y-83646072D01*
X148690952Y-83618781D01*
X148694059Y-83609942D01*
X148684060Y-83605187D01*
X148657783Y-83599910D01*
X148629511Y-83596231D01*
X148599354Y-83591474D01*
X148551567Y-83582028D01*
X148490388Y-83568820D01*
X148420054Y-83552776D01*
X148344806Y-83534820D01*
X148316245Y-83527797D01*
X148211184Y-83502209D01*
X148123520Y-83482147D01*
X148048932Y-83466969D01*
X147983097Y-83456035D01*
X147921693Y-83448704D01*
X147860398Y-83444335D01*
X147794890Y-83442287D01*
X147736872Y-83441889D01*
X147567426Y-83448552D01*
G36*
X144054493Y-84054245D02*
X144054474Y-84288662D01*
X144054448Y-84501603D01*
X144054375Y-84694168D01*
X144054218Y-84867459D01*
X144053936Y-85022576D01*
X144053491Y-85160620D01*
X144052844Y-85282692D01*
X144051955Y-85389894D01*
X144050787Y-85483326D01*
X144049299Y-85564090D01*
X144047454Y-85633286D01*
X144045211Y-85692015D01*
X144042531Y-85741379D01*
X144039377Y-85782478D01*
X144035708Y-85816413D01*
X144031487Y-85844286D01*
X144026673Y-85867198D01*
X144021227Y-85886249D01*
X144015112Y-85902540D01*
X144008288Y-85917173D01*
X144000715Y-85931249D01*
X143992355Y-85945868D01*
X143987161Y-85954974D01*
X143952896Y-86015689D01*
X144811045Y-86015689D01*
X144811045Y-85919733D01*
X144811776Y-85876370D01*
X144813728Y-85843205D01*
X144816537Y-85825424D01*
X144817779Y-85823778D01*
X144829201Y-85830662D01*
X144851916Y-85848505D01*
X144874615Y-85867879D01*
X144929200Y-85908614D01*
X144998679Y-85949617D01*
X145075730Y-85987123D01*
X145153035Y-86017364D01*
X145183887Y-86027012D01*
X145252384Y-86041578D01*
X145335236Y-86051539D01*
X145424629Y-86056583D01*
X145512752Y-86056396D01*
X145591793Y-86050666D01*
X145629489Y-86044858D01*
X145767586Y-86006797D01*
X145894887Y-85949073D01*
X146010708Y-85872211D01*
X146114363Y-85776739D01*
X146205167Y-85663179D01*
X146271969Y-85552381D01*
X146326836Y-85435625D01*
X146368837Y-85316276D01*
X146398833Y-85190283D01*
X146417689Y-85053594D01*
X146426268Y-84902158D01*
X146426994Y-84824711D01*
X146424900Y-84767934D01*
X145595783Y-84767934D01*
X145595576Y-84861002D01*
X145592663Y-84948692D01*
X145587000Y-85025772D01*
X145578545Y-85087009D01*
X145575962Y-85099350D01*
X145544160Y-85206633D01*
X145502502Y-85293658D01*
X145450637Y-85360642D01*
X145388219Y-85407805D01*
X145314900Y-85435365D01*
X145230331Y-85443541D01*
X145134165Y-85432551D01*
X145070689Y-85416829D01*
X145021546Y-85398639D01*
X144967417Y-85372791D01*
X144926756Y-85349089D01*
X144856200Y-85302721D01*
X144856200Y-84152530D01*
X144923608Y-84108962D01*
X145002133Y-84068040D01*
X145086319Y-84041389D01*
X145171443Y-84029465D01*
X145252784Y-84032722D01*
X145325620Y-84051615D01*
X145357574Y-84067184D01*
X145415499Y-84110181D01*
X145464456Y-84166953D01*
X145505610Y-84239575D01*
X145540126Y-84330121D01*
X145569167Y-84440666D01*
X145570448Y-84446533D01*
X145580619Y-84508788D01*
X145588261Y-84586594D01*
X145593330Y-84674720D01*
X145595783Y-84767934D01*
X146424900Y-84767934D01*
X146419143Y-84611895D01*
X146397198Y-84416059D01*
X146361214Y-84237332D01*
X146311241Y-84075845D01*
X146247332Y-83931726D01*
X146169538Y-83805106D01*
X146077911Y-83696115D01*
X145972503Y-83604883D01*
X145927338Y-83573932D01*
X145826389Y-83517785D01*
X145723099Y-83478174D01*
X145613011Y-83454014D01*
X145491670Y-83444219D01*
X145399164Y-83445265D01*
X145269510Y-83456231D01*
X145156916Y-83478046D01*
X145058125Y-83511714D01*
X144969879Y-83558236D01*
X144921014Y-83592448D01*
X144891647Y-83614362D01*
X144869957Y-83629333D01*
X144861747Y-83633733D01*
X144860132Y-83622904D01*
X144858841Y-83592251D01*
X144857862Y-83544526D01*
X144857183Y-83482479D01*
X144856790Y-83408862D01*
X144856670Y-83326427D01*
X144856812Y-83237925D01*
X144857203Y-83146107D01*
X144857829Y-83053724D01*
X144858680Y-82963528D01*
X144859740Y-82878271D01*
X144860999Y-82800703D01*
X144862444Y-82733576D01*
X144864062Y-82679641D01*
X144865839Y-82641650D01*
X144866331Y-82634667D01*
X144873908Y-82564251D01*
X144885469Y-82509102D01*
X144903208Y-82461981D01*
X144929318Y-82415647D01*
X144935585Y-82406067D01*
X144960017Y-82369378D01*
X144054689Y-82369378D01*
X144054493Y-84054245D01*
X144054493Y-84054245D01*
G37*
X144054493Y-84054245D02*
X144054474Y-84288662D01*
X144054448Y-84501603D01*
X144054375Y-84694168D01*
X144054218Y-84867459D01*
X144053936Y-85022576D01*
X144053491Y-85160620D01*
X144052844Y-85282692D01*
X144051955Y-85389894D01*
X144050787Y-85483326D01*
X144049299Y-85564090D01*
X144047454Y-85633286D01*
X144045211Y-85692015D01*
X144042531Y-85741379D01*
X144039377Y-85782478D01*
X144035708Y-85816413D01*
X144031487Y-85844286D01*
X144026673Y-85867198D01*
X144021227Y-85886249D01*
X144015112Y-85902540D01*
X144008288Y-85917173D01*
X144000715Y-85931249D01*
X143992355Y-85945868D01*
X143987161Y-85954974D01*
X143952896Y-86015689D01*
X144811045Y-86015689D01*
X144811045Y-85919733D01*
X144811776Y-85876370D01*
X144813728Y-85843205D01*
X144816537Y-85825424D01*
X144817779Y-85823778D01*
X144829201Y-85830662D01*
X144851916Y-85848505D01*
X144874615Y-85867879D01*
X144929200Y-85908614D01*
X144998679Y-85949617D01*
X145075730Y-85987123D01*
X145153035Y-86017364D01*
X145183887Y-86027012D01*
X145252384Y-86041578D01*
X145335236Y-86051539D01*
X145424629Y-86056583D01*
X145512752Y-86056396D01*
X145591793Y-86050666D01*
X145629489Y-86044858D01*
X145767586Y-86006797D01*
X145894887Y-85949073D01*
X146010708Y-85872211D01*
X146114363Y-85776739D01*
X146205167Y-85663179D01*
X146271969Y-85552381D01*
X146326836Y-85435625D01*
X146368837Y-85316276D01*
X146398833Y-85190283D01*
X146417689Y-85053594D01*
X146426268Y-84902158D01*
X146426994Y-84824711D01*
X146424900Y-84767934D01*
X145595783Y-84767934D01*
X145595576Y-84861002D01*
X145592663Y-84948692D01*
X145587000Y-85025772D01*
X145578545Y-85087009D01*
X145575962Y-85099350D01*
X145544160Y-85206633D01*
X145502502Y-85293658D01*
X145450637Y-85360642D01*
X145388219Y-85407805D01*
X145314900Y-85435365D01*
X145230331Y-85443541D01*
X145134165Y-85432551D01*
X145070689Y-85416829D01*
X145021546Y-85398639D01*
X144967417Y-85372791D01*
X144926756Y-85349089D01*
X144856200Y-85302721D01*
X144856200Y-84152530D01*
X144923608Y-84108962D01*
X145002133Y-84068040D01*
X145086319Y-84041389D01*
X145171443Y-84029465D01*
X145252784Y-84032722D01*
X145325620Y-84051615D01*
X145357574Y-84067184D01*
X145415499Y-84110181D01*
X145464456Y-84166953D01*
X145505610Y-84239575D01*
X145540126Y-84330121D01*
X145569167Y-84440666D01*
X145570448Y-84446533D01*
X145580619Y-84508788D01*
X145588261Y-84586594D01*
X145593330Y-84674720D01*
X145595783Y-84767934D01*
X146424900Y-84767934D01*
X146419143Y-84611895D01*
X146397198Y-84416059D01*
X146361214Y-84237332D01*
X146311241Y-84075845D01*
X146247332Y-83931726D01*
X146169538Y-83805106D01*
X146077911Y-83696115D01*
X145972503Y-83604883D01*
X145927338Y-83573932D01*
X145826389Y-83517785D01*
X145723099Y-83478174D01*
X145613011Y-83454014D01*
X145491670Y-83444219D01*
X145399164Y-83445265D01*
X145269510Y-83456231D01*
X145156916Y-83478046D01*
X145058125Y-83511714D01*
X144969879Y-83558236D01*
X144921014Y-83592448D01*
X144891647Y-83614362D01*
X144869957Y-83629333D01*
X144861747Y-83633733D01*
X144860132Y-83622904D01*
X144858841Y-83592251D01*
X144857862Y-83544526D01*
X144857183Y-83482479D01*
X144856790Y-83408862D01*
X144856670Y-83326427D01*
X144856812Y-83237925D01*
X144857203Y-83146107D01*
X144857829Y-83053724D01*
X144858680Y-82963528D01*
X144859740Y-82878271D01*
X144860999Y-82800703D01*
X144862444Y-82733576D01*
X144864062Y-82679641D01*
X144865839Y-82641650D01*
X144866331Y-82634667D01*
X144873908Y-82564251D01*
X144885469Y-82509102D01*
X144903208Y-82461981D01*
X144929318Y-82415647D01*
X144935585Y-82406067D01*
X144960017Y-82369378D01*
X144054689Y-82369378D01*
X144054493Y-84054245D01*
G36*
X152514043Y-81608571D02*
X152417768Y-81632809D01*
X152331184Y-81675641D01*
X152256373Y-81735419D01*
X152195418Y-81810494D01*
X152150399Y-81899220D01*
X152124136Y-81995530D01*
X152118286Y-82092795D01*
X152133140Y-82186654D01*
X152166840Y-82274511D01*
X152217528Y-82353770D01*
X152283345Y-82421836D01*
X152362434Y-82476112D01*
X152452934Y-82514002D01*
X152504200Y-82526426D01*
X152548698Y-82533947D01*
X152582999Y-82536919D01*
X152615960Y-82535094D01*
X152656434Y-82528225D01*
X152689531Y-82521250D01*
X152782947Y-82489741D01*
X152866619Y-82438617D01*
X152938665Y-82369429D01*
X152997200Y-82283728D01*
X153011148Y-82256489D01*
X153027586Y-82220122D01*
X153037894Y-82189582D01*
X153043460Y-82157450D01*
X153045669Y-82116307D01*
X153045948Y-82070222D01*
X153041861Y-81985865D01*
X153028446Y-81916586D01*
X153003256Y-81855961D01*
X152963846Y-81797567D01*
X152925298Y-81753302D01*
X152853406Y-81687484D01*
X152778313Y-81642053D01*
X152695562Y-81614850D01*
X152617928Y-81604576D01*
X152514043Y-81608571D01*
X152514043Y-81608571D01*
G37*
X152514043Y-81608571D02*
X152417768Y-81632809D01*
X152331184Y-81675641D01*
X152256373Y-81735419D01*
X152195418Y-81810494D01*
X152150399Y-81899220D01*
X152124136Y-81995530D01*
X152118286Y-82092795D01*
X152133140Y-82186654D01*
X152166840Y-82274511D01*
X152217528Y-82353770D01*
X152283345Y-82421836D01*
X152362434Y-82476112D01*
X152452934Y-82514002D01*
X152504200Y-82526426D01*
X152548698Y-82533947D01*
X152582999Y-82536919D01*
X152615960Y-82535094D01*
X152656434Y-82528225D01*
X152689531Y-82521250D01*
X152782947Y-82489741D01*
X152866619Y-82438617D01*
X152938665Y-82369429D01*
X152997200Y-82283728D01*
X153011148Y-82256489D01*
X153027586Y-82220122D01*
X153037894Y-82189582D01*
X153043460Y-82157450D01*
X153045669Y-82116307D01*
X153045948Y-82070222D01*
X153041861Y-81985865D01*
X153028446Y-81916586D01*
X153003256Y-81855961D01*
X152963846Y-81797567D01*
X152925298Y-81753302D01*
X152853406Y-81687484D01*
X152778313Y-81642053D01*
X152695562Y-81614850D01*
X152617928Y-81604576D01*
X152514043Y-81608571D01*
G36*
X159924750Y-87912222D02*
X180657500Y-87912222D01*
X180657500Y-86374359D01*
X180514625Y-86374359D01*
X180505851Y-86454540D01*
X180472220Y-86500513D01*
X180438639Y-86519006D01*
X180337523Y-86538831D01*
X180237929Y-86504290D01*
X180220938Y-86493274D01*
X180193573Y-86448190D01*
X180181300Y-86376065D01*
X180181280Y-86374111D01*
X180054250Y-86374111D01*
X180031801Y-86428564D01*
X179977667Y-86486474D01*
X179911665Y-86531650D01*
X179853615Y-86547900D01*
X179843867Y-86545982D01*
X179784336Y-86531063D01*
X179766719Y-86529333D01*
X179726037Y-86504839D01*
X179690926Y-86446072D01*
X179670692Y-86375109D01*
X179670811Y-86373258D01*
X179534813Y-86373258D01*
X179516430Y-86447109D01*
X179459950Y-86503499D01*
X179378074Y-86533775D01*
X179283502Y-86529282D01*
X179204938Y-86493274D01*
X179175195Y-86443495D01*
X179167008Y-86372062D01*
X179038250Y-86372062D01*
X179011675Y-86453309D01*
X178944617Y-86509770D01*
X178856074Y-86535506D01*
X178765046Y-86524578D01*
X178696938Y-86478756D01*
X178662370Y-86400599D01*
X178672495Y-86329830D01*
X178525609Y-86329830D01*
X178524297Y-86363511D01*
X178509048Y-86449224D01*
X178473716Y-86498934D01*
X178435000Y-86521201D01*
X178365530Y-86549382D01*
X178318779Y-86550443D01*
X178264767Y-86521101D01*
X178232907Y-86499062D01*
X178167486Y-86424941D01*
X178145808Y-86336741D01*
X178160900Y-86262184D01*
X178017144Y-86262184D01*
X178015849Y-86292456D01*
X178008277Y-86397264D01*
X177994663Y-86460385D01*
X177969442Y-86496572D01*
X177930348Y-86519139D01*
X177827986Y-86537093D01*
X177735997Y-86503168D01*
X177679596Y-86441721D01*
X177653359Y-86362756D01*
X177647359Y-86261494D01*
X177659511Y-86158228D01*
X177687731Y-86073252D01*
X177721763Y-86031215D01*
X177820512Y-85995938D01*
X177917643Y-86010285D01*
X177971241Y-86046230D01*
X178001605Y-86090919D01*
X178015998Y-86157892D01*
X178017144Y-86262184D01*
X178160900Y-86262184D01*
X178163465Y-86249514D01*
X178216049Y-86178314D01*
X178299152Y-86138195D01*
X178339750Y-86134222D01*
X178440356Y-86157288D01*
X178503381Y-86223824D01*
X178525609Y-86329830D01*
X178672495Y-86329830D01*
X178674500Y-86315824D01*
X178724096Y-86242068D01*
X178801926Y-86196964D01*
X178847750Y-86190666D01*
X178929281Y-86215280D01*
X178999137Y-86275875D01*
X179036451Y-86352584D01*
X179038250Y-86372062D01*
X179167008Y-86372062D01*
X179166494Y-86367580D01*
X179179016Y-86292706D01*
X179203350Y-86252755D01*
X179280377Y-86219586D01*
X179376434Y-86221716D01*
X179464366Y-86255708D01*
X179502397Y-86290600D01*
X179534813Y-86373258D01*
X179670811Y-86373258D01*
X179674642Y-86314023D01*
X179675282Y-86312456D01*
X179729195Y-86246206D01*
X179811222Y-86200212D01*
X179863106Y-86190666D01*
X179915110Y-86211922D01*
X179977975Y-86262563D01*
X180031189Y-86322904D01*
X180054238Y-86373258D01*
X180054250Y-86374111D01*
X180181280Y-86374111D01*
X180181250Y-86371306D01*
X180198424Y-86288546D01*
X180259463Y-86231131D01*
X180264284Y-86228273D01*
X180330134Y-86197199D01*
X180384102Y-86200910D01*
X180430972Y-86221649D01*
X180488316Y-86262111D01*
X180511661Y-86320531D01*
X180514625Y-86374359D01*
X180657500Y-86374359D01*
X180657500Y-85970657D01*
X177510747Y-85970657D01*
X177509758Y-86078701D01*
X177507340Y-86169973D01*
X177502650Y-86307757D01*
X177496196Y-86399905D01*
X177485398Y-86457220D01*
X177467681Y-86490506D01*
X177440466Y-86510568D01*
X177424258Y-86518237D01*
X177317780Y-86538826D01*
X177223818Y-86505281D01*
X177179904Y-86463091D01*
X177155891Y-86402408D01*
X177140190Y-86303290D01*
X177133125Y-86183301D01*
X177135019Y-86060004D01*
X177142488Y-85987134D01*
X177038000Y-85987134D01*
X177035652Y-86146143D01*
X177029121Y-86282171D01*
X177019181Y-86384689D01*
X177006605Y-86443167D01*
X177004175Y-86448113D01*
X176932590Y-86515062D01*
X176835952Y-86537840D01*
X176732204Y-86513809D01*
X176696688Y-86493274D01*
X176680451Y-86463756D01*
X176668820Y-86397333D01*
X176661358Y-86288647D01*
X176657629Y-86132344D01*
X176657000Y-86005782D01*
X176658309Y-85816501D01*
X176659663Y-85782727D01*
X176530000Y-85782727D01*
X176530000Y-86419010D01*
X176450097Y-86490035D01*
X176359387Y-86540241D01*
X176268449Y-86535494D01*
X176188688Y-86478756D01*
X176174831Y-86445766D01*
X176164249Y-86378801D01*
X176156664Y-86272996D01*
X176151803Y-86123489D01*
X176149389Y-85925415D01*
X176149383Y-85923036D01*
X176017081Y-85923036D01*
X176016349Y-86102965D01*
X176014533Y-86251964D01*
X176011704Y-86362556D01*
X176007933Y-86427266D01*
X176006121Y-86438832D01*
X175960304Y-86504311D01*
X175880884Y-86538095D01*
X175788612Y-86537674D01*
X175704236Y-86500539D01*
X175680257Y-86478232D01*
X175668606Y-86451720D01*
X175659584Y-86398419D01*
X175653029Y-86313474D01*
X175648779Y-86192031D01*
X175646671Y-86029235D01*
X175646542Y-85820233D01*
X175648230Y-85560170D01*
X175648507Y-85529653D01*
X175650603Y-85303328D01*
X175513514Y-85303328D01*
X175513466Y-85594724D01*
X175512697Y-85834819D01*
X175510677Y-86028757D01*
X175506879Y-86181682D01*
X175500775Y-86298736D01*
X175491837Y-86385064D01*
X175479537Y-86445809D01*
X175463346Y-86486115D01*
X175442737Y-86511125D01*
X175417182Y-86525982D01*
X175387000Y-86535604D01*
X175287540Y-86535191D01*
X175199707Y-86485192D01*
X175179654Y-86463091D01*
X175167535Y-86440036D01*
X175157640Y-86401165D01*
X175149758Y-86341281D01*
X175143681Y-86255188D01*
X175139197Y-86137690D01*
X175136098Y-85983588D01*
X175134174Y-85787687D01*
X175133215Y-85544789D01*
X175133000Y-85307642D01*
X175133855Y-85004219D01*
X175136367Y-84742721D01*
X175140461Y-84525822D01*
X175143212Y-84442488D01*
X175000181Y-84442488D01*
X174999969Y-84734916D01*
X174998432Y-85080963D01*
X174998365Y-85092386D01*
X174990125Y-86485342D01*
X174916008Y-86518183D01*
X174809572Y-86538822D01*
X174715621Y-86505320D01*
X174671654Y-86463091D01*
X174659238Y-86419209D01*
X174648499Y-86325818D01*
X174639430Y-86189836D01*
X174632023Y-86018178D01*
X174626271Y-85817762D01*
X174622169Y-85595504D01*
X174619709Y-85358321D01*
X174618883Y-85113129D01*
X174619686Y-84866844D01*
X174622110Y-84626383D01*
X174626149Y-84398663D01*
X174631795Y-84190600D01*
X174639041Y-84009110D01*
X174647882Y-83861111D01*
X174658309Y-83753518D01*
X174670316Y-83693249D01*
X174674426Y-83685168D01*
X174741359Y-83640151D01*
X174833041Y-83621707D01*
X174921844Y-83632094D01*
X174970665Y-83660937D01*
X174979514Y-83689017D01*
X174986720Y-83754326D01*
X174992338Y-83859597D01*
X174996418Y-84007559D01*
X174999015Y-84200946D01*
X175000181Y-84442488D01*
X175143212Y-84442488D01*
X175146062Y-84356193D01*
X175153095Y-84236507D01*
X175161484Y-84169437D01*
X175165478Y-84157458D01*
X175236844Y-84088475D01*
X175328678Y-84063943D01*
X175421769Y-84084793D01*
X175489702Y-84141724D01*
X175494812Y-84175903D01*
X175499560Y-84260336D01*
X175503818Y-84388832D01*
X175507460Y-84555202D01*
X175510357Y-84753254D01*
X175512385Y-84976799D01*
X175513415Y-85219645D01*
X175513514Y-85303328D01*
X175650603Y-85303328D01*
X175656875Y-84626476D01*
X175744188Y-84583071D01*
X175813257Y-84555607D01*
X175869444Y-84561105D01*
X175918813Y-84583070D01*
X176006125Y-84626474D01*
X176015008Y-85500292D01*
X176016657Y-85719653D01*
X176017081Y-85923036D01*
X176149383Y-85923036D01*
X176149000Y-85777650D01*
X176149170Y-85568802D01*
X176150163Y-85409179D01*
X176152709Y-85291562D01*
X176157533Y-85208730D01*
X176165364Y-85153466D01*
X176176930Y-85118548D01*
X176192957Y-85096759D01*
X176214174Y-85080878D01*
X176219565Y-85077489D01*
X176320488Y-85037422D01*
X176411257Y-85052147D01*
X176466500Y-85090000D01*
X176487060Y-85111326D01*
X176502640Y-85138914D01*
X176513926Y-85180254D01*
X176521605Y-85242836D01*
X176526364Y-85334152D01*
X176528890Y-85461690D01*
X176529868Y-85632942D01*
X176530000Y-85782727D01*
X176659663Y-85782727D01*
X176663929Y-85676342D01*
X176676400Y-85578006D01*
X176698261Y-85514193D01*
X176732052Y-85477602D01*
X176780312Y-85460935D01*
X176845583Y-85456891D01*
X176847968Y-85456888D01*
X176915200Y-85463596D01*
X176964791Y-85488459D01*
X176999288Y-85538588D01*
X177021242Y-85621093D01*
X177033199Y-85743087D01*
X177037709Y-85911678D01*
X177038000Y-85987134D01*
X177142488Y-85987134D01*
X177146196Y-85950959D01*
X177166978Y-85873730D01*
X177168984Y-85869609D01*
X177233389Y-85803058D01*
X177325114Y-85779037D01*
X177424754Y-85801852D01*
X177439264Y-85809627D01*
X177472674Y-85831573D01*
X177494317Y-85858274D01*
X177506304Y-85900908D01*
X177510747Y-85970657D01*
X180657500Y-85970657D01*
X180657500Y-83394101D01*
X174529750Y-83394101D01*
X174529750Y-84893016D01*
X174529117Y-85280763D01*
X174527211Y-85612435D01*
X174524026Y-85888390D01*
X174519553Y-86108986D01*
X174513784Y-86274583D01*
X174506712Y-86385539D01*
X174498329Y-86442211D01*
X174495925Y-86448113D01*
X174424340Y-86515062D01*
X174327702Y-86537840D01*
X174223954Y-86513809D01*
X174188438Y-86493274D01*
X174179467Y-86475216D01*
X174171852Y-86431931D01*
X174165501Y-86359778D01*
X174160323Y-86255121D01*
X174156228Y-86114319D01*
X174153124Y-85933734D01*
X174150920Y-85709726D01*
X174149839Y-85499477D01*
X174016482Y-85499477D01*
X174015458Y-85779866D01*
X174013080Y-86008898D01*
X174009322Y-86188265D01*
X174004158Y-86319659D01*
X173997561Y-86404771D01*
X173989506Y-86445294D01*
X173988687Y-86446848D01*
X173918309Y-86514108D01*
X173826619Y-86538581D01*
X173733877Y-86518243D01*
X173680438Y-86477662D01*
X173671589Y-86455552D01*
X173664052Y-86407883D01*
X173657741Y-86331089D01*
X173652572Y-86221609D01*
X173648460Y-86075879D01*
X173645320Y-85890336D01*
X173643067Y-85661417D01*
X173641616Y-85385559D01*
X173640883Y-85059199D01*
X173640750Y-84811661D01*
X173640750Y-84810103D01*
X173513750Y-84810103D01*
X173513750Y-86440569D01*
X173433998Y-86496332D01*
X173335963Y-86535731D01*
X173239331Y-86524712D01*
X173172438Y-86478003D01*
X173163588Y-86455804D01*
X173156050Y-86408035D01*
X173149739Y-86331131D01*
X173144569Y-86221529D01*
X173140457Y-86075667D01*
X173137317Y-85889983D01*
X173135064Y-85660912D01*
X173133614Y-85384893D01*
X173132882Y-85058363D01*
X173132750Y-84811661D01*
X173132780Y-84728900D01*
X173005755Y-84728900D01*
X173005750Y-84907441D01*
X173005695Y-85248313D01*
X173005273Y-85537135D01*
X173004098Y-85778301D01*
X173001785Y-85976204D01*
X172997949Y-86135238D01*
X172992204Y-86259797D01*
X172984164Y-86354275D01*
X172973444Y-86423066D01*
X172959659Y-86470564D01*
X172942423Y-86501163D01*
X172921351Y-86519256D01*
X172896057Y-86529238D01*
X172866155Y-86535503D01*
X172862875Y-86536098D01*
X172794598Y-86539561D01*
X172732208Y-86514737D01*
X172680313Y-86478333D01*
X172668181Y-86466016D01*
X172657947Y-86446101D01*
X172649451Y-86414064D01*
X172642532Y-86365381D01*
X172637030Y-86295527D01*
X172632786Y-86199977D01*
X172629638Y-86074208D01*
X172627428Y-85913695D01*
X172625994Y-85713913D01*
X172625178Y-85470338D01*
X172624818Y-85178446D01*
X172624750Y-84908461D01*
X172624774Y-84561817D01*
X172625170Y-84267362D01*
X172626431Y-84020839D01*
X172629046Y-83817992D01*
X172633169Y-83666942D01*
X172481875Y-83666942D01*
X172481875Y-86485333D01*
X172407758Y-86518179D01*
X172301326Y-86538822D01*
X172207376Y-86505323D01*
X172163404Y-86463091D01*
X172152281Y-86441824D01*
X172143029Y-86405609D01*
X172135487Y-86349713D01*
X172129498Y-86269402D01*
X172124901Y-86159943D01*
X172121537Y-86016604D01*
X172119246Y-85834652D01*
X172117870Y-85609352D01*
X172117249Y-85335973D01*
X172117184Y-85090775D01*
X172117653Y-84822013D01*
X172118377Y-84665820D01*
X172018530Y-84665820D01*
X172017901Y-84861542D01*
X172016300Y-85104003D01*
X172014593Y-85323262D01*
X172005625Y-86449696D01*
X171930671Y-86503626D01*
X171846007Y-86549349D01*
X171773045Y-86546484D01*
X171693021Y-86493851D01*
X171686682Y-86488282D01*
X171608750Y-86419010D01*
X171608750Y-85306755D01*
X171608826Y-85090689D01*
X171477323Y-85090689D01*
X171476409Y-85294231D01*
X171474352Y-85548242D01*
X171474293Y-85554843D01*
X171465875Y-86485353D01*
X171389889Y-86519017D01*
X171288763Y-86538831D01*
X171189163Y-86504280D01*
X171172188Y-86493274D01*
X171160550Y-86471649D01*
X171154784Y-86440569D01*
X171005500Y-86440569D01*
X170925748Y-86496332D01*
X170827713Y-86535731D01*
X170731081Y-86524712D01*
X170664188Y-86478003D01*
X170650205Y-86445041D01*
X170639558Y-86377910D01*
X170631967Y-86271723D01*
X170627148Y-86121593D01*
X170625461Y-85977338D01*
X170497067Y-85977338D01*
X170495877Y-86159863D01*
X170491545Y-86294144D01*
X170482245Y-86388370D01*
X170466150Y-86450729D01*
X170441432Y-86489411D01*
X170406265Y-86512604D01*
X170375139Y-86523801D01*
X170266672Y-86536619D01*
X170181978Y-86499039D01*
X170157198Y-86474637D01*
X170139487Y-86427183D01*
X170127091Y-86329894D01*
X170119819Y-86180527D01*
X170119567Y-86161424D01*
X169989500Y-86161424D01*
X169985509Y-86312187D01*
X169971416Y-86416201D01*
X169944045Y-86482823D01*
X169900221Y-86521412D01*
X169862500Y-86535604D01*
X169763040Y-86535191D01*
X169675207Y-86485192D01*
X169655154Y-86463091D01*
X169630237Y-86400654D01*
X169614710Y-86300322D01*
X169611200Y-86229474D01*
X169483839Y-86229474D01*
X169482078Y-86337384D01*
X169459361Y-86435501D01*
X169418000Y-86501111D01*
X169340244Y-86549387D01*
X169265168Y-86545981D01*
X169180649Y-86490243D01*
X169178432Y-86488282D01*
X169126484Y-86426883D01*
X169103843Y-86350340D01*
X169103127Y-86335675D01*
X168968763Y-86335675D01*
X168967503Y-86364309D01*
X168951767Y-86450504D01*
X168915556Y-86500023D01*
X168881639Y-86519180D01*
X168780355Y-86538836D01*
X168680637Y-86504112D01*
X168663938Y-86493274D01*
X168637399Y-86446440D01*
X168625850Y-86368628D01*
X168625998Y-86365088D01*
X168497250Y-86365088D01*
X168475846Y-86420748D01*
X168423680Y-86484236D01*
X168417347Y-86490035D01*
X168326637Y-86540241D01*
X168235699Y-86535494D01*
X168155938Y-86478756D01*
X168119754Y-86399945D01*
X168124580Y-86340632D01*
X167983567Y-86340632D01*
X167964246Y-86420944D01*
X167910801Y-86487181D01*
X167835541Y-86530388D01*
X167750776Y-86541611D01*
X167668816Y-86511896D01*
X167639100Y-86486035D01*
X167619611Y-86436165D01*
X167612908Y-86356469D01*
X167614248Y-86327468D01*
X167617492Y-86309691D01*
X167477741Y-86309691D01*
X167472094Y-86405083D01*
X167447330Y-86462383D01*
X167382064Y-86521278D01*
X167295923Y-86539777D01*
X167208795Y-86520762D01*
X167140570Y-86467115D01*
X167115596Y-86414301D01*
X167107751Y-86303539D01*
X166968429Y-86303539D01*
X166967190Y-86349281D01*
X166954845Y-86438071D01*
X166927683Y-86489407D01*
X166878000Y-86521188D01*
X166808533Y-86549379D01*
X166761783Y-86550444D01*
X166707770Y-86521103D01*
X166675907Y-86499062D01*
X166612563Y-86426308D01*
X166589269Y-86336553D01*
X166598074Y-86273353D01*
X166460546Y-86273353D01*
X166459008Y-86353232D01*
X166445902Y-86441586D01*
X166416695Y-86492333D01*
X166373389Y-86519167D01*
X166272117Y-86538836D01*
X166172408Y-86504125D01*
X166155688Y-86493274D01*
X166131371Y-86448374D01*
X166118734Y-86369388D01*
X166117873Y-86277728D01*
X166119237Y-86267452D01*
X165971564Y-86267452D01*
X165971475Y-86375413D01*
X165932690Y-86461764D01*
X165866759Y-86520024D01*
X165785235Y-86543711D01*
X165699669Y-86526343D01*
X165622904Y-86463091D01*
X165577654Y-86367925D01*
X165578149Y-86295673D01*
X165481000Y-86295673D01*
X165459820Y-86412507D01*
X165402932Y-86494832D01*
X165320320Y-86536869D01*
X165221966Y-86532838D01*
X165139688Y-86493274D01*
X165112905Y-86445923D01*
X165100532Y-86365125D01*
X165101272Y-86321012D01*
X164973000Y-86321012D01*
X164963378Y-86409692D01*
X164926482Y-86469063D01*
X164888637Y-86499557D01*
X164789953Y-86540771D01*
X164696439Y-86527767D01*
X164631688Y-86478756D01*
X164602489Y-86411902D01*
X164596010Y-86345203D01*
X164458440Y-86345203D01*
X164447072Y-86434887D01*
X164421978Y-86486759D01*
X164373836Y-86519316D01*
X164369750Y-86521175D01*
X164300286Y-86549375D01*
X164253536Y-86550445D01*
X164199524Y-86521105D01*
X164167657Y-86499062D01*
X164111183Y-86446578D01*
X164087375Y-86379740D01*
X164084374Y-86324528D01*
X163957000Y-86324528D01*
X163936212Y-86440713D01*
X163875249Y-86516348D01*
X163830000Y-86537969D01*
X163767381Y-86552349D01*
X163719703Y-86540058D01*
X163659714Y-86493405D01*
X163653932Y-86488282D01*
X163590444Y-86401268D01*
X163572791Y-86305887D01*
X163589562Y-86241736D01*
X163443133Y-86241736D01*
X163442812Y-86335856D01*
X163431934Y-86428926D01*
X163409375Y-86482773D01*
X163367271Y-86514513D01*
X163359008Y-86518326D01*
X163252461Y-86538831D01*
X163158480Y-86505216D01*
X163114654Y-86463091D01*
X163069404Y-86367925D01*
X163069546Y-86347128D01*
X162972612Y-86347128D01*
X162947920Y-86440927D01*
X162920205Y-86477722D01*
X162848325Y-86515379D01*
X162753220Y-86528520D01*
X162665116Y-86515297D01*
X162629850Y-86495466D01*
X162606483Y-86447999D01*
X162593034Y-86368981D01*
X162591750Y-86335411D01*
X162593772Y-86323088D01*
X162460656Y-86323088D01*
X162444972Y-86412752D01*
X162389962Y-86487910D01*
X162308982Y-86530194D01*
X162220618Y-86536507D01*
X162143458Y-86503747D01*
X162112659Y-86468168D01*
X162085102Y-86371092D01*
X162088236Y-86350896D01*
X161955741Y-86350896D01*
X161932170Y-86441257D01*
X161870116Y-86505577D01*
X161785985Y-86537690D01*
X161696184Y-86531430D01*
X161617122Y-86480635D01*
X161615438Y-86478756D01*
X161582623Y-86404881D01*
X161582132Y-86390740D01*
X161444109Y-86390740D01*
X161418039Y-86470193D01*
X161354618Y-86524786D01*
X161344613Y-86528766D01*
X161276665Y-86550289D01*
X161230922Y-86547780D01*
X161176505Y-86516492D01*
X161151407Y-86499062D01*
X161082123Y-86421149D01*
X161080418Y-86406618D01*
X160933760Y-86406618D01*
X160897792Y-86482737D01*
X160850758Y-86518368D01*
X160744503Y-86538841D01*
X160651252Y-86505309D01*
X160603882Y-86457999D01*
X160580247Y-86397996D01*
X160448538Y-86397996D01*
X160408495Y-86479113D01*
X160327487Y-86529136D01*
X160266209Y-86550130D01*
X160230737Y-86551650D01*
X160187139Y-86533357D01*
X160175143Y-86527617D01*
X160101653Y-86463823D01*
X160071538Y-86375052D01*
X160089057Y-86289875D01*
X160153132Y-86220693D01*
X160240117Y-86193262D01*
X160330941Y-86206982D01*
X160406532Y-86261253D01*
X160431390Y-86300636D01*
X160448538Y-86397996D01*
X160580247Y-86397996D01*
X160571085Y-86374738D01*
X160586627Y-86297264D01*
X160637845Y-86235012D01*
X160712073Y-86197419D01*
X160796648Y-86193921D01*
X160878907Y-86233956D01*
X160890438Y-86244471D01*
X160932381Y-86319794D01*
X160933760Y-86406618D01*
X161080418Y-86406618D01*
X161071729Y-86332613D01*
X161120373Y-86244266D01*
X161147586Y-86218504D01*
X161213705Y-86174266D01*
X161274372Y-86168850D01*
X161313708Y-86178809D01*
X161390392Y-86227491D01*
X161434376Y-86303987D01*
X161444109Y-86390740D01*
X161582132Y-86390740D01*
X161579305Y-86309424D01*
X161606233Y-86221129D01*
X161608618Y-86217033D01*
X161661566Y-86174999D01*
X161755930Y-86162444D01*
X161865606Y-86181770D01*
X161931416Y-86241130D01*
X161955559Y-86342599D01*
X161955741Y-86350896D01*
X162088236Y-86350896D01*
X162101358Y-86266337D01*
X162155883Y-86177946D01*
X162185121Y-86153888D01*
X162247705Y-86117609D01*
X162293311Y-86115542D01*
X162351304Y-86144386D01*
X162430319Y-86221446D01*
X162460656Y-86323088D01*
X162593772Y-86323088D01*
X162610795Y-86219361D01*
X162662150Y-86141987D01*
X162737147Y-86108027D01*
X162827116Y-86122219D01*
X162899267Y-86167363D01*
X162955858Y-86247998D01*
X162972612Y-86347128D01*
X163069546Y-86347128D01*
X163070073Y-86270395D01*
X163110361Y-86184771D01*
X163183969Y-86125326D01*
X163272288Y-86106000D01*
X163365360Y-86118305D01*
X163420249Y-86160775D01*
X163443133Y-86241736D01*
X163589562Y-86241736D01*
X163596280Y-86216040D01*
X163656215Y-86145628D01*
X163747900Y-86108553D01*
X163783059Y-86106000D01*
X163874877Y-86121722D01*
X163930285Y-86173417D01*
X163954691Y-86267875D01*
X163957000Y-86324528D01*
X164084374Y-86324528D01*
X164084000Y-86317666D01*
X164092796Y-86228659D01*
X164126892Y-86169829D01*
X164168364Y-86135776D01*
X164266178Y-86091831D01*
X164351143Y-86098838D01*
X164415950Y-86151522D01*
X164453292Y-86244606D01*
X164458440Y-86345203D01*
X164596010Y-86345203D01*
X164593324Y-86317564D01*
X164603920Y-86221737D01*
X164634006Y-86150420D01*
X164635131Y-86149023D01*
X164703673Y-86107603D01*
X164796739Y-86096828D01*
X164885532Y-86116699D01*
X164929870Y-86149023D01*
X164957365Y-86210068D01*
X164972174Y-86296726D01*
X164973000Y-86321012D01*
X165101272Y-86321012D01*
X165102090Y-86272303D01*
X165117098Y-86188881D01*
X165145077Y-86136283D01*
X165147723Y-86134150D01*
X165239271Y-86097373D01*
X165334163Y-86106514D01*
X165416284Y-86153763D01*
X165469518Y-86231308D01*
X165481000Y-86295673D01*
X165578149Y-86295673D01*
X165578323Y-86270395D01*
X165618611Y-86184771D01*
X165692219Y-86125326D01*
X165780538Y-86106000D01*
X165877355Y-86119787D01*
X165936553Y-86167929D01*
X165970165Y-86260595D01*
X165971564Y-86267452D01*
X166119237Y-86267452D01*
X166128886Y-86194806D01*
X166151867Y-86142034D01*
X166154101Y-86139866D01*
X166210855Y-86116093D01*
X166294516Y-86106002D01*
X166295858Y-86106000D01*
X166385781Y-86122812D01*
X166439501Y-86176814D01*
X166460546Y-86273353D01*
X166598074Y-86273353D01*
X166602039Y-86244896D01*
X166646889Y-86166437D01*
X166719834Y-86116277D01*
X166779630Y-86106000D01*
X166882285Y-86128118D01*
X166945348Y-86194134D01*
X166968429Y-86303539D01*
X167107751Y-86303539D01*
X167107113Y-86294535D01*
X167141886Y-86198437D01*
X167215584Y-86137686D01*
X167218657Y-86136408D01*
X167309057Y-86124791D01*
X167387911Y-86157697D01*
X167446910Y-86223280D01*
X167477741Y-86309691D01*
X167617492Y-86309691D01*
X167629978Y-86241285D01*
X167666180Y-86191768D01*
X167700153Y-86172578D01*
X167802475Y-86154591D01*
X167895207Y-86189500D01*
X167956452Y-86255199D01*
X167983567Y-86340632D01*
X168124580Y-86340632D01*
X168126918Y-86311899D01*
X168169364Y-86231803D01*
X168239023Y-86176838D01*
X168304446Y-86162444D01*
X168369324Y-86185904D01*
X168435429Y-86243047D01*
X168483870Y-86314021D01*
X168497250Y-86365088D01*
X168625998Y-86365088D01*
X168629420Y-86283738D01*
X168648235Y-86215668D01*
X168662351Y-86196311D01*
X168728204Y-86169341D01*
X168818893Y-86164264D01*
X168902892Y-86180354D01*
X168939803Y-86202692D01*
X168961108Y-86254648D01*
X168968763Y-86335675D01*
X169103127Y-86335675D01*
X169100500Y-86281937D01*
X169119737Y-86164651D01*
X169171091Y-86078234D01*
X169245032Y-86029001D01*
X169332031Y-86023263D01*
X169422555Y-86067333D01*
X169423438Y-86068040D01*
X169464380Y-86132712D01*
X169483839Y-86229474D01*
X169611200Y-86229474D01*
X169608751Y-86180045D01*
X169612537Y-86057777D01*
X169626246Y-85951467D01*
X169649392Y-85880222D01*
X169714483Y-85820209D01*
X169805248Y-85799111D01*
X169898008Y-85820324D01*
X169928808Y-85840147D01*
X169957662Y-85871196D01*
X169975794Y-85916264D01*
X169985533Y-85987672D01*
X169989206Y-86097744D01*
X169989500Y-86161424D01*
X170119567Y-86161424D01*
X170117510Y-86005560D01*
X170118705Y-85819628D01*
X170125059Y-85682728D01*
X170139205Y-85587494D01*
X170163779Y-85526560D01*
X170201415Y-85492558D01*
X170254747Y-85478122D01*
X170307000Y-85475703D01*
X170375575Y-85480716D01*
X170425568Y-85500772D01*
X170459832Y-85543400D01*
X170481218Y-85616126D01*
X170492580Y-85726480D01*
X170496769Y-85881987D01*
X170497067Y-85977338D01*
X170625461Y-85977338D01*
X170624821Y-85922631D01*
X170624500Y-85790161D01*
X170624761Y-85582903D01*
X170626012Y-85424617D01*
X170628957Y-85307832D01*
X170634302Y-85225074D01*
X170642752Y-85168873D01*
X170655009Y-85131757D01*
X170671780Y-85106254D01*
X170690752Y-85087554D01*
X170765271Y-85044936D01*
X170839603Y-85047091D01*
X170889785Y-85060650D01*
X170928536Y-85080694D01*
X170957344Y-85114023D01*
X170977698Y-85167434D01*
X170991084Y-85247725D01*
X170998990Y-85361695D01*
X171002904Y-85516141D01*
X171004314Y-85717862D01*
X171004491Y-85800562D01*
X171005500Y-86440569D01*
X171154784Y-86440569D01*
X171151228Y-86421407D01*
X171144025Y-86337961D01*
X171138746Y-86216724D01*
X171135197Y-86053109D01*
X171133181Y-85842531D01*
X171132503Y-85580401D01*
X171132500Y-85561488D01*
X171132797Y-85308527D01*
X171133907Y-85106028D01*
X171136159Y-84948012D01*
X171139880Y-84828497D01*
X171145401Y-84741506D01*
X171153049Y-84681056D01*
X171163154Y-84641168D01*
X171176043Y-84615861D01*
X171185046Y-84605388D01*
X171269241Y-84560398D01*
X171368057Y-84562317D01*
X171428537Y-84589055D01*
X171443354Y-84602640D01*
X171455095Y-84625862D01*
X171464035Y-84664554D01*
X171470452Y-84724549D01*
X171474621Y-84811682D01*
X171476820Y-84931784D01*
X171477323Y-85090689D01*
X171608826Y-85090689D01*
X171608849Y-85026774D01*
X171609350Y-84797689D01*
X171610560Y-84613955D01*
X171612788Y-84470023D01*
X171616341Y-84360347D01*
X171621527Y-84279378D01*
X171628653Y-84221570D01*
X171638027Y-84181375D01*
X171649957Y-84153247D01*
X171664749Y-84131637D01*
X171674555Y-84120139D01*
X171759042Y-84058702D01*
X171849258Y-84052162D01*
X171936334Y-84100482D01*
X171956726Y-84121303D01*
X171973426Y-84141511D01*
X171987031Y-84164372D01*
X171997806Y-84195394D01*
X172006018Y-84240090D01*
X172011931Y-84303970D01*
X172015810Y-84392544D01*
X172017922Y-84511324D01*
X172018530Y-84665820D01*
X172118377Y-84665820D01*
X172118825Y-84569198D01*
X172120620Y-84338213D01*
X172122960Y-84134939D01*
X172125764Y-83965259D01*
X172128953Y-83835053D01*
X172132448Y-83750205D01*
X172135733Y-83717663D01*
X172176343Y-83659772D01*
X172233046Y-83619984D01*
X172301326Y-83597279D01*
X172364327Y-83609498D01*
X172397059Y-83624625D01*
X172481875Y-83666942D01*
X172633169Y-83666942D01*
X172633507Y-83654565D01*
X172640303Y-83526301D01*
X172649925Y-83428944D01*
X172662863Y-83358239D01*
X172679609Y-83309929D01*
X172700652Y-83279758D01*
X172726484Y-83263470D01*
X172757595Y-83256808D01*
X172794474Y-83255517D01*
X172815250Y-83255555D01*
X172855213Y-83255758D01*
X172889157Y-83259206D01*
X172917574Y-83270155D01*
X172940955Y-83292864D01*
X172959790Y-83331589D01*
X172974570Y-83390590D01*
X172985788Y-83474121D01*
X172993933Y-83586443D01*
X172999496Y-83731811D01*
X173002969Y-83914483D01*
X173004842Y-84138717D01*
X173005607Y-84408770D01*
X173005755Y-84728900D01*
X173132780Y-84728900D01*
X173132879Y-84465857D01*
X173133358Y-84172120D01*
X173134323Y-83926075D01*
X173135913Y-83723345D01*
X173138265Y-83559554D01*
X173141515Y-83430325D01*
X173145802Y-83331282D01*
X173151263Y-83258049D01*
X173158035Y-83206249D01*
X173166256Y-83171507D01*
X173176063Y-83149445D01*
X173185296Y-83137833D01*
X173268144Y-83094124D01*
X173367516Y-83092797D01*
X173455688Y-83132929D01*
X173467970Y-83145205D01*
X173478391Y-83163626D01*
X173487103Y-83192591D01*
X173494258Y-83236500D01*
X173500009Y-83299751D01*
X173504508Y-83386742D01*
X173507907Y-83501874D01*
X173510359Y-83649545D01*
X173512015Y-83834153D01*
X173513029Y-84060099D01*
X173513552Y-84331780D01*
X173513737Y-84653596D01*
X173513750Y-84810103D01*
X173640750Y-84810103D01*
X173640879Y-84465857D01*
X173641358Y-84172120D01*
X173642323Y-83926075D01*
X173643913Y-83723345D01*
X173646265Y-83559554D01*
X173649515Y-83430325D01*
X173653802Y-83331282D01*
X173659263Y-83258049D01*
X173666035Y-83206249D01*
X173674256Y-83171507D01*
X173684063Y-83149445D01*
X173693296Y-83137833D01*
X173777628Y-83092629D01*
X173877343Y-83095968D01*
X173944245Y-83126269D01*
X173957342Y-83136498D01*
X173968478Y-83151753D01*
X173977841Y-83176451D01*
X173985618Y-83215010D01*
X173991998Y-83271847D01*
X173997169Y-83351379D01*
X174001319Y-83458023D01*
X174004635Y-83596197D01*
X174007307Y-83770319D01*
X174009523Y-83984804D01*
X174011469Y-84244072D01*
X174013336Y-84552539D01*
X174014575Y-84777859D01*
X174016179Y-85166038D01*
X174016482Y-85499477D01*
X174149839Y-85499477D01*
X174149526Y-85438658D01*
X174148849Y-85116890D01*
X174148750Y-84906345D01*
X174148750Y-83346713D01*
X174227008Y-83301134D01*
X174306914Y-83263259D01*
X174367823Y-83265416D01*
X174435117Y-83310280D01*
X174451819Y-83324828D01*
X174529750Y-83394101D01*
X180657500Y-83394101D01*
X180657500Y-80772000D01*
X159924750Y-80772000D01*
X159924750Y-87912222D01*
X159924750Y-87912222D01*
G37*
X159924750Y-87912222D02*
X180657500Y-87912222D01*
X180657500Y-86374359D01*
X180514625Y-86374359D01*
X180505851Y-86454540D01*
X180472220Y-86500513D01*
X180438639Y-86519006D01*
X180337523Y-86538831D01*
X180237929Y-86504290D01*
X180220938Y-86493274D01*
X180193573Y-86448190D01*
X180181300Y-86376065D01*
X180181280Y-86374111D01*
X180054250Y-86374111D01*
X180031801Y-86428564D01*
X179977667Y-86486474D01*
X179911665Y-86531650D01*
X179853615Y-86547900D01*
X179843867Y-86545982D01*
X179784336Y-86531063D01*
X179766719Y-86529333D01*
X179726037Y-86504839D01*
X179690926Y-86446072D01*
X179670692Y-86375109D01*
X179670811Y-86373258D01*
X179534813Y-86373258D01*
X179516430Y-86447109D01*
X179459950Y-86503499D01*
X179378074Y-86533775D01*
X179283502Y-86529282D01*
X179204938Y-86493274D01*
X179175195Y-86443495D01*
X179167008Y-86372062D01*
X179038250Y-86372062D01*
X179011675Y-86453309D01*
X178944617Y-86509770D01*
X178856074Y-86535506D01*
X178765046Y-86524578D01*
X178696938Y-86478756D01*
X178662370Y-86400599D01*
X178672495Y-86329830D01*
X178525609Y-86329830D01*
X178524297Y-86363511D01*
X178509048Y-86449224D01*
X178473716Y-86498934D01*
X178435000Y-86521201D01*
X178365530Y-86549382D01*
X178318779Y-86550443D01*
X178264767Y-86521101D01*
X178232907Y-86499062D01*
X178167486Y-86424941D01*
X178145808Y-86336741D01*
X178160900Y-86262184D01*
X178017144Y-86262184D01*
X178015849Y-86292456D01*
X178008277Y-86397264D01*
X177994663Y-86460385D01*
X177969442Y-86496572D01*
X177930348Y-86519139D01*
X177827986Y-86537093D01*
X177735997Y-86503168D01*
X177679596Y-86441721D01*
X177653359Y-86362756D01*
X177647359Y-86261494D01*
X177659511Y-86158228D01*
X177687731Y-86073252D01*
X177721763Y-86031215D01*
X177820512Y-85995938D01*
X177917643Y-86010285D01*
X177971241Y-86046230D01*
X178001605Y-86090919D01*
X178015998Y-86157892D01*
X178017144Y-86262184D01*
X178160900Y-86262184D01*
X178163465Y-86249514D01*
X178216049Y-86178314D01*
X178299152Y-86138195D01*
X178339750Y-86134222D01*
X178440356Y-86157288D01*
X178503381Y-86223824D01*
X178525609Y-86329830D01*
X178672495Y-86329830D01*
X178674500Y-86315824D01*
X178724096Y-86242068D01*
X178801926Y-86196964D01*
X178847750Y-86190666D01*
X178929281Y-86215280D01*
X178999137Y-86275875D01*
X179036451Y-86352584D01*
X179038250Y-86372062D01*
X179167008Y-86372062D01*
X179166494Y-86367580D01*
X179179016Y-86292706D01*
X179203350Y-86252755D01*
X179280377Y-86219586D01*
X179376434Y-86221716D01*
X179464366Y-86255708D01*
X179502397Y-86290600D01*
X179534813Y-86373258D01*
X179670811Y-86373258D01*
X179674642Y-86314023D01*
X179675282Y-86312456D01*
X179729195Y-86246206D01*
X179811222Y-86200212D01*
X179863106Y-86190666D01*
X179915110Y-86211922D01*
X179977975Y-86262563D01*
X180031189Y-86322904D01*
X180054238Y-86373258D01*
X180054250Y-86374111D01*
X180181280Y-86374111D01*
X180181250Y-86371306D01*
X180198424Y-86288546D01*
X180259463Y-86231131D01*
X180264284Y-86228273D01*
X180330134Y-86197199D01*
X180384102Y-86200910D01*
X180430972Y-86221649D01*
X180488316Y-86262111D01*
X180511661Y-86320531D01*
X180514625Y-86374359D01*
X180657500Y-86374359D01*
X180657500Y-85970657D01*
X177510747Y-85970657D01*
X177509758Y-86078701D01*
X177507340Y-86169973D01*
X177502650Y-86307757D01*
X177496196Y-86399905D01*
X177485398Y-86457220D01*
X177467681Y-86490506D01*
X177440466Y-86510568D01*
X177424258Y-86518237D01*
X177317780Y-86538826D01*
X177223818Y-86505281D01*
X177179904Y-86463091D01*
X177155891Y-86402408D01*
X177140190Y-86303290D01*
X177133125Y-86183301D01*
X177135019Y-86060004D01*
X177142488Y-85987134D01*
X177038000Y-85987134D01*
X177035652Y-86146143D01*
X177029121Y-86282171D01*
X177019181Y-86384689D01*
X177006605Y-86443167D01*
X177004175Y-86448113D01*
X176932590Y-86515062D01*
X176835952Y-86537840D01*
X176732204Y-86513809D01*
X176696688Y-86493274D01*
X176680451Y-86463756D01*
X176668820Y-86397333D01*
X176661358Y-86288647D01*
X176657629Y-86132344D01*
X176657000Y-86005782D01*
X176658309Y-85816501D01*
X176659663Y-85782727D01*
X176530000Y-85782727D01*
X176530000Y-86419010D01*
X176450097Y-86490035D01*
X176359387Y-86540241D01*
X176268449Y-86535494D01*
X176188688Y-86478756D01*
X176174831Y-86445766D01*
X176164249Y-86378801D01*
X176156664Y-86272996D01*
X176151803Y-86123489D01*
X176149389Y-85925415D01*
X176149383Y-85923036D01*
X176017081Y-85923036D01*
X176016349Y-86102965D01*
X176014533Y-86251964D01*
X176011704Y-86362556D01*
X176007933Y-86427266D01*
X176006121Y-86438832D01*
X175960304Y-86504311D01*
X175880884Y-86538095D01*
X175788612Y-86537674D01*
X175704236Y-86500539D01*
X175680257Y-86478232D01*
X175668606Y-86451720D01*
X175659584Y-86398419D01*
X175653029Y-86313474D01*
X175648779Y-86192031D01*
X175646671Y-86029235D01*
X175646542Y-85820233D01*
X175648230Y-85560170D01*
X175648507Y-85529653D01*
X175650603Y-85303328D01*
X175513514Y-85303328D01*
X175513466Y-85594724D01*
X175512697Y-85834819D01*
X175510677Y-86028757D01*
X175506879Y-86181682D01*
X175500775Y-86298736D01*
X175491837Y-86385064D01*
X175479537Y-86445809D01*
X175463346Y-86486115D01*
X175442737Y-86511125D01*
X175417182Y-86525982D01*
X175387000Y-86535604D01*
X175287540Y-86535191D01*
X175199707Y-86485192D01*
X175179654Y-86463091D01*
X175167535Y-86440036D01*
X175157640Y-86401165D01*
X175149758Y-86341281D01*
X175143681Y-86255188D01*
X175139197Y-86137690D01*
X175136098Y-85983588D01*
X175134174Y-85787687D01*
X175133215Y-85544789D01*
X175133000Y-85307642D01*
X175133855Y-85004219D01*
X175136367Y-84742721D01*
X175140461Y-84525822D01*
X175143212Y-84442488D01*
X175000181Y-84442488D01*
X174999969Y-84734916D01*
X174998432Y-85080963D01*
X174998365Y-85092386D01*
X174990125Y-86485342D01*
X174916008Y-86518183D01*
X174809572Y-86538822D01*
X174715621Y-86505320D01*
X174671654Y-86463091D01*
X174659238Y-86419209D01*
X174648499Y-86325818D01*
X174639430Y-86189836D01*
X174632023Y-86018178D01*
X174626271Y-85817762D01*
X174622169Y-85595504D01*
X174619709Y-85358321D01*
X174618883Y-85113129D01*
X174619686Y-84866844D01*
X174622110Y-84626383D01*
X174626149Y-84398663D01*
X174631795Y-84190600D01*
X174639041Y-84009110D01*
X174647882Y-83861111D01*
X174658309Y-83753518D01*
X174670316Y-83693249D01*
X174674426Y-83685168D01*
X174741359Y-83640151D01*
X174833041Y-83621707D01*
X174921844Y-83632094D01*
X174970665Y-83660937D01*
X174979514Y-83689017D01*
X174986720Y-83754326D01*
X174992338Y-83859597D01*
X174996418Y-84007559D01*
X174999015Y-84200946D01*
X175000181Y-84442488D01*
X175143212Y-84442488D01*
X175146062Y-84356193D01*
X175153095Y-84236507D01*
X175161484Y-84169437D01*
X175165478Y-84157458D01*
X175236844Y-84088475D01*
X175328678Y-84063943D01*
X175421769Y-84084793D01*
X175489702Y-84141724D01*
X175494812Y-84175903D01*
X175499560Y-84260336D01*
X175503818Y-84388832D01*
X175507460Y-84555202D01*
X175510357Y-84753254D01*
X175512385Y-84976799D01*
X175513415Y-85219645D01*
X175513514Y-85303328D01*
X175650603Y-85303328D01*
X175656875Y-84626476D01*
X175744188Y-84583071D01*
X175813257Y-84555607D01*
X175869444Y-84561105D01*
X175918813Y-84583070D01*
X176006125Y-84626474D01*
X176015008Y-85500292D01*
X176016657Y-85719653D01*
X176017081Y-85923036D01*
X176149383Y-85923036D01*
X176149000Y-85777650D01*
X176149170Y-85568802D01*
X176150163Y-85409179D01*
X176152709Y-85291562D01*
X176157533Y-85208730D01*
X176165364Y-85153466D01*
X176176930Y-85118548D01*
X176192957Y-85096759D01*
X176214174Y-85080878D01*
X176219565Y-85077489D01*
X176320488Y-85037422D01*
X176411257Y-85052147D01*
X176466500Y-85090000D01*
X176487060Y-85111326D01*
X176502640Y-85138914D01*
X176513926Y-85180254D01*
X176521605Y-85242836D01*
X176526364Y-85334152D01*
X176528890Y-85461690D01*
X176529868Y-85632942D01*
X176530000Y-85782727D01*
X176659663Y-85782727D01*
X176663929Y-85676342D01*
X176676400Y-85578006D01*
X176698261Y-85514193D01*
X176732052Y-85477602D01*
X176780312Y-85460935D01*
X176845583Y-85456891D01*
X176847968Y-85456888D01*
X176915200Y-85463596D01*
X176964791Y-85488459D01*
X176999288Y-85538588D01*
X177021242Y-85621093D01*
X177033199Y-85743087D01*
X177037709Y-85911678D01*
X177038000Y-85987134D01*
X177142488Y-85987134D01*
X177146196Y-85950959D01*
X177166978Y-85873730D01*
X177168984Y-85869609D01*
X177233389Y-85803058D01*
X177325114Y-85779037D01*
X177424754Y-85801852D01*
X177439264Y-85809627D01*
X177472674Y-85831573D01*
X177494317Y-85858274D01*
X177506304Y-85900908D01*
X177510747Y-85970657D01*
X180657500Y-85970657D01*
X180657500Y-83394101D01*
X174529750Y-83394101D01*
X174529750Y-84893016D01*
X174529117Y-85280763D01*
X174527211Y-85612435D01*
X174524026Y-85888390D01*
X174519553Y-86108986D01*
X174513784Y-86274583D01*
X174506712Y-86385539D01*
X174498329Y-86442211D01*
X174495925Y-86448113D01*
X174424340Y-86515062D01*
X174327702Y-86537840D01*
X174223954Y-86513809D01*
X174188438Y-86493274D01*
X174179467Y-86475216D01*
X174171852Y-86431931D01*
X174165501Y-86359778D01*
X174160323Y-86255121D01*
X174156228Y-86114319D01*
X174153124Y-85933734D01*
X174150920Y-85709726D01*
X174149839Y-85499477D01*
X174016482Y-85499477D01*
X174015458Y-85779866D01*
X174013080Y-86008898D01*
X174009322Y-86188265D01*
X174004158Y-86319659D01*
X173997561Y-86404771D01*
X173989506Y-86445294D01*
X173988687Y-86446848D01*
X173918309Y-86514108D01*
X173826619Y-86538581D01*
X173733877Y-86518243D01*
X173680438Y-86477662D01*
X173671589Y-86455552D01*
X173664052Y-86407883D01*
X173657741Y-86331089D01*
X173652572Y-86221609D01*
X173648460Y-86075879D01*
X173645320Y-85890336D01*
X173643067Y-85661417D01*
X173641616Y-85385559D01*
X173640883Y-85059199D01*
X173640750Y-84811661D01*
X173640750Y-84810103D01*
X173513750Y-84810103D01*
X173513750Y-86440569D01*
X173433998Y-86496332D01*
X173335963Y-86535731D01*
X173239331Y-86524712D01*
X173172438Y-86478003D01*
X173163588Y-86455804D01*
X173156050Y-86408035D01*
X173149739Y-86331131D01*
X173144569Y-86221529D01*
X173140457Y-86075667D01*
X173137317Y-85889983D01*
X173135064Y-85660912D01*
X173133614Y-85384893D01*
X173132882Y-85058363D01*
X173132750Y-84811661D01*
X173132780Y-84728900D01*
X173005755Y-84728900D01*
X173005750Y-84907441D01*
X173005695Y-85248313D01*
X173005273Y-85537135D01*
X173004098Y-85778301D01*
X173001785Y-85976204D01*
X172997949Y-86135238D01*
X172992204Y-86259797D01*
X172984164Y-86354275D01*
X172973444Y-86423066D01*
X172959659Y-86470564D01*
X172942423Y-86501163D01*
X172921351Y-86519256D01*
X172896057Y-86529238D01*
X172866155Y-86535503D01*
X172862875Y-86536098D01*
X172794598Y-86539561D01*
X172732208Y-86514737D01*
X172680313Y-86478333D01*
X172668181Y-86466016D01*
X172657947Y-86446101D01*
X172649451Y-86414064D01*
X172642532Y-86365381D01*
X172637030Y-86295527D01*
X172632786Y-86199977D01*
X172629638Y-86074208D01*
X172627428Y-85913695D01*
X172625994Y-85713913D01*
X172625178Y-85470338D01*
X172624818Y-85178446D01*
X172624750Y-84908461D01*
X172624774Y-84561817D01*
X172625170Y-84267362D01*
X172626431Y-84020839D01*
X172629046Y-83817992D01*
X172633169Y-83666942D01*
X172481875Y-83666942D01*
X172481875Y-86485333D01*
X172407758Y-86518179D01*
X172301326Y-86538822D01*
X172207376Y-86505323D01*
X172163404Y-86463091D01*
X172152281Y-86441824D01*
X172143029Y-86405609D01*
X172135487Y-86349713D01*
X172129498Y-86269402D01*
X172124901Y-86159943D01*
X172121537Y-86016604D01*
X172119246Y-85834652D01*
X172117870Y-85609352D01*
X172117249Y-85335973D01*
X172117184Y-85090775D01*
X172117653Y-84822013D01*
X172118377Y-84665820D01*
X172018530Y-84665820D01*
X172017901Y-84861542D01*
X172016300Y-85104003D01*
X172014593Y-85323262D01*
X172005625Y-86449696D01*
X171930671Y-86503626D01*
X171846007Y-86549349D01*
X171773045Y-86546484D01*
X171693021Y-86493851D01*
X171686682Y-86488282D01*
X171608750Y-86419010D01*
X171608750Y-85306755D01*
X171608826Y-85090689D01*
X171477323Y-85090689D01*
X171476409Y-85294231D01*
X171474352Y-85548242D01*
X171474293Y-85554843D01*
X171465875Y-86485353D01*
X171389889Y-86519017D01*
X171288763Y-86538831D01*
X171189163Y-86504280D01*
X171172188Y-86493274D01*
X171160550Y-86471649D01*
X171154784Y-86440569D01*
X171005500Y-86440569D01*
X170925748Y-86496332D01*
X170827713Y-86535731D01*
X170731081Y-86524712D01*
X170664188Y-86478003D01*
X170650205Y-86445041D01*
X170639558Y-86377910D01*
X170631967Y-86271723D01*
X170627148Y-86121593D01*
X170625461Y-85977338D01*
X170497067Y-85977338D01*
X170495877Y-86159863D01*
X170491545Y-86294144D01*
X170482245Y-86388370D01*
X170466150Y-86450729D01*
X170441432Y-86489411D01*
X170406265Y-86512604D01*
X170375139Y-86523801D01*
X170266672Y-86536619D01*
X170181978Y-86499039D01*
X170157198Y-86474637D01*
X170139487Y-86427183D01*
X170127091Y-86329894D01*
X170119819Y-86180527D01*
X170119567Y-86161424D01*
X169989500Y-86161424D01*
X169985509Y-86312187D01*
X169971416Y-86416201D01*
X169944045Y-86482823D01*
X169900221Y-86521412D01*
X169862500Y-86535604D01*
X169763040Y-86535191D01*
X169675207Y-86485192D01*
X169655154Y-86463091D01*
X169630237Y-86400654D01*
X169614710Y-86300322D01*
X169611200Y-86229474D01*
X169483839Y-86229474D01*
X169482078Y-86337384D01*
X169459361Y-86435501D01*
X169418000Y-86501111D01*
X169340244Y-86549387D01*
X169265168Y-86545981D01*
X169180649Y-86490243D01*
X169178432Y-86488282D01*
X169126484Y-86426883D01*
X169103843Y-86350340D01*
X169103127Y-86335675D01*
X168968763Y-86335675D01*
X168967503Y-86364309D01*
X168951767Y-86450504D01*
X168915556Y-86500023D01*
X168881639Y-86519180D01*
X168780355Y-86538836D01*
X168680637Y-86504112D01*
X168663938Y-86493274D01*
X168637399Y-86446440D01*
X168625850Y-86368628D01*
X168625998Y-86365088D01*
X168497250Y-86365088D01*
X168475846Y-86420748D01*
X168423680Y-86484236D01*
X168417347Y-86490035D01*
X168326637Y-86540241D01*
X168235699Y-86535494D01*
X168155938Y-86478756D01*
X168119754Y-86399945D01*
X168124580Y-86340632D01*
X167983567Y-86340632D01*
X167964246Y-86420944D01*
X167910801Y-86487181D01*
X167835541Y-86530388D01*
X167750776Y-86541611D01*
X167668816Y-86511896D01*
X167639100Y-86486035D01*
X167619611Y-86436165D01*
X167612908Y-86356469D01*
X167614248Y-86327468D01*
X167617492Y-86309691D01*
X167477741Y-86309691D01*
X167472094Y-86405083D01*
X167447330Y-86462383D01*
X167382064Y-86521278D01*
X167295923Y-86539777D01*
X167208795Y-86520762D01*
X167140570Y-86467115D01*
X167115596Y-86414301D01*
X167107751Y-86303539D01*
X166968429Y-86303539D01*
X166967190Y-86349281D01*
X166954845Y-86438071D01*
X166927683Y-86489407D01*
X166878000Y-86521188D01*
X166808533Y-86549379D01*
X166761783Y-86550444D01*
X166707770Y-86521103D01*
X166675907Y-86499062D01*
X166612563Y-86426308D01*
X166589269Y-86336553D01*
X166598074Y-86273353D01*
X166460546Y-86273353D01*
X166459008Y-86353232D01*
X166445902Y-86441586D01*
X166416695Y-86492333D01*
X166373389Y-86519167D01*
X166272117Y-86538836D01*
X166172408Y-86504125D01*
X166155688Y-86493274D01*
X166131371Y-86448374D01*
X166118734Y-86369388D01*
X166117873Y-86277728D01*
X166119237Y-86267452D01*
X165971564Y-86267452D01*
X165971475Y-86375413D01*
X165932690Y-86461764D01*
X165866759Y-86520024D01*
X165785235Y-86543711D01*
X165699669Y-86526343D01*
X165622904Y-86463091D01*
X165577654Y-86367925D01*
X165578149Y-86295673D01*
X165481000Y-86295673D01*
X165459820Y-86412507D01*
X165402932Y-86494832D01*
X165320320Y-86536869D01*
X165221966Y-86532838D01*
X165139688Y-86493274D01*
X165112905Y-86445923D01*
X165100532Y-86365125D01*
X165101272Y-86321012D01*
X164973000Y-86321012D01*
X164963378Y-86409692D01*
X164926482Y-86469063D01*
X164888637Y-86499557D01*
X164789953Y-86540771D01*
X164696439Y-86527767D01*
X164631688Y-86478756D01*
X164602489Y-86411902D01*
X164596010Y-86345203D01*
X164458440Y-86345203D01*
X164447072Y-86434887D01*
X164421978Y-86486759D01*
X164373836Y-86519316D01*
X164369750Y-86521175D01*
X164300286Y-86549375D01*
X164253536Y-86550445D01*
X164199524Y-86521105D01*
X164167657Y-86499062D01*
X164111183Y-86446578D01*
X164087375Y-86379740D01*
X164084374Y-86324528D01*
X163957000Y-86324528D01*
X163936212Y-86440713D01*
X163875249Y-86516348D01*
X163830000Y-86537969D01*
X163767381Y-86552349D01*
X163719703Y-86540058D01*
X163659714Y-86493405D01*
X163653932Y-86488282D01*
X163590444Y-86401268D01*
X163572791Y-86305887D01*
X163589562Y-86241736D01*
X163443133Y-86241736D01*
X163442812Y-86335856D01*
X163431934Y-86428926D01*
X163409375Y-86482773D01*
X163367271Y-86514513D01*
X163359008Y-86518326D01*
X163252461Y-86538831D01*
X163158480Y-86505216D01*
X163114654Y-86463091D01*
X163069404Y-86367925D01*
X163069546Y-86347128D01*
X162972612Y-86347128D01*
X162947920Y-86440927D01*
X162920205Y-86477722D01*
X162848325Y-86515379D01*
X162753220Y-86528520D01*
X162665116Y-86515297D01*
X162629850Y-86495466D01*
X162606483Y-86447999D01*
X162593034Y-86368981D01*
X162591750Y-86335411D01*
X162593772Y-86323088D01*
X162460656Y-86323088D01*
X162444972Y-86412752D01*
X162389962Y-86487910D01*
X162308982Y-86530194D01*
X162220618Y-86536507D01*
X162143458Y-86503747D01*
X162112659Y-86468168D01*
X162085102Y-86371092D01*
X162088236Y-86350896D01*
X161955741Y-86350896D01*
X161932170Y-86441257D01*
X161870116Y-86505577D01*
X161785985Y-86537690D01*
X161696184Y-86531430D01*
X161617122Y-86480635D01*
X161615438Y-86478756D01*
X161582623Y-86404881D01*
X161582132Y-86390740D01*
X161444109Y-86390740D01*
X161418039Y-86470193D01*
X161354618Y-86524786D01*
X161344613Y-86528766D01*
X161276665Y-86550289D01*
X161230922Y-86547780D01*
X161176505Y-86516492D01*
X161151407Y-86499062D01*
X161082123Y-86421149D01*
X161080418Y-86406618D01*
X160933760Y-86406618D01*
X160897792Y-86482737D01*
X160850758Y-86518368D01*
X160744503Y-86538841D01*
X160651252Y-86505309D01*
X160603882Y-86457999D01*
X160580247Y-86397996D01*
X160448538Y-86397996D01*
X160408495Y-86479113D01*
X160327487Y-86529136D01*
X160266209Y-86550130D01*
X160230737Y-86551650D01*
X160187139Y-86533357D01*
X160175143Y-86527617D01*
X160101653Y-86463823D01*
X160071538Y-86375052D01*
X160089057Y-86289875D01*
X160153132Y-86220693D01*
X160240117Y-86193262D01*
X160330941Y-86206982D01*
X160406532Y-86261253D01*
X160431390Y-86300636D01*
X160448538Y-86397996D01*
X160580247Y-86397996D01*
X160571085Y-86374738D01*
X160586627Y-86297264D01*
X160637845Y-86235012D01*
X160712073Y-86197419D01*
X160796648Y-86193921D01*
X160878907Y-86233956D01*
X160890438Y-86244471D01*
X160932381Y-86319794D01*
X160933760Y-86406618D01*
X161080418Y-86406618D01*
X161071729Y-86332613D01*
X161120373Y-86244266D01*
X161147586Y-86218504D01*
X161213705Y-86174266D01*
X161274372Y-86168850D01*
X161313708Y-86178809D01*
X161390392Y-86227491D01*
X161434376Y-86303987D01*
X161444109Y-86390740D01*
X161582132Y-86390740D01*
X161579305Y-86309424D01*
X161606233Y-86221129D01*
X161608618Y-86217033D01*
X161661566Y-86174999D01*
X161755930Y-86162444D01*
X161865606Y-86181770D01*
X161931416Y-86241130D01*
X161955559Y-86342599D01*
X161955741Y-86350896D01*
X162088236Y-86350896D01*
X162101358Y-86266337D01*
X162155883Y-86177946D01*
X162185121Y-86153888D01*
X162247705Y-86117609D01*
X162293311Y-86115542D01*
X162351304Y-86144386D01*
X162430319Y-86221446D01*
X162460656Y-86323088D01*
X162593772Y-86323088D01*
X162610795Y-86219361D01*
X162662150Y-86141987D01*
X162737147Y-86108027D01*
X162827116Y-86122219D01*
X162899267Y-86167363D01*
X162955858Y-86247998D01*
X162972612Y-86347128D01*
X163069546Y-86347128D01*
X163070073Y-86270395D01*
X163110361Y-86184771D01*
X163183969Y-86125326D01*
X163272288Y-86106000D01*
X163365360Y-86118305D01*
X163420249Y-86160775D01*
X163443133Y-86241736D01*
X163589562Y-86241736D01*
X163596280Y-86216040D01*
X163656215Y-86145628D01*
X163747900Y-86108553D01*
X163783059Y-86106000D01*
X163874877Y-86121722D01*
X163930285Y-86173417D01*
X163954691Y-86267875D01*
X163957000Y-86324528D01*
X164084374Y-86324528D01*
X164084000Y-86317666D01*
X164092796Y-86228659D01*
X164126892Y-86169829D01*
X164168364Y-86135776D01*
X164266178Y-86091831D01*
X164351143Y-86098838D01*
X164415950Y-86151522D01*
X164453292Y-86244606D01*
X164458440Y-86345203D01*
X164596010Y-86345203D01*
X164593324Y-86317564D01*
X164603920Y-86221737D01*
X164634006Y-86150420D01*
X164635131Y-86149023D01*
X164703673Y-86107603D01*
X164796739Y-86096828D01*
X164885532Y-86116699D01*
X164929870Y-86149023D01*
X164957365Y-86210068D01*
X164972174Y-86296726D01*
X164973000Y-86321012D01*
X165101272Y-86321012D01*
X165102090Y-86272303D01*
X165117098Y-86188881D01*
X165145077Y-86136283D01*
X165147723Y-86134150D01*
X165239271Y-86097373D01*
X165334163Y-86106514D01*
X165416284Y-86153763D01*
X165469518Y-86231308D01*
X165481000Y-86295673D01*
X165578149Y-86295673D01*
X165578323Y-86270395D01*
X165618611Y-86184771D01*
X165692219Y-86125326D01*
X165780538Y-86106000D01*
X165877355Y-86119787D01*
X165936553Y-86167929D01*
X165970165Y-86260595D01*
X165971564Y-86267452D01*
X166119237Y-86267452D01*
X166128886Y-86194806D01*
X166151867Y-86142034D01*
X166154101Y-86139866D01*
X166210855Y-86116093D01*
X166294516Y-86106002D01*
X166295858Y-86106000D01*
X166385781Y-86122812D01*
X166439501Y-86176814D01*
X166460546Y-86273353D01*
X166598074Y-86273353D01*
X166602039Y-86244896D01*
X166646889Y-86166437D01*
X166719834Y-86116277D01*
X166779630Y-86106000D01*
X166882285Y-86128118D01*
X166945348Y-86194134D01*
X166968429Y-86303539D01*
X167107751Y-86303539D01*
X167107113Y-86294535D01*
X167141886Y-86198437D01*
X167215584Y-86137686D01*
X167218657Y-86136408D01*
X167309057Y-86124791D01*
X167387911Y-86157697D01*
X167446910Y-86223280D01*
X167477741Y-86309691D01*
X167617492Y-86309691D01*
X167629978Y-86241285D01*
X167666180Y-86191768D01*
X167700153Y-86172578D01*
X167802475Y-86154591D01*
X167895207Y-86189500D01*
X167956452Y-86255199D01*
X167983567Y-86340632D01*
X168124580Y-86340632D01*
X168126918Y-86311899D01*
X168169364Y-86231803D01*
X168239023Y-86176838D01*
X168304446Y-86162444D01*
X168369324Y-86185904D01*
X168435429Y-86243047D01*
X168483870Y-86314021D01*
X168497250Y-86365088D01*
X168625998Y-86365088D01*
X168629420Y-86283738D01*
X168648235Y-86215668D01*
X168662351Y-86196311D01*
X168728204Y-86169341D01*
X168818893Y-86164264D01*
X168902892Y-86180354D01*
X168939803Y-86202692D01*
X168961108Y-86254648D01*
X168968763Y-86335675D01*
X169103127Y-86335675D01*
X169100500Y-86281937D01*
X169119737Y-86164651D01*
X169171091Y-86078234D01*
X169245032Y-86029001D01*
X169332031Y-86023263D01*
X169422555Y-86067333D01*
X169423438Y-86068040D01*
X169464380Y-86132712D01*
X169483839Y-86229474D01*
X169611200Y-86229474D01*
X169608751Y-86180045D01*
X169612537Y-86057777D01*
X169626246Y-85951467D01*
X169649392Y-85880222D01*
X169714483Y-85820209D01*
X169805248Y-85799111D01*
X169898008Y-85820324D01*
X169928808Y-85840147D01*
X169957662Y-85871196D01*
X169975794Y-85916264D01*
X169985533Y-85987672D01*
X169989206Y-86097744D01*
X169989500Y-86161424D01*
X170119567Y-86161424D01*
X170117510Y-86005560D01*
X170118705Y-85819628D01*
X170125059Y-85682728D01*
X170139205Y-85587494D01*
X170163779Y-85526560D01*
X170201415Y-85492558D01*
X170254747Y-85478122D01*
X170307000Y-85475703D01*
X170375575Y-85480716D01*
X170425568Y-85500772D01*
X170459832Y-85543400D01*
X170481218Y-85616126D01*
X170492580Y-85726480D01*
X170496769Y-85881987D01*
X170497067Y-85977338D01*
X170625461Y-85977338D01*
X170624821Y-85922631D01*
X170624500Y-85790161D01*
X170624761Y-85582903D01*
X170626012Y-85424617D01*
X170628957Y-85307832D01*
X170634302Y-85225074D01*
X170642752Y-85168873D01*
X170655009Y-85131757D01*
X170671780Y-85106254D01*
X170690752Y-85087554D01*
X170765271Y-85044936D01*
X170839603Y-85047091D01*
X170889785Y-85060650D01*
X170928536Y-85080694D01*
X170957344Y-85114023D01*
X170977698Y-85167434D01*
X170991084Y-85247725D01*
X170998990Y-85361695D01*
X171002904Y-85516141D01*
X171004314Y-85717862D01*
X171004491Y-85800562D01*
X171005500Y-86440569D01*
X171154784Y-86440569D01*
X171151228Y-86421407D01*
X171144025Y-86337961D01*
X171138746Y-86216724D01*
X171135197Y-86053109D01*
X171133181Y-85842531D01*
X171132503Y-85580401D01*
X171132500Y-85561488D01*
X171132797Y-85308527D01*
X171133907Y-85106028D01*
X171136159Y-84948012D01*
X171139880Y-84828497D01*
X171145401Y-84741506D01*
X171153049Y-84681056D01*
X171163154Y-84641168D01*
X171176043Y-84615861D01*
X171185046Y-84605388D01*
X171269241Y-84560398D01*
X171368057Y-84562317D01*
X171428537Y-84589055D01*
X171443354Y-84602640D01*
X171455095Y-84625862D01*
X171464035Y-84664554D01*
X171470452Y-84724549D01*
X171474621Y-84811682D01*
X171476820Y-84931784D01*
X171477323Y-85090689D01*
X171608826Y-85090689D01*
X171608849Y-85026774D01*
X171609350Y-84797689D01*
X171610560Y-84613955D01*
X171612788Y-84470023D01*
X171616341Y-84360347D01*
X171621527Y-84279378D01*
X171628653Y-84221570D01*
X171638027Y-84181375D01*
X171649957Y-84153247D01*
X171664749Y-84131637D01*
X171674555Y-84120139D01*
X171759042Y-84058702D01*
X171849258Y-84052162D01*
X171936334Y-84100482D01*
X171956726Y-84121303D01*
X171973426Y-84141511D01*
X171987031Y-84164372D01*
X171997806Y-84195394D01*
X172006018Y-84240090D01*
X172011931Y-84303970D01*
X172015810Y-84392544D01*
X172017922Y-84511324D01*
X172018530Y-84665820D01*
X172118377Y-84665820D01*
X172118825Y-84569198D01*
X172120620Y-84338213D01*
X172122960Y-84134939D01*
X172125764Y-83965259D01*
X172128953Y-83835053D01*
X172132448Y-83750205D01*
X172135733Y-83717663D01*
X172176343Y-83659772D01*
X172233046Y-83619984D01*
X172301326Y-83597279D01*
X172364327Y-83609498D01*
X172397059Y-83624625D01*
X172481875Y-83666942D01*
X172633169Y-83666942D01*
X172633507Y-83654565D01*
X172640303Y-83526301D01*
X172649925Y-83428944D01*
X172662863Y-83358239D01*
X172679609Y-83309929D01*
X172700652Y-83279758D01*
X172726484Y-83263470D01*
X172757595Y-83256808D01*
X172794474Y-83255517D01*
X172815250Y-83255555D01*
X172855213Y-83255758D01*
X172889157Y-83259206D01*
X172917574Y-83270155D01*
X172940955Y-83292864D01*
X172959790Y-83331589D01*
X172974570Y-83390590D01*
X172985788Y-83474121D01*
X172993933Y-83586443D01*
X172999496Y-83731811D01*
X173002969Y-83914483D01*
X173004842Y-84138717D01*
X173005607Y-84408770D01*
X173005755Y-84728900D01*
X173132780Y-84728900D01*
X173132879Y-84465857D01*
X173133358Y-84172120D01*
X173134323Y-83926075D01*
X173135913Y-83723345D01*
X173138265Y-83559554D01*
X173141515Y-83430325D01*
X173145802Y-83331282D01*
X173151263Y-83258049D01*
X173158035Y-83206249D01*
X173166256Y-83171507D01*
X173176063Y-83149445D01*
X173185296Y-83137833D01*
X173268144Y-83094124D01*
X173367516Y-83092797D01*
X173455688Y-83132929D01*
X173467970Y-83145205D01*
X173478391Y-83163626D01*
X173487103Y-83192591D01*
X173494258Y-83236500D01*
X173500009Y-83299751D01*
X173504508Y-83386742D01*
X173507907Y-83501874D01*
X173510359Y-83649545D01*
X173512015Y-83834153D01*
X173513029Y-84060099D01*
X173513552Y-84331780D01*
X173513737Y-84653596D01*
X173513750Y-84810103D01*
X173640750Y-84810103D01*
X173640879Y-84465857D01*
X173641358Y-84172120D01*
X173642323Y-83926075D01*
X173643913Y-83723345D01*
X173646265Y-83559554D01*
X173649515Y-83430325D01*
X173653802Y-83331282D01*
X173659263Y-83258049D01*
X173666035Y-83206249D01*
X173674256Y-83171507D01*
X173684063Y-83149445D01*
X173693296Y-83137833D01*
X173777628Y-83092629D01*
X173877343Y-83095968D01*
X173944245Y-83126269D01*
X173957342Y-83136498D01*
X173968478Y-83151753D01*
X173977841Y-83176451D01*
X173985618Y-83215010D01*
X173991998Y-83271847D01*
X173997169Y-83351379D01*
X174001319Y-83458023D01*
X174004635Y-83596197D01*
X174007307Y-83770319D01*
X174009523Y-83984804D01*
X174011469Y-84244072D01*
X174013336Y-84552539D01*
X174014575Y-84777859D01*
X174016179Y-85166038D01*
X174016482Y-85499477D01*
X174149839Y-85499477D01*
X174149526Y-85438658D01*
X174148849Y-85116890D01*
X174148750Y-84906345D01*
X174148750Y-83346713D01*
X174227008Y-83301134D01*
X174306914Y-83263259D01*
X174367823Y-83265416D01*
X174435117Y-83310280D01*
X174451819Y-83324828D01*
X174529750Y-83394101D01*
X180657500Y-83394101D01*
X180657500Y-80772000D01*
X159924750Y-80772000D01*
X159924750Y-87912222D01*
D14*
X176783905Y-75652381D02*
X176783905Y-76461905D01*
X176736286Y-76557143D01*
X176688667Y-76604762D01*
X176593429Y-76652381D01*
X176402952Y-76652381D01*
X176307714Y-76604762D01*
X176260095Y-76557143D01*
X176212476Y-76461905D01*
X176212476Y-75652381D01*
X175783905Y-75747619D02*
X175736286Y-75700000D01*
X175641048Y-75652381D01*
X175402952Y-75652381D01*
X175307714Y-75700000D01*
X175260095Y-75747619D01*
X175212476Y-75842857D01*
X175212476Y-75938095D01*
X175260095Y-76080952D01*
X175831524Y-76652381D01*
X175212476Y-76652381D01*
M02*
