G04 #@! TF.FileFunction,Soldermask,Top*
%FSLAX46Y46*%
G04 Gerber Fmt 4.6, Leading zero omitted, Abs format (unit mm)*
G04 Created by KiCad (PCBNEW 4.0.5) date 12/26/17 14:51:36*
%MOMM*%
%LPD*%
G01*
G04 APERTURE LIST*
%ADD10C,0.100000*%
%ADD11R,1.150000X1.600000*%
%ADD12R,2.200000X2.630000*%
%ADD13R,1.600000X1.150000*%
%ADD14R,2.432000X2.432000*%
%ADD15O,2.432000X2.432000*%
%ADD16R,2.127200X2.432000*%
%ADD17O,2.127200X2.432000*%
%ADD18R,1.300000X1.600000*%
%ADD19R,1.600000X1.300000*%
%ADD20R,0.831800X1.822400*%
%ADD21R,2.279600X1.974800*%
%ADD22C,6.800000*%
%ADD23C,1.900000*%
G04 APERTURE END LIST*
D10*
D11*
X143510000Y-75250000D03*
X143510000Y-77150000D03*
D12*
X148400000Y-73660000D03*
X151320000Y-73660000D03*
X148400000Y-78740000D03*
X151320000Y-78740000D03*
D13*
X160340000Y-76200000D03*
X162240000Y-76200000D03*
X166050000Y-69850000D03*
X164150000Y-69850000D03*
X166050000Y-82550000D03*
X164150000Y-82550000D03*
X176210000Y-71120000D03*
X174310000Y-71120000D03*
X169230000Y-80645000D03*
X171130000Y-80645000D03*
D14*
X173990000Y-67310000D03*
D15*
X176530000Y-67310000D03*
D16*
X148590000Y-67310000D03*
D17*
X151130000Y-67310000D03*
X153670000Y-67310000D03*
D18*
X146050000Y-77300000D03*
X146050000Y-75100000D03*
X143510000Y-82380000D03*
X143510000Y-80180000D03*
D19*
X157310000Y-73660000D03*
X155110000Y-73660000D03*
X157310000Y-78740000D03*
X155110000Y-78740000D03*
X162390000Y-73660000D03*
X160190000Y-73660000D03*
X162390000Y-78740000D03*
X160190000Y-78740000D03*
X166200000Y-67310000D03*
X164000000Y-67310000D03*
X166200000Y-85090000D03*
X164000000Y-85090000D03*
X157015000Y-67310000D03*
X159215000Y-67310000D03*
D20*
X165404800Y-78384400D03*
X166039800Y-78384400D03*
X166700200Y-78384400D03*
X167335200Y-78384400D03*
X167335200Y-74015600D03*
X166700200Y-74015600D03*
X166039800Y-74015600D03*
X165404800Y-74015600D03*
D21*
X166370000Y-76200000D03*
D22*
X137160000Y-63500000D03*
X187960000Y-63500000D03*
X137160000Y-88900000D03*
X187960000Y-88900000D03*
D23*
X140970000Y-73660000D03*
X140970000Y-76200000D03*
X140970000Y-78740000D03*
X184150000Y-73660000D03*
X184150000Y-76200000D03*
X184150000Y-78740000D03*
M02*
