M48
;DRILL file {KiCad 4.0.5} date 12/26/17 14:51:40
;FORMAT={-:-/ absolute / metric / decimal}
FMAT,2
METRIC,TZ
T1C0.400
T2C0.900
T3C1.016
T4C3.200
%
G90
G05
M71
T1
X140.335Y-66.675
X140.335Y-85.725
X164.084Y-72.136
X164.084Y-81.407
X165.608Y-79.629
X166.624Y-80.645
X168.021Y-80.645
X168.656Y-78.994
X173.99Y-75.565
X173.99Y-76.835
X184.912Y-66.675
X184.912Y-85.852
T2
X140.97Y-73.66
X140.97Y-76.2
X140.97Y-78.74
X184.15Y-73.66
X184.15Y-76.2
X184.15Y-78.74
T3
X148.59Y-67.31
X151.13Y-67.31
X153.67Y-67.31
X173.99Y-67.31
X176.53Y-67.31
T4
X137.16Y-63.5
X137.16Y-88.9
X187.96Y-63.5
X187.96Y-88.9
T0
M30
